<svg width="24" height="24" viewBox="0 0 72 72" fill="none"
    xmlns="http://www.w3.org/2000/svg">
    <mask id="mask0_17_15" style="mask-type:luminance" maskUnits="userSpaceOnUse" x="0" y="0" width="72" height="72">
        <path d="M72 0H0V72H72V0Z" fill="white"/>
    </mask>
    <g mask="url(#mask0_17_15)">
        <path d="M66.8571 0H5.14286C2.30253 0 0 2.30253 0 5.14286V66.8571C0 69.6974 2.30253 72 5.14286 72H66.8571C69.6974 72 72 69.6974 72 66.8571V5.14286C72 2.30253 69.6974 0 66.8571 0Z" fill="white"/>
        <path d="M66.8571 0H5.14286C2.30253 0 0 2.30253 0 5.14286V66.8571C0 69.6974 2.30253 72 5.14286 72H66.8571C69.6974 72 72 69.6974 72 66.8571V5.14286C72 2.30253 69.6974 0 66.8571 0Z" fill="#126100"/>
        <mask id="mask1_17_15" style="mask-type:luminance" maskUnits="userSpaceOnUse" x="12" y="12" width="48" height="48">
            <path d="M12.4141 36C12.4141 22.9736 22.9739 12.4138 36.0003 12.4138C49.0266 12.4138 59.5864 22.9736 59.5864 36C59.5864 49.0262 49.0266 59.5862 36.0003 59.5862C22.9739 59.5862 12.4141 49.0262 12.4141 36Z" fill="white"/>
        </mask>
        <g mask="url(#mask1_17_15)">
            <path d="M22.0149 25.3549C26.6259 25.3549 30.364 29.093 30.364 33.704V41.8443H28.6941L30.364 45.4786V50.4022C25.7528 50.4022 22.0149 46.6642 22.0149 42.0531V25.3549Z" fill="white"/>
            <path d="M42.0539 21.5978C46.665 21.5978 50.403 25.3358 50.403 29.9469V46.6451C45.792 46.6451 42.0539 42.907 42.0539 38.296V30.9112H43.7237L42.0539 27.2334V21.5978Z" fill="white"/>
            <path d="M32.0344 15.336C36.6455 15.336 40.3835 19.0741 40.3835 23.6851V27.2872L38.2962 30.8971H40.3835V57.0814C35.7723 57.0814 32.0344 53.3435 32.0344 48.7323V45.5046L34.1216 41.8443H32.0344V15.336Z" fill="white"/>
        </g>
    </g>
</svg>
