<svg width="24" height="24" viewBox="0 0 72 72" fill="none"
    xmlns="http://www.w3.org/2000/svg">
    <g clip-path="url(#clip0_1080_276)">
        <path d="M0 0H72V72H0V0Z" fill="black"/>
        <path d="M53.4716 17.1992C49.129 14.7282 43.5546 16.1986 41.0494 20.482L36.0546 29.0284L33.948 25.3525C32.3538 22.6262 29.3725 20.9057 26.179 20.8649H19.383C16.412 20.8649 14 23.2491 14 26.1745C14 29.0999 16.4172 31.4841 19.383 31.4841H25.0092L32.5453 44.4926C33.2648 45.723 34.5536 46.453 35.9925 46.453C37.4314 46.453 38.7202 45.7178 39.4397 44.4926L50.3919 25.7711C50.8578 24.9747 50.5834 23.9536 49.7708 23.489C48.9634 23.0296 47.9282 23.3001 47.4572 24.1017L36.5049 42.8231C36.3548 43.0784 36.1168 43.1141 35.9873 43.1141C35.858 43.1141 35.6199 43.0784 35.4749 42.8282L27.4522 28.9875C27.1417 28.4514 26.5724 28.1503 25.9823 28.1503H19.3726C18.2701 28.1503 17.3695 27.267 17.3695 26.1745C17.3695 25.0819 18.265 24.1987 19.3726 24.1987H26.1272C28.1303 24.2242 29.9988 25.3014 31.0029 27.0066L34.5536 33.2097C34.6985 33.4599 34.9055 33.6794 35.1799 33.8326C35.9873 34.292 37.0225 34.0214 37.4883 33.2199L43.9635 22.1412C45.5369 19.4507 49.0358 18.5266 51.7636 20.0786C54.4913 21.6307 55.4281 25.0819 53.8547 27.7724L40.9407 49.843C40.9407 49.843 40.9303 49.8583 40.9252 49.8685C39.9986 51.5226 38.1974 52.5947 36.2254 52.656C35.0298 52.6918 32.7731 52.3752 31.0806 49.8072L22.9906 35.8644C22.5248 35.063 21.4947 34.7872 20.6821 35.2467C19.8695 35.7062 19.59 36.7222 20.0558 37.5237L28.1666 51.5073C28.1666 51.5073 28.1976 51.5584 28.2131 51.5788C30.0505 54.402 32.887 56 36.0339 56C36.1323 56 36.2358 56 36.3393 56C39.4862 55.8979 42.3744 54.1774 43.8806 51.5022L56.7842 29.4419C59.2894 25.1585 57.7987 19.66 53.4561 17.189L53.4716 17.1992Z" fill="white"/>
    </g>
    <defs>
        <clipPath id="clip0_1080_276">
            <rect width="72" height="72" rx="6" fill="white"/>
        </clipPath>
    </defs>
</svg>
