<svg
        xmlns="http://www.w3.org/2000/svg"
        width="24"
        height="24"
        fill="none"
        viewBox="0 0 72 72"
>
    <g clip-path="url(#a)">
        <path fill="#15195A" d="M0 0h72v72H0V0Z"/>
        <path
                fill="#fff"
                d="M31.398 42.284h-4l2.501-14.52h4l-2.502 14.52ZM45.898 28.118a10.423 10.423 0 0 0-3.588-.618c-3.95 0-6.732 1.977-6.749 4.804-.033 2.085 1.992 3.244 3.506 3.94 1.547.71 2.073 1.173 2.073 1.807-.015.973-1.25 1.421-2.402 1.421-1.597 0-2.452-.231-3.753-.772l-.527-.232-.56 3.26c.939.4 2.667.756 4.462.772 4.197 0 6.93-1.947 6.962-4.959.016-1.653-1.053-2.92-3.358-3.954-1.399-.665-2.256-1.113-2.256-1.793.017-.617.725-1.25 2.304-1.25a7.176 7.176 0 0 1 2.98.555l.362.155.544-3.136Z"
        />
        <path
                fill="#fff"
                fill-rule="evenodd"
                d="M53.058 27.763h3.094l3.227 14.52h-3.703s-.363-1.668-.478-2.178h-5.136l-.839 2.178h-4.197l5.941-13.315c.412-.942 1.137-1.205 2.091-1.205Zm-.246 5.314s-1.268 3.228-1.597 4.062h3.324c-.164-.725-.922-4.201-.922-4.201l-.28-1.251c-.117.322-.287.765-.402 1.064-.078.202-.13.338-.123.326ZM10.066 27.763H16.5c.873.03 1.58.293 1.811 1.22l1.398 6.671.001.003.428 2.008 3.918-9.902h4.23l-6.288 14.505h-4.23l-3.565-12.617c-1.23-.675-2.634-1.218-4.204-1.594l.066-.294Z"
                clip-rule="evenodd"
        />
    </g>
    <defs>
        <clipPath id="a">
            <rect width='72' height="72" fill="#fff" rx='6'/>
        </clipPath>
    </defs>
</svg>