<svg
        xmlns="http://www.w3.org/2000/svg"
        width="24"
        height="24"
        fill="none"
        viewBox="0 0 72 72"
>
    <g clip-path="url(#a)">
        <path fill="#000" d="M0 0h72v72H0V0Z"/>
        <path fill="#FF5F00" d="M44 49H29V23h15v26Z"/>
        <path
                fill="#EB001B"
                d="M29.626 35.5c0-5.263 2.493-9.951 6.374-12.972A16.737 16.737 0 0 0 25.687 19C16.47 19 9 26.387 9 35.5S16.47 52 25.687 52c3.893 0 7.475-1.319 10.313-3.528-3.881-3.021-6.374-7.71-6.374-12.972Z"
        />
        <path
                fill="#F79E1B"
                d="M63 35.5C63 44.613 55.53 52 46.314 52A16.74 16.74 0 0 1 36 48.472c3.882-3.021 6.374-7.71 6.374-12.972 0-5.263-2.492-9.951-6.374-12.972A16.74 16.74 0 0 1 46.314 19C55.53 19 63 26.387 63 35.5Z"
        />
    </g>
    <defs>
        <clipPath id="a">
            <rect width='72' height="72" fill="#fff" rx='6'/>
        </clipPath>
    </defs>
</svg>