<svg width="28" height="28" viewBox="0 0 72 72" fill="none" stroke="none">
    <defs>
        <clipPath id="rounded-rect">
            <rect width="72" height="72" fill="#ffffff" rx="6" ry="6" />
        </clipPath>
    </defs>
    <g clip-path="url(#rounded-rect)" fill="#ff0000" stroke="none">
        <path d="M36 1.2368e-06H-7.62939e-06V36V72H36H72V36V1.2368e-06H36ZM36.9504 8.1648C37.0656 8.208 37.224 8.3664 37.3104 8.5248C37.4544 8.784 37.4688 8.784 37.8864 8.424C38.1312 8.2224 38.4048 8.064 38.5056 8.064C38.592 8.064 38.7504 8.136 38.8512 8.2368C38.952 8.3376 39.024 8.5824 39.024 8.7984C39.024 9.0144 38.9232 9.216 38.808 9.2736C38.6928 9.3168 38.592 9.4176 38.592 9.504C38.592 9.576 38.6928 9.648 38.808 9.648C38.9232 9.648 39.024 9.5616 39.024 9.4608C39.024 9.3744 39.2544 9.216 39.528 9.1296C39.9744 8.9856 40.0896 9 40.4064 9.2448C40.5936 9.4032 40.8384 9.4896 40.9392 9.4464C41.04 9.4032 41.2416 9.2736 41.4 9.144C41.6736 8.9568 41.7312 8.9568 42.0192 9.1584C42.2352 9.3024 42.336 9.5184 42.336 9.8496C42.336 10.2096 42.4368 10.3968 42.696 10.5696C42.8976 10.6992 43.2576 10.8432 43.488 10.9008C43.8192 10.9584 43.92 10.9296 43.92 10.7568C43.92 10.6272 43.6464 10.3968 43.2576 10.2384C42.7248 9.9936 42.6096 9.8784 42.6528 9.6192C42.6816 9.3744 42.8112 9.2736 43.0992 9.2448C43.3584 9.216 43.9344 9.4032 44.6112 9.72C45.216 10.008 45.8352 10.3392 45.9648 10.4688C46.1088 10.5984 46.224 10.8 46.224 10.9152C46.224 11.0448 46.08 11.2896 45.9072 11.4768L45.5904 11.808L45.9072 12.0384C46.08 12.1536 46.224 12.3984 46.224 12.5856C46.224 12.7728 46.3536 13.032 46.512 13.176C46.6848 13.32 46.8 13.6224 46.8 13.8816L46.8144 14.328L47.1024 13.9248C47.2608 13.7088 47.4912 13.536 47.592 13.536C47.6928 13.536 47.9376 13.7232 48.1248 13.968C48.2976 14.1984 48.6 14.5872 48.7872 14.832C49.0608 15.192 49.176 15.2352 49.4064 15.12C49.5504 15.0336 49.68 14.8896 49.68 14.7888C49.68 14.688 49.5504 14.4576 49.392 14.256C49.2336 14.0544 49.104 13.752 49.104 13.5792C49.104 13.4064 49.2336 13.1904 49.4064 13.104C49.6368 12.9744 49.7808 12.9888 50.0832 13.1904C50.2848 13.32 50.6448 13.6368 50.8608 13.8816C51.0912 14.1264 51.4368 14.6016 51.624 14.9328C51.84 15.2928 51.984 15.7536 51.984 16.0848C51.9696 16.3872 51.8832 16.7904 51.768 16.992C51.6528 17.1936 51.5664 17.712 51.552 18.1584C51.552 18.7632 51.48 19.0656 51.2496 19.3536C51.0912 19.5552 50.76 19.8288 50.5296 19.944C50.2992 20.0736 50.112 20.2464 50.112 20.3616C50.112 20.4624 50.2416 20.664 50.4 20.808C50.5584 20.952 50.688 21.1536 50.688 21.2544C50.688 21.3552 50.8896 21.672 51.1344 21.96C51.48 22.3488 51.5664 22.5504 51.4944 22.8384C51.4224 23.0832 51.4944 23.3568 51.7104 23.7024C51.9696 24.12 51.9984 24.2784 51.8544 24.5664C51.768 24.7536 51.6384 24.912 51.5664 24.912C51.48 24.912 51.2352 25.1136 50.9904 25.3728C50.76 25.632 50.5872 25.8912 50.6304 25.9488C50.6736 26.0064 50.832 26.064 50.9904 26.064C51.1488 26.064 51.264 26.1648 51.264 26.2944C51.264 26.424 51.1344 26.712 50.976 26.9424C50.7312 27.2736 50.688 27.4752 50.7744 28.0368C50.8464 28.656 50.8176 28.7712 50.4864 29.0736C50.1264 29.4192 50.112 29.4192 49.8096 29.1456C49.5216 28.8864 49.5072 28.8864 49.3056 29.16C49.1904 29.304 49.104 29.4768 49.104 29.5488C49.104 29.6064 48.9456 29.664 48.7584 29.664C48.5568 29.664 48.3696 29.7216 48.3264 29.7792C48.2832 29.8512 48.4416 30.0528 48.672 30.2256C48.9456 30.4272 49.104 30.672 49.104 30.888C49.104 31.104 48.9744 31.3056 48.7872 31.4064C48.528 31.5504 48.3696 31.5216 47.8656 31.2336C47.3328 30.9456 47.2032 30.9312 46.872 31.0752C46.6272 31.1904 46.512 31.3488 46.5408 31.5072C46.5696 31.6656 46.728 31.752 47.0304 31.7664C47.2752 31.7808 47.5488 31.824 47.6496 31.8816C47.736 31.9392 47.808 32.112 47.808 32.2704C47.808 32.4288 47.6496 32.7024 47.4768 32.8896C47.2608 33.1056 46.8864 33.264 46.4256 33.3216C46.0224 33.3792 45.6192 33.48 45.5184 33.5376C45.4176 33.6096 45.3168 33.8832 45.3024 34.1712C45.2736 34.4592 45.1872 34.7904 45.0864 34.9056C45 35.0064 44.64 35.1792 44.3088 35.2656C43.8768 35.3664 43.632 35.5392 43.4736 35.8416C43.344 36.072 43.0416 36.3456 42.8256 36.4608C42.5232 36.5904 42.3936 36.7776 42.3648 37.08C42.336 37.3248 42.2064 37.6272 42.0912 37.7568C41.9616 37.9008 41.6448 38.0736 41.3856 38.16C41.112 38.2608 40.896 38.376 40.896 38.4336C40.896 38.4912 40.7088 38.7504 40.4928 38.9952C40.2624 39.2544 40.0176 39.456 39.9456 39.456C39.8736 39.456 39.5568 39.3264 39.24 39.168C38.8512 38.9664 38.3904 38.88 37.7568 38.88C37.2528 38.88 36.6624 38.7936 36.4608 38.6784C36.2448 38.5776 35.8992 38.4048 35.6832 38.304C35.4096 38.1744 35.0064 38.1456 34.3872 38.2176C33.8832 38.2752 33.3792 38.3328 33.264 38.3328C33.1488 38.3328 32.6016 38.2608 32.0544 38.1744C31.4928 38.088 30.9312 37.9152 30.8016 37.7856C30.6432 37.656 30.4272 37.5984 30.1968 37.656C29.9664 37.7136 29.6352 37.6416 29.2896 37.4688C28.9728 37.3104 28.6272 37.0656 28.4976 36.9216C28.368 36.7632 28.2096 36.432 28.152 36.1728C28.0944 35.9136 27.936 35.6544 27.8064 35.568C27.6624 35.496 27.4032 35.4816 27.2304 35.5248C27 35.5824 26.8992 35.5392 26.8416 35.3232C26.7984 35.1792 26.5824 34.9776 26.352 34.8912C26.1216 34.8048 25.8048 34.5312 25.6608 34.272C25.5024 34.0272 25.416 33.696 25.4448 33.5376C25.5024 33.336 25.3728 33.0912 25.0704 32.7744C24.7392 32.4432 24.5952 32.1264 24.5376 31.608C24.48 31.176 24.3072 30.7296 24.0912 30.4848C23.9184 30.2544 23.76 30.024 23.76 29.9664C23.76 29.9088 23.8608 29.5488 23.9904 29.16C24.2208 28.5264 24.2208 28.44 23.9904 28.0656C23.8176 27.7776 23.7744 27.504 23.8464 27.144C23.8896 26.856 23.8752 26.5536 23.7888 26.4528C23.7024 26.352 23.6016 25.9344 23.5584 25.5168C23.5296 25.1136 23.3856 24.624 23.2704 24.4512C23.112 24.2208 23.04 23.8032 23.04 23.0544C23.04 22.032 23.0544 21.9744 23.544 21.5136C23.8176 21.2544 24.048 20.952 24.048 20.8224C24.048 20.7072 23.976 20.5632 23.904 20.52C23.8176 20.4768 23.8032 20.2752 23.8464 20.1024C23.904 19.8288 23.7888 19.656 23.1984 19.1664C22.7952 18.8208 22.464 18.4752 22.464 18.3888C22.464 18.3024 22.5504 18.1296 22.6656 18.0144C22.7808 17.8848 22.968 17.496 23.0976 17.136C23.2416 16.7184 23.2704 16.4448 23.184 16.3584C23.0976 16.272 23.04 16.128 23.04 16.0128C23.04 15.8976 22.8816 15.6096 22.68 15.3792C22.392 15.0336 22.3488 14.904 22.4784 14.7456C22.5936 14.6016 22.9968 14.544 23.8896 14.544C25.0128 14.544 25.1856 14.5152 25.4592 14.2128C25.7184 13.9392 25.7472 13.824 25.6176 13.32C25.5312 13.0032 25.4304 12.6 25.3872 12.4128C25.344 12.24 25.3872 12.0096 25.4736 11.8944C25.5744 11.7792 25.9776 11.6496 26.3808 11.592C26.9136 11.52 27.2448 11.3616 27.6336 11.016C28.008 10.6848 28.3392 10.512 28.728 10.4832C29.1456 10.4544 29.3328 10.3536 29.5056 10.0656C29.6352 9.8496 30.0096 9.4464 30.3552 9.144C30.9024 8.6544 31.0176 8.6112 31.5648 8.6832C31.8816 8.7264 32.3424 8.8992 32.5584 9.0576C32.7888 9.2304 33.0624 9.36 33.192 9.36C33.3216 9.36 33.5808 9.2592 33.768 9.1296C33.9552 9 34.3296 8.928 34.5888 8.9424C34.848 8.9568 35.2224 8.928 35.424 8.856C35.6256 8.7984 36 8.5968 36.2736 8.4096C36.5328 8.2368 36.8496 8.1216 36.9504 8.1648ZM18.144 41.9472C19.152 41.9904 19.6992 42.0912 20.2176 42.3216C20.8512 42.5952 20.952 42.6096 21.168 42.408C21.2976 42.2928 21.5424 42.192 21.7152 42.192C22.0176 42.192 22.032 42.2496 22.0608 43.776C22.0752 44.64 22.0896 45.4752 22.0896 45.6048C22.104 45.7632 21.9888 45.8784 21.816 45.9072C21.5712 45.936 21.4272 45.7632 21.0672 44.9712C20.808 44.4384 20.3904 43.776 20.1312 43.5024C19.872 43.2288 19.4544 42.9264 19.1952 42.8256C18.936 42.7104 18.4896 42.624 18.2016 42.624C17.9136 42.624 17.4672 42.7248 17.1936 42.8544C16.92 42.984 16.6032 43.272 16.488 43.5024C16.3728 43.7184 16.272 44.0928 16.272 44.3232C16.272 44.5536 16.4016 44.9136 16.5744 45.1296C16.7328 45.3312 17.0784 45.6192 17.3232 45.7488C17.568 45.8784 18.4176 46.1952 19.1952 46.4544C19.9872 46.7136 20.9088 47.1024 21.2544 47.304C21.6288 47.52 22.032 47.9232 22.248 48.2976C22.4496 48.6288 22.6512 49.2048 22.6944 49.5648C22.752 50.0112 22.7088 50.4576 22.536 50.9616C22.3632 51.48 22.104 51.8688 21.6 52.3152C21.1824 52.6896 20.6064 53.0352 20.16 53.1792C19.6704 53.3376 18.936 53.424 18.0864 53.424C17.064 53.424 16.56 53.3376 15.768 53.064C14.8896 52.7472 14.7456 52.7328 14.544 52.92C14.4144 53.0352 14.1264 53.136 13.9248 53.136H13.536V51.192C13.536 49.3632 13.5504 49.248 13.8096 49.248C14.0112 49.248 14.2416 49.5216 14.5728 50.1408C14.832 50.6448 15.3504 51.3504 15.7248 51.7248C16.0992 52.0848 16.6464 52.4736 16.9344 52.56C17.2224 52.6608 17.8416 52.704 18.3312 52.6752C19.1088 52.6176 19.2384 52.56 19.6704 52.0848C20.0736 51.6528 20.16 51.4368 20.16 50.9328C20.16 50.4144 20.0736 50.2272 19.6992 49.8672C19.3536 49.536 18.7056 49.2336 17.3664 48.7584C16.2864 48.384 15.3072 47.952 15.0048 47.6928C14.7168 47.4768 14.328 47.0016 14.1552 46.656C13.9248 46.2384 13.824 45.792 13.824 45.2592C13.824 44.8416 13.9104 44.2656 14.0256 44.0064C14.1408 43.7472 14.4576 43.3008 14.7312 43.0128C15.0192 42.7392 15.5952 42.3648 16.0128 42.2064C16.6464 41.9616 17.0064 41.9184 18.144 41.9472ZM41.832 41.9472C42.9264 41.976 43.4304 42.0624 43.9488 42.2928C44.5248 42.552 44.6544 42.5664 44.7984 42.3936C44.8848 42.2784 45.144 42.192 45.3744 42.192H45.792V44.2224C45.792 46.1808 45.7776 46.2384 45.4896 46.1952C45.288 46.1664 45.1008 45.9072 44.8704 45.3456C44.6976 44.8992 44.3952 44.2944 44.208 43.992C44.0208 43.704 43.5744 43.272 43.2144 43.0416C42.696 42.7104 42.408 42.624 41.7744 42.624C41.2416 42.624 40.824 42.7104 40.5216 42.8976C40.2624 43.056 39.9024 43.3872 39.7008 43.6608C39.4992 43.92 39.2256 44.4528 39.0816 44.856C38.8944 45.3888 38.8368 46.0512 38.8224 47.376C38.808 48.7728 38.8656 49.3632 39.0816 49.9968C39.2256 50.4432 39.5424 51.048 39.7872 51.336C40.032 51.6384 40.4928 51.9984 40.8096 52.1424C41.1408 52.2864 41.688 52.416 42.048 52.416C42.408 52.416 42.9552 52.344 43.272 52.2576C43.6608 52.1568 44.1216 51.8256 44.6544 51.2784C45.1008 50.832 45.504 50.3712 45.5328 50.256C45.5904 50.0832 45.6768 50.0688 45.8784 50.1984C46.0224 50.2848 46.152 50.4144 46.1808 50.4864C46.2096 50.5728 46.0224 50.9328 45.7776 51.3072C45.5328 51.6672 45.0144 52.2144 44.6256 52.5024C44.2368 52.7904 43.6032 53.1216 43.2288 53.2368C42.8544 53.3376 42.0336 53.4384 41.4 53.4384C40.7664 53.4384 39.9456 53.3376 39.5712 53.2224C39.1968 53.1072 38.6064 52.8624 38.2608 52.6608C37.9152 52.4592 37.3824 52.0128 37.0944 51.6816C36.792 51.3504 36.3744 50.7168 36.1584 50.2704C35.8272 49.5504 35.784 49.2912 35.784 47.808C35.784 46.2528 35.8128 46.0944 36.2448 45.1872C36.4896 44.6544 36.9936 43.9344 37.3392 43.5744C37.6992 43.2288 38.2752 42.7824 38.6208 42.6096C38.952 42.4368 39.4992 42.2064 39.816 42.0912C40.176 41.976 40.9104 41.9184 41.832 41.9472ZM27.36 42.192C30.2832 42.192 30.384 42.2064 30.384 42.48C30.384 42.696 30.2832 42.768 30.0384 42.768C29.8368 42.768 29.5056 42.84 29.2752 42.9264C29.0592 42.9984 28.8288 43.1568 28.7712 43.2432C28.7136 43.344 28.656 45.3024 28.656 47.592C28.656 51.1056 28.6848 51.8256 28.872 52.0848C29.016 52.2864 29.3184 52.4304 29.736 52.5024C30.096 52.5456 30.816 52.5456 31.32 52.488C31.9968 52.416 32.3712 52.3008 32.6736 52.0416C32.8896 51.8544 33.3216 51.2496 33.6096 50.688C33.9696 49.9968 34.2288 49.68 34.4016 49.68C34.6464 49.68 34.6608 49.7952 34.6032 50.9328C34.5744 51.6384 34.5168 52.416 34.4736 52.6608L34.4016 53.136H29.376C24.552 53.136 24.336 53.1216 24.336 52.8624C24.336 52.6608 24.48 52.5744 24.912 52.5168C25.2432 52.4736 25.5888 52.3584 25.704 52.272C25.8912 52.128 25.92 51.3792 25.92 47.7216V43.344L25.6032 43.1424C25.416 43.0272 25.056 42.8976 24.8112 42.84C24.4656 42.768 24.336 42.6672 24.336 42.4656C24.336 42.2064 24.48 42.192 27.36 42.192ZM51.5952 42.2208C55.5984 42.264 55.6704 42.264 56.3616 42.624C56.7648 42.8256 57.2112 43.1568 57.3552 43.3728C57.5136 43.5744 57.672 44.064 57.7008 44.4528C57.7584 45.0144 57.7008 45.2448 57.4272 45.648C57.24 45.9216 56.8656 46.296 56.592 46.4832C56.3184 46.6704 55.8144 46.9008 55.4832 46.9872C55.1376 47.0736 54.864 47.1888 54.864 47.2464C54.864 47.304 55.1088 47.3904 55.4112 47.448C55.6992 47.4912 56.2752 47.6928 56.6784 47.8656C57.096 48.0672 57.5856 48.4272 57.8016 48.7152C58.032 49.0032 58.2336 49.4928 58.2768 49.8096C58.32 50.1264 58.3056 50.616 58.2624 50.904C58.2048 51.1776 57.9744 51.6384 57.744 51.8976C57.4992 52.1568 56.9664 52.5312 56.5632 52.7184C55.8288 53.0496 55.656 53.064 51.6672 53.1072C47.6496 53.1504 47.52 53.1504 47.52 52.8768C47.52 52.6608 47.6496 52.5744 48.096 52.5168C48.4272 52.4736 48.7728 52.3584 48.888 52.272C49.0752 52.128 49.104 51.3792 49.104 47.7216V43.344L48.7872 43.1424C48.6 43.0272 48.24 42.8976 47.9952 42.84C47.6496 42.768 47.52 42.6672 47.52 42.4512C47.52 42.1776 47.592 42.1632 51.5952 42.2208ZM21.6144 57.744C21.8448 57.744 22.032 57.7872 22.032 57.8448C22.032 57.9168 21.8448 59.0544 21.6288 60.408L21.2256 62.856L20.664 62.8992C20.3472 62.9136 19.9296 62.9424 19.7424 62.9712C19.4832 62.9856 19.3248 62.8992 19.1952 62.64C19.0656 62.4096 19.0224 62.0208 19.0656 61.5888C19.1088 61.2 19.2528 60.6528 19.3968 60.3648C19.5408 60.0912 19.7712 59.7888 19.9008 59.7024C20.088 59.5872 20.232 59.6016 20.448 59.7312C20.6064 59.8176 20.7504 59.904 20.7936 59.904C20.8224 59.904 20.8944 59.5584 20.9376 59.1408C20.9952 58.7376 21.0816 58.248 21.1248 58.0608C21.1824 57.8304 21.2976 57.744 21.6144 57.744ZM25.6608 57.744C25.9488 57.744 26.064 57.816 26.064 57.9888C26.064 58.1328 25.9056 59.2704 25.704 60.5232C25.5024 61.776 25.344 62.8416 25.344 62.8704C25.344 62.8992 25.1568 62.928 24.912 62.928C24.6816 62.928 24.48 62.8848 24.48 62.8128C24.48 62.7552 24.6528 61.5888 24.8688 60.2208L25.2576 57.744H25.6608ZM50.5728 57.744C50.8032 57.744 50.976 57.816 50.976 57.9168C50.976 58.0176 50.8032 59.184 50.6016 60.5088L50.2128 62.928H49.7808C49.3632 62.928 49.3632 62.9136 49.4352 62.3808C49.4784 62.0928 49.6656 60.9264 49.8384 59.7888L50.1552 57.744H50.5728ZM27.0144 58.176C27.1872 58.176 27.3744 58.2768 27.4176 58.4064C27.4608 58.536 27.504 58.6944 27.504 58.7664C27.504 58.8384 27.3456 58.9968 27.144 59.1264C26.856 59.3136 26.7408 59.328 26.568 59.184C26.4528 59.0832 26.352 58.896 26.352 58.7664C26.352 58.6368 26.424 58.4496 26.5248 58.3488C26.6256 58.248 26.8416 58.176 27.0144 58.176ZM36.1152 58.2048C36.3744 58.2336 36.5184 58.3488 36.5472 58.5504C36.576 58.7088 36.4608 58.9536 36.3024 59.0976C36.0864 59.2992 35.9712 59.3136 35.7264 59.184C35.5536 59.0976 35.424 58.968 35.424 58.8816C35.424 58.7952 35.496 58.608 35.5824 58.4496C35.6832 58.248 35.856 58.176 36.1152 58.2048ZM23.4 59.616C23.5872 59.616 23.8752 59.76 24.048 59.9328C24.2064 60.1056 24.336 60.408 24.336 60.6096C24.336 60.8112 24.2928 61.128 24.2496 61.3008C24.1776 61.5888 24.0624 61.632 23.472 61.632C23.04 61.632 22.752 61.704 22.7088 61.8048C22.68 61.9056 22.68 62.0784 22.7232 62.1648C22.752 62.2656 22.8672 62.352 22.968 62.352C23.0688 62.352 23.2272 62.2656 23.3136 62.1504C23.4144 62.0352 23.616 61.9776 23.76 62.0208C23.9184 62.064 24.048 62.136 24.048 62.1936C24.048 62.2512 23.9184 62.4384 23.76 62.6112C23.6016 62.784 23.2992 62.9712 23.0976 63.0144C22.8384 63.0864 22.608 63.0144 22.3488 62.8272C22.0608 62.6112 21.9456 62.3808 21.9168 61.9776C21.888 61.6752 21.9312 61.1712 22.0176 60.8832C22.104 60.5952 22.3776 60.192 22.6224 59.9904C22.8672 59.7888 23.2128 59.616 23.4 59.616ZM31.8672 59.616C31.9968 59.616 32.2416 59.7456 32.4144 59.9184C32.6448 60.1488 32.688 60.3504 32.6592 60.8832L32.616 61.56L31.8672 61.6032C31.2192 61.6464 31.104 61.6896 31.104 61.9344C31.104 62.0928 31.2048 62.2512 31.3344 62.3088C31.464 62.352 31.608 62.3232 31.6656 62.2512C31.7088 62.1792 31.896 62.0784 32.0688 62.0352C32.256 61.9776 32.4288 61.992 32.472 62.064C32.5152 62.1216 32.3568 62.3808 32.1264 62.6256C31.8816 62.8992 31.5648 63.072 31.3488 63.072C31.1472 63.072 30.8448 62.9424 30.6576 62.7984C30.3696 62.568 30.312 62.3952 30.3264 61.8048C30.3264 61.4016 30.456 60.8688 30.6288 60.5376C30.7872 60.2352 31.0752 59.8896 31.2624 59.8032C31.4496 59.7024 31.7232 59.616 31.8672 59.616ZM34.8768 59.616C34.9344 59.616 34.992 59.7024 34.992 59.8176C34.992 59.9328 34.9488 60.12 34.9056 60.2496C34.8624 60.3792 34.704 60.48 34.56 60.48C34.4016 60.48 34.2432 60.5664 34.1712 60.6528C34.1136 60.7536 33.9984 61.2864 33.912 61.848C33.768 62.8416 33.7536 62.856 33.2928 62.8992C32.8608 62.9424 32.8464 62.928 32.9184 62.5392C32.9616 62.3232 33.0624 61.6176 33.1632 60.984L33.336 59.832L33.9552 59.8176C34.2864 59.8032 34.6032 59.76 34.6608 59.7024C34.704 59.6592 34.8048 59.616 34.8768 59.616ZM38.5488 59.616C38.6496 59.616 38.7936 59.7312 38.8656 59.8752C38.9664 60.0624 38.9376 60.552 38.808 61.4304C38.6928 62.136 38.592 62.7552 38.592 62.8128C38.592 62.8848 38.4048 62.928 38.16 62.928C37.9296 62.928 37.728 62.8848 37.728 62.8128C37.728 62.7552 37.8 62.2944 37.8864 61.7904C37.9584 61.2864 37.9872 60.768 37.944 60.6528C37.8864 60.4944 37.8288 60.48 37.6704 60.6096C37.5552 60.696 37.4256 61.1424 37.3824 61.6032C37.3248 62.0496 37.2528 62.5392 37.2096 62.6688C37.152 62.8416 36.9936 62.928 36.6912 62.928C36.3168 62.928 36.2736 62.8848 36.3312 62.5968C36.3744 62.424 36.504 61.7184 36.5904 61.0128C36.7776 59.7888 36.792 59.76 37.1664 59.76C37.3824 59.76 37.584 59.832 37.6128 59.9328C37.656 60.048 37.7712 60.0336 38.016 59.8608C38.2176 59.7312 38.448 59.616 38.5488 59.616ZM40.3776 59.616C40.4928 59.616 40.6224 59.6736 40.6656 59.7456C40.7088 59.8176 41.0112 59.8464 41.328 59.8032C41.6448 59.76 41.904 59.7744 41.904 59.832C41.904 59.8896 41.76 60.8112 41.6016 61.8912C41.3568 63.3456 41.2128 63.9072 40.9824 64.1808C40.8096 64.368 40.4496 64.5552 40.176 64.5984C39.8016 64.656 39.5856 64.6128 39.3552 64.4112C39.1824 64.2672 39.024 64.0224 38.9952 63.864C38.9664 63.6624 39.0384 63.5616 39.2832 63.5328C39.4848 63.504 39.7008 63.5904 39.816 63.7344C39.96 63.9504 40.0464 63.9648 40.2192 63.8208C40.3344 63.72 40.464 63.4464 40.4928 63.216C40.536 62.9712 40.5072 62.784 40.4496 62.784C40.392 62.784 40.2912 62.8416 40.248 62.928C40.2048 63 40.032 63.072 39.888 63.072C39.7296 63.072 39.5136 62.8992 39.384 62.64C39.2688 62.4096 39.168 62.1216 39.168 62.0064C39.168 61.8912 39.24 61.4736 39.3264 61.0704C39.4128 60.6816 39.6288 60.192 39.816 59.9904C40.0032 59.7888 40.2624 59.616 40.3776 59.616ZM47.808 59.616C47.9376 59.616 48.096 59.6592 48.1536 59.7168C48.2112 59.7744 48.4992 59.8032 48.8016 59.7744L49.3488 59.7456L49.1184 61.3008L48.8736 62.856L48.384 62.8704C48.1104 62.8704 47.7216 62.928 47.5344 63C47.2608 63.0864 47.1168 63.0432 46.9152 62.784C46.7568 62.5824 46.656 62.2224 46.656 61.848C46.656 61.5168 46.728 61.0272 46.8144 60.7536C46.9152 60.48 47.1168 60.12 47.2752 59.9328C47.4336 59.76 47.6784 59.616 47.808 59.616ZM55.152 59.616C55.2816 59.616 55.5264 59.7168 55.6992 59.8464C55.9872 60.048 56.0304 60.1776 55.9872 60.8112L55.944 61.56L55.1952 61.6032C54.5472 61.6464 54.432 61.6896 54.432 61.9344C54.432 62.0928 54.5328 62.2512 54.648 62.2944C54.7632 62.3376 54.9504 62.28 55.08 62.1648C55.1952 62.0496 55.4256 61.9776 55.584 62.0208C55.8 62.0784 55.8432 62.1504 55.728 62.3664C55.6416 62.5104 55.44 62.7264 55.2672 62.8416C55.0944 62.9712 54.8064 63.072 54.6336 63.072C54.4608 63.072 54.1728 62.9568 53.9856 62.7984C53.712 62.5824 53.6544 62.3952 53.6688 61.8192C53.6688 61.416 53.7984 60.8544 53.928 60.5664C54.072 60.2784 54.3456 59.9472 54.5616 59.832C54.7632 59.7168 55.0368 59.6304 55.152 59.616ZM26.7696 59.76C27.1728 59.76 27.2016 59.7888 27.1296 60.1488C27.0864 60.3792 26.9856 61.0704 26.8848 61.704L26.712 62.856L26.2368 62.8992C25.8192 62.9424 25.7616 62.9136 25.8192 62.6832C25.8624 62.5392 25.9776 61.9056 26.064 61.272C26.1648 60.6384 26.2512 60.0336 26.2944 59.9328C26.3232 59.8464 26.5392 59.76 26.7696 59.76ZM28.0368 59.76H28.512V60.552C28.512 60.984 28.5696 61.344 28.6272 61.344C28.6848 61.344 28.8576 60.984 29.016 60.552C29.2608 59.8032 29.304 59.76 29.7504 59.76C30.1968 59.76 30.2256 59.7888 30.1104 60.0768C30.0384 60.264 29.7216 60.9696 29.4048 61.6608C28.8576 62.856 28.7856 62.928 28.3824 62.928C28.0224 62.928 27.936 62.8704 27.9216 62.5968C27.9216 62.424 27.8352 61.7184 27.7344 61.0128L27.5616 59.76H28.0368ZM35.8704 59.76C36.2592 59.76 36.3168 59.8032 36.2448 60.0768C36.2016 60.264 36.0864 60.9696 35.9856 61.6608L35.8128 62.928H35.352H34.9056L35.1504 61.3728C35.2944 60.5232 35.4096 59.8176 35.424 59.7888C35.424 59.7744 35.6256 59.76 35.8704 59.76ZM44.3232 59.76C44.7408 59.76 44.7696 59.7888 44.8704 60.5664C44.9136 60.9984 45.0144 61.3152 45.072 61.2432C45.1296 61.1856 45.288 60.8256 45.432 60.4368C45.6624 59.8176 45.72 59.76 46.1664 59.76H46.6416L45.9072 61.344C45.2304 62.7984 45.1296 62.928 44.7696 62.928C44.4528 62.928 44.3664 62.856 44.2944 62.5248C44.2512 62.3088 44.1792 61.776 44.136 61.344C44.0928 60.912 44.0208 60.3792 43.9776 60.1488C43.9056 59.7888 43.9344 59.76 44.3232 59.76ZM51.6816 59.76C52.0848 59.76 52.1136 59.7888 52.0416 60.1488C52.0128 60.3792 51.912 60.8688 51.84 61.272C51.768 61.6608 51.768 62.0496 51.84 62.1216C51.8976 62.1792 52.0272 62.208 52.0992 62.1504C52.1712 62.1072 52.3152 61.5456 52.416 60.912C52.5888 59.7744 52.6032 59.76 53.0064 59.76C53.352 59.76 53.424 59.8176 53.424 60.0768C53.4096 60.264 53.3232 60.84 53.2224 61.3728C53.1216 61.92 52.92 62.4816 52.7904 62.6256C52.6464 62.784 52.344 62.9568 52.1136 63C51.8832 63.0576 51.5664 63.0576 51.408 63C51.2496 62.9568 51.048 62.784 50.9616 62.6256C50.8608 62.424 50.8608 62.0064 50.976 61.2288C51.0624 60.624 51.1632 60.0336 51.192 59.9328C51.2208 59.8464 51.4512 59.76 51.6816 59.76ZM14.7744 61.92C14.9616 61.92 15.1488 61.992 15.192 62.0784C15.2496 62.1504 15.2496 62.3808 15.2064 62.568C15.1632 62.7552 14.9904 62.9568 14.8176 63C14.6592 63.0576 14.4432 63.0144 14.328 62.928C14.2128 62.8272 14.112 62.64 14.112 62.5104C14.112 62.3808 14.184 62.1936 14.2848 62.0928C14.3856 61.992 14.6016 61.92 14.7744 61.92ZM16.416 61.9488C16.6896 61.9776 16.7904 62.0928 16.8192 62.3808C16.8624 62.6976 16.7904 62.8128 16.5024 62.9424C16.2144 63.072 16.0848 63.072 15.912 62.928C15.7968 62.8272 15.696 62.64 15.696 62.5104C15.696 62.3808 15.7824 62.1792 15.8688 62.0928C15.9696 61.992 16.2144 61.92 16.416 61.9488ZM17.9856 61.92C18.2304 61.92 18.432 62.0064 18.4896 62.1504C18.5328 62.2656 18.504 62.496 18.432 62.64C18.36 62.784 18.1584 62.9568 17.9856 63C17.7984 63.072 17.5968 63.0144 17.4528 62.8704C17.2656 62.6976 17.2656 62.5824 17.3952 62.28C17.5248 62.0208 17.6688 61.92 17.9856 61.92Z" />
        <path d="M36.936 8.55356C36.864 8.52476 36.4608 8.69756 36.0576 8.92796C35.64 9.17276 35.2512 9.44636 35.1648 9.54716C35.0928 9.63356 34.704 10.3536 34.2864 11.1312L33.552 12.528V14.4144C33.552 16.2144 33.5664 16.3296 33.912 16.7184C34.2576 17.136 34.2576 17.136 34.416 16.8336C34.5168 16.6608 34.5456 16.2576 34.5168 15.9264C34.4736 15.6096 34.3872 14.9616 34.3296 14.5152C34.272 13.9248 34.3008 13.5072 34.4736 13.0176C34.6032 12.6432 35.2512 11.6208 35.9424 10.7136C36.648 9.77756 37.152 8.98556 37.1232 8.84156C37.1088 8.69756 37.0224 8.56796 36.936 8.55356ZM35.4528 9.79196C35.5104 9.79196 35.568 9.86396 35.568 9.95036C35.568 10.0368 35.208 10.7856 34.776 11.6064C34.0704 12.9456 33.984 13.2192 33.9984 13.9392C33.9984 14.3856 34.056 15.1056 34.1136 15.5088C34.1712 15.9264 34.1712 16.272 34.1136 16.272C34.0416 16.272 33.9408 16.1856 33.8832 16.0704C33.8256 15.9552 33.7968 15.048 33.84 14.0688C33.912 12.4272 33.9552 12.2256 34.3008 11.7216C34.5168 11.4048 34.8336 10.8576 35.0064 10.4688C35.1936 10.0944 35.3952 9.79196 35.4528 9.79196Z" />
        <path d="M38.4192 8.49604C38.304 8.49604 38.0448 8.66884 37.8432 8.88484C37.6272 9.11524 36.9648 9.90724 36.3744 10.656C35.7696 11.4048 35.1216 12.3408 34.92 12.7296C34.6752 13.2192 34.56 13.68 34.56 14.1696C34.56 14.5728 34.6464 15.192 34.7616 15.5376C34.8624 15.9264 34.992 16.1136 35.0496 15.9984C35.1072 15.912 35.0496 15.5232 34.92 15.1344C34.7472 14.616 34.7328 14.2848 34.8192 13.8672C34.8912 13.5504 35.0064 13.1904 35.0784 13.0752C35.1504 12.9456 35.7264 12.2544 36.3456 11.5344C36.9792 10.8288 37.5408 10.2672 37.6128 10.3104C37.6848 10.3536 37.656 10.4976 37.5552 10.6272C37.4544 10.7712 36.936 11.3616 36.4032 11.9808C35.8848 12.5856 35.3808 13.2048 35.3088 13.3488C35.2224 13.4928 35.1504 13.7952 35.136 14.04C35.1072 14.2704 35.1504 14.8176 35.208 15.2208C35.2656 15.6384 35.3952 16.0848 35.496 16.2288C35.6688 16.4592 35.712 16.4304 36.1152 16.0416C36.36 15.7968 36.6336 15.3072 36.72 14.9616C36.8208 14.616 36.9936 14.1408 37.1088 13.9248C37.224 13.6944 37.944 12.8448 38.7216 12.0096C39.4992 11.1888 40.2192 10.3392 40.32 10.152C40.4928 9.83524 40.4784 9.76324 40.248 9.50404C40.104 9.34564 39.9312 9.21604 39.8592 9.21604C39.8016 9.21604 39.456 9.64804 39.1104 10.1808C38.7648 10.728 38.088 11.6352 37.5984 12.2112C37.1088 12.8016 36.504 13.5648 36.2736 13.9392C35.9712 14.4288 35.856 14.7744 35.856 15.2784C35.856 15.6528 35.7984 16.0128 35.712 16.056C35.6256 16.1136 35.568 15.8688 35.568 15.4224C35.568 15.0336 35.6976 14.4288 35.8416 14.0832C36 13.7376 36.7056 12.7584 37.4256 11.88C38.1456 11.016 38.736 10.224 38.736 10.1376C38.736 10.0368 38.6352 9.92164 38.5056 9.87844C38.3472 9.82084 38.2896 9.67684 38.3472 9.46084C38.3904 9.28804 38.4768 9.00004 38.52 8.81284C38.592 8.58244 38.5632 8.49604 38.4192 8.49604Z" />
        <path d="M31.5072 8.98553C31.1616 8.92793 30.96 8.97113 30.8304 9.12953C30.6864 9.30233 30.672 9.44633 30.816 9.82073C30.9024 10.0799 31.032 11.1023 31.0896 12.0959C31.1904 13.7087 31.248 13.9967 31.6512 14.8319C31.9104 15.3503 32.112 15.8399 32.112 15.9407C32.112 16.0415 32.184 16.1279 32.256 16.1279C32.3424 16.1279 32.4 16.0271 32.4 15.8975C32.4 15.7823 32.1696 15.2351 31.8816 14.6879C31.3776 13.7087 31.3776 13.6799 31.3344 11.6639C31.3056 10.2671 31.3488 9.66233 31.4496 9.69113C31.536 9.71993 31.6656 10.0943 31.7376 10.5263C31.824 11.0303 31.8096 11.6351 31.7088 12.2399C31.5792 12.9743 31.5936 13.3055 31.7376 13.7375L31.9248 14.2703L32.0112 13.1327C32.0544 12.5135 32.1984 11.7071 32.3136 11.3615C32.4288 11.0159 32.5728 10.4543 32.6304 10.1231C32.7168 9.59033 32.6736 9.50393 32.3568 9.30233C32.1552 9.15833 31.7808 9.02873 31.5072 8.98553Z" />
        <path d="M34.5312 9.21597C34.4304 9.21597 34.1136 9.34557 33.84 9.51837C33.5664 9.67677 33.2208 9.96477 33.0912 10.1232C32.9472 10.296 32.832 10.5552 32.832 10.6992C32.832 10.8432 32.7024 11.3328 32.544 11.808C32.3136 12.4992 32.2704 12.8736 32.3424 13.7088C32.4 14.2848 32.5296 14.976 32.6304 15.2496C32.7456 15.5232 32.8608 15.7104 32.904 15.6672C32.9472 15.6384 32.904 15.2784 32.8176 14.8896C32.7312 14.5008 32.6304 13.8816 32.5872 13.5072C32.544 13.032 32.6304 12.4992 32.904 11.6064C33.12 10.9296 33.3504 10.368 33.4224 10.368C33.4944 10.368 33.552 10.4688 33.552 10.584C33.552 10.6992 33.3792 11.2896 33.1776 11.8944C32.8896 12.7008 32.8176 13.1616 32.8608 13.6944C32.904 14.0976 33.0048 14.4864 33.1056 14.5872C33.2208 14.7024 33.264 14.4576 33.264 13.608C33.264 12.528 33.3072 12.3696 33.984 10.9584C34.3872 10.1376 34.704 9.41757 34.704 9.34557C34.704 9.27357 34.6176 9.21597 34.5312 9.21597Z" />
        <path d="M41.7024 9.35996C41.5872 9.35996 41.328 9.59036 41.112 9.86396C40.896 10.152 39.96 11.1744 39.024 12.1536C37.6128 13.6368 37.296 14.0544 37.08 14.7024C36.936 15.1344 36.7344 15.6528 36.6192 15.8688C36.5184 16.0992 36.4752 16.272 36.5472 16.272C36.6048 16.272 36.8352 16.0992 37.0368 15.8688C37.2384 15.6528 37.5264 15.0912 37.6704 14.616C37.9152 13.8384 38.1024 13.5792 39.5424 12.096C40.4352 11.1888 41.2128 10.4976 41.2848 10.5552C41.3424 10.6272 40.7088 11.3472 39.8736 12.168C38.4912 13.5072 38.304 13.752 38.0016 14.616C37.8144 15.1344 37.4544 15.8256 37.1808 16.1424C36.8208 16.56 36.5904 16.704 36.2736 16.704C36 16.704 35.5536 16.92 35.064 17.28C34.6032 17.6256 34.2432 18.0144 34.1856 18.2304C34.128 18.4752 34.1712 18.6768 34.344 18.864C34.5744 19.1232 34.5888 19.1808 34.3872 19.3968C34.2576 19.5408 34.1568 19.8432 34.1568 20.088C34.1568 20.3184 34.2576 20.6784 34.3728 20.8656C34.5888 21.1968 34.5744 21.24 33.8832 21.8736C33.48 22.2336 33.12 22.6512 33.0624 22.7952C33.0192 22.9392 32.9184 23.0112 32.832 22.968C32.7456 22.9104 32.7312 22.6368 32.7888 22.2768C32.832 21.9456 32.976 21.528 33.0912 21.3408C33.2352 21.1248 33.2784 20.8368 33.2064 20.4336C33.12 19.9296 33.1632 19.7856 33.48 19.4832C33.7248 19.224 33.84 18.9504 33.84 18.6192C33.84 18.3456 33.8976 18 33.984 17.856C34.0848 17.6688 34.0416 17.4528 33.7968 17.0064C33.624 16.6896 33.4368 16.416 33.3792 16.416C33.3072 16.416 33.264 16.5312 33.264 16.6896C33.264 16.8336 33.1776 17.0352 33.0624 17.1216C32.9184 17.2512 32.7744 17.2512 32.5728 17.1504C32.4288 17.0784 32.1696 17.0496 31.9968 17.0928C31.7664 17.1504 31.68 17.1072 31.68 16.9344C31.68 16.8048 31.6224 16.704 31.536 16.704C31.464 16.704 31.392 16.56 31.392 16.3728C31.392 16.2 31.176 15.5952 30.9024 15.048C30.5568 14.3568 30.3552 13.6512 30.2256 12.816C30.1392 12.1392 29.9952 11.4768 29.9232 11.3328C29.8512 11.1888 29.8224 11.0304 29.8512 10.9872C29.8944 10.9584 30.0384 11.0736 30.1536 11.2608C30.2832 11.4624 30.4272 12.096 30.4704 12.7584C30.5424 13.68 30.6576 14.0688 31.0464 14.8032C31.32 15.2928 31.536 15.84 31.536 15.984C31.536 16.1424 31.608 16.272 31.68 16.272C31.7664 16.272 31.824 16.1712 31.824 16.0416C31.824 15.9264 31.6224 15.3936 31.3776 14.8752C30.9888 14.0832 30.9024 13.7088 30.8016 12.3408C30.744 11.448 30.6288 10.5264 30.5712 10.296C30.4992 10.0512 30.3408 9.86396 30.2256 9.86396C30.1104 9.86396 29.9088 10.1088 29.7504 10.4112C29.5344 10.872 29.5056 11.0736 29.6352 11.4912C29.7072 11.7936 29.8512 12.3264 29.9376 12.7152C30.024 13.0896 30.096 13.5792 30.096 13.7952C30.096 14.0112 30.2832 14.544 30.5136 14.976C30.744 15.4224 30.9744 16.0128 31.032 16.3152C31.1184 16.7472 31.0752 16.92 30.8736 17.1504C30.7152 17.3232 30.24 17.64 29.7792 17.8704C29.2752 18.1296 28.7712 18.5328 28.4256 18.9648C28.1232 19.3392 27.6336 19.9152 27.3456 20.2464C27.0144 20.6208 26.7264 21.1536 26.568 21.6864C26.3664 22.3488 26.3376 22.8384 26.3952 23.904C26.4528 24.6528 26.5824 25.56 26.6832 25.92C26.7984 26.28 26.9712 26.9568 27.0576 27.4464C27.144 27.9216 27.216 28.5984 27.216 28.9584C27.216 29.304 27.288 29.6928 27.36 29.808C27.4896 29.9952 27.576 29.9376 27.9504 29.52C28.1808 29.2464 28.5264 28.872 28.6992 28.6848C28.8864 28.4976 29.0016 28.224 28.9728 28.0224C28.944 27.8208 29.1888 27.144 29.5344 26.4672C29.8656 25.8048 30.2832 24.8688 30.4704 24.3648C30.6576 23.8752 30.816 23.3136 30.816 23.112C30.816 22.8384 30.6288 22.6368 30.024 22.248C29.5776 21.9744 29.16 21.744 29.088 21.744C29.0016 21.744 28.944 21.7872 28.944 21.8304C28.944 21.8736 29.1168 22.0464 29.3184 22.2192C29.6208 22.4496 29.6784 22.5936 29.6064 22.9104C29.5632 23.1408 29.592 23.5008 29.6784 23.7024C29.7504 23.9184 29.7792 24.12 29.736 24.1632C29.6928 24.2064 29.5488 24.1344 29.4048 24.0048C29.2608 23.8608 28.944 23.76 28.7136 23.76C28.4832 23.76 28.1376 23.6592 27.9648 23.5296C27.7776 23.4 27.5904 23.3424 27.5472 23.3856C27.504 23.4288 27.5328 23.5584 27.6336 23.6736C27.72 23.7888 28.0224 23.9184 28.296 23.9616C28.5552 24.0192 28.9296 24.1776 29.1168 24.3216C29.304 24.48 29.3904 24.6528 29.3328 24.7104C29.2752 24.7824 29.1024 24.7536 28.9728 24.6528C28.8432 24.552 28.6704 24.4512 28.584 24.4224C28.512 24.3936 28.2528 24.3216 28.008 24.2496C27.72 24.1632 27.4896 23.9472 27.3168 23.5728C27.1728 23.2848 26.9568 23.04 26.8416 23.04C26.7264 23.04 26.64 22.9824 26.64 22.9104C26.64 22.8528 27 22.5648 27.432 22.2912C27.864 22.0176 28.1808 21.744 28.1232 21.7008C28.08 21.6432 27.9072 21.6 27.7632 21.6C27.6192 21.6 27.504 21.528 27.504 21.456C27.504 21.3696 27.6048 21.2688 27.72 21.2256C27.8352 21.168 28.0368 21.2112 28.152 21.312C28.3104 21.4416 28.4544 21.4272 28.8144 21.2112C29.16 21.024 29.2896 20.9952 29.3328 21.1248C29.376 21.2256 29.4912 21.312 29.6064 21.312C29.736 21.312 29.808 21.1536 29.808 20.8224C29.808 20.5488 29.736 20.2752 29.664 20.232C29.5632 20.1744 29.5632 20.0448 29.664 19.8576C29.7504 19.7136 29.88 19.584 29.952 19.584C30.024 19.584 30.2832 19.7712 30.528 20.0016L30.9888 20.4192L30.384 21.0096C29.88 21.4848 29.8224 21.6144 30.0096 21.6864C30.168 21.744 30.384 21.6576 30.5856 21.4704C30.7584 21.312 31.0176 21.168 31.1472 21.168C31.3056 21.168 31.392 21.2976 31.4064 21.4848C31.4208 21.672 31.4208 21.8736 31.4064 21.9456C31.392 22.0176 31.32 22.5072 31.2624 23.0256C31.1616 23.7744 30.9168 24.4368 30.1824 25.9344C29.664 27 29.232 27.9504 29.232 28.0512C29.232 28.152 29.3904 28.224 29.6352 28.2096C29.8512 28.1952 30.4128 28.2528 30.8736 28.3536C31.392 28.4688 32.0688 28.4976 32.6304 28.44C33.2928 28.368 33.6528 28.3968 34.0128 28.5696C34.272 28.6848 34.6176 28.8 34.776 28.8288C34.92 28.8576 35.2944 29.2032 35.5968 29.592C35.8992 29.9808 36.3024 30.3696 36.504 30.4272C36.7056 30.4992 36.864 30.6144 36.864 30.6864C36.864 30.7584 36.7632 30.816 36.6336 30.816C36.5184 30.816 36.288 30.744 36.144 30.672C35.9856 30.5856 35.6688 30.2256 35.4096 29.8656C35.0496 29.3328 34.9056 29.2176 34.6464 29.304C34.488 29.3472 33.9984 29.4768 33.5808 29.5776C33.1632 29.6928 32.7312 29.8944 32.616 30.0384C32.5008 30.1968 32.4 30.4416 32.4 30.5856C32.4 30.744 32.256 31.0176 32.0832 31.2192C31.824 31.4928 31.752 31.7088 31.7808 32.2848C31.7952 32.7456 31.896 33.1488 32.0688 33.3936C32.2272 33.5952 32.6592 33.8832 33.0624 34.0128C33.4512 34.1424 34.0416 34.2576 34.3872 34.272C34.7328 34.272 35.208 34.1712 35.4672 34.0416C35.7264 33.912 36.1008 33.6384 36.3312 33.4368C36.6192 33.1632 36.72 32.9328 36.72 32.5152C36.72 32.1264 36.7776 31.968 36.936 31.968C37.0944 31.968 37.152 32.1264 37.152 32.5296C37.152 32.9616 37.0512 33.192 36.72 33.5232C36.4896 33.768 36 34.0992 35.64 34.272C35.28 34.4448 34.992 34.632 34.992 34.6896C34.992 34.7472 35.064 34.8624 35.1504 34.9488C35.2512 35.0496 35.2512 35.136 35.1648 35.1936C35.0784 35.2512 34.92 35.1648 34.8192 35.0064C34.704 34.848 34.3728 34.6896 34.056 34.632C33.7392 34.5744 33.0768 34.4016 32.5728 34.2432C31.8384 34.0128 31.4784 33.9696 30.6288 34.056C30.024 34.1136 29.4912 34.2576 29.3472 34.3872C29.2032 34.5024 29.088 34.6608 29.088 34.7472C29.088 34.8192 29.2464 35.064 29.448 35.3088C29.6496 35.5392 29.808 35.8992 29.808 36.0864C29.808 36.288 29.6928 36.6048 29.5632 36.8064C29.3616 37.1232 29.3616 37.1952 29.5344 37.3104C29.6496 37.3824 29.8368 37.44 29.952 37.44C30.0816 37.44 30.2544 37.368 30.3552 37.2672C30.456 37.1664 30.528 36.8928 30.528 36.648C30.528 36.3456 30.3984 36.072 30.168 35.856C29.9664 35.6688 29.808 35.4096 29.808 35.2944C29.8224 35.1504 29.9952 35.2656 30.312 35.6256C30.7152 36.0864 30.816 36.3168 30.816 36.792C30.816 37.1376 30.9024 37.4832 31.0176 37.5696C31.176 37.6992 31.2048 37.5984 31.1616 36.9216C31.1328 36.3456 31.032 36.0144 30.816 35.784C30.6576 35.6256 30.528 35.3952 30.528 35.3088C30.528 35.208 30.5712 35.136 30.6144 35.136C30.6576 35.136 30.816 35.28 30.96 35.4528C31.2048 35.7552 31.2336 35.7552 31.32 35.5248C31.3776 35.3952 31.5072 35.28 31.6224 35.28C31.7376 35.28 31.824 35.3088 31.824 35.352C31.824 35.3952 31.752 35.5536 31.6512 35.712C31.5072 35.9424 31.5216 36.0432 31.8096 36.3456C32.04 36.5904 32.112 36.792 32.04 36.9648C31.9536 37.1808 31.9248 37.1808 31.8528 37.008C31.824 36.8928 31.7232 36.7056 31.6512 36.6192C31.5648 36.5184 31.4496 36.4608 31.392 36.504C31.3344 36.5472 31.3488 36.8352 31.4208 37.152C31.536 37.5696 31.6656 37.7568 31.9104 37.8144C32.0832 37.8576 32.3136 37.8576 32.3856 37.8C32.472 37.7568 32.544 37.3968 32.544 37.0224C32.544 36.648 32.4432 36.216 32.328 36.0576C32.2128 35.9136 32.112 35.7408 32.112 35.6688C32.112 35.6112 32.1984 35.568 32.2992 35.568C32.3856 35.568 32.5584 35.7408 32.6592 35.9568C32.7456 36.1728 32.832 36.72 32.832 37.1808C32.832 37.8144 32.8896 38.0448 33.048 38.1168C33.1776 38.16 33.3072 38.1744 33.336 38.1312C33.3648 38.1024 33.336 37.656 33.264 37.152C33.192 36.648 33.1776 36.1728 33.2352 36.0864C33.2928 36 33.336 35.7984 33.336 35.6544C33.336 35.496 33.4224 35.352 33.5088 35.3232C33.6528 35.2656 33.6672 35.5392 33.5952 36.4176C33.5376 37.2528 33.5664 37.6416 33.696 37.8C33.7968 37.9152 33.9696 38.016 34.0704 38.016C34.2288 38.016 34.272 37.728 34.272 36.72C34.272 35.9568 34.3296 35.424 34.416 35.424C34.5024 35.424 34.56 35.856 34.56 36.4176C34.56 37.1664 34.632 37.4832 34.8192 37.728C34.9632 37.9152 35.1504 38.0304 35.2224 37.9728C35.3088 37.9296 35.3232 37.5408 35.2656 37.0512C35.2224 36.5904 35.136 36.1008 35.064 35.9568C34.992 35.784 35.0208 35.712 35.1792 35.712C35.2944 35.712 35.424 35.856 35.4816 36.0288C35.5248 36.216 35.568 36.648 35.568 37.008C35.568 37.368 35.6688 37.8144 35.7984 37.9872C35.9136 38.16 36.072 38.304 36.1584 38.304C36.2304 38.304 36.288 37.7568 36.288 37.08C36.288 36.2304 36.216 35.6976 36.0576 35.4096C35.9424 35.1648 35.8704 34.9344 35.9136 34.8912C35.9568 34.848 36.1152 35.0352 36.2736 35.2944C36.5184 35.6832 36.576 36.0288 36.576 36.9504C36.576 37.6848 36.648 38.2032 36.7632 38.376C36.9072 38.5488 37.1664 38.6352 37.5984 38.6496C38.2176 38.664 38.232 38.6496 38.2032 38.232C38.1888 37.9872 38.1168 37.1808 38.0448 36.432C37.9728 35.6544 37.8 34.8336 37.656 34.5744C37.5264 34.3152 37.296 34.056 37.1376 34.0272C36.9936 33.984 36.9072 33.8976 36.9504 33.8256C36.9936 33.7536 37.08 33.696 37.152 33.696C37.224 33.696 37.44 33.8688 37.6416 34.0848C37.8288 34.2864 38.0592 34.7328 38.1456 35.0784C38.232 35.424 38.304 36.0576 38.304 36.504C38.304 36.936 38.3616 37.4112 38.4336 37.5552C38.52 37.6848 38.6064 37.9728 38.664 38.2032C38.7216 38.4912 38.9088 38.6784 39.384 38.9088C40.0176 39.2256 40.032 39.2256 40.248 38.9376C40.3632 38.7936 40.464 38.52 40.464 38.3472C40.464 38.16 40.2768 37.6416 40.0464 37.1952C39.8304 36.7344 39.4416 35.9712 39.1824 35.496C38.9376 35.0208 38.736 34.5312 38.736 34.416C38.736 34.3008 38.6064 33.9264 38.4624 33.5952C38.304 33.2784 38.0448 32.9616 37.8864 32.904C37.7136 32.8608 37.584 32.7168 37.584 32.6016C37.584 32.4864 37.6416 32.4 37.7136 32.4C37.8 32.4 37.9008 32.4576 37.944 32.544C37.9872 32.616 38.1024 32.688 38.1744 32.688C38.2608 32.688 38.2608 32.5872 38.1744 32.4144C38.088 32.2704 38.0592 32.112 38.1168 32.0688C38.16 32.0256 38.3184 32.1264 38.4768 32.2992L38.7648 32.616L38.6784 32.2848C38.6352 32.112 38.5488 31.8528 38.5056 31.7088C38.4624 31.5648 38.5776 31.2336 38.7792 30.9456C38.9664 30.672 39.168 30.2832 39.2112 30.0816C39.2544 29.8944 39.4416 29.2176 39.6432 28.584C39.8304 27.9504 40.2192 26.9568 40.5216 26.3952C40.968 25.5168 41.0832 25.1568 41.1408 24.2064C41.1984 23.4288 41.1552 22.752 40.9824 22.0176C40.8528 21.4272 40.5648 20.5488 40.3344 20.0736C40.0752 19.5264 39.7152 19.0368 39.3264 18.7344C39.0096 18.4752 38.736 18.1728 38.736 18.072C38.736 17.9568 38.8944 17.6976 39.0816 17.4816C39.384 17.1072 39.5136 17.0784 40.7376 17.0208C41.9472 16.9632 42.1056 16.992 42.8112 17.352C43.2432 17.568 43.8048 17.7408 44.064 17.7552C44.5104 17.784 44.568 17.7408 45.1584 16.6032C45.4896 15.9552 45.9216 15.2064 46.1232 14.9472C46.3248 14.6592 46.4688 14.2848 46.4688 13.9968C46.4688 13.752 46.4112 13.536 46.3392 13.536C46.2672 13.536 45.6768 13.9824 45.0288 14.5296C44.3808 15.0768 43.5888 15.7824 43.272 16.1136C42.9408 16.4736 42.5808 16.704 42.3792 16.704C42.192 16.704 42.048 16.6464 42.048 16.5744C42.048 16.5024 42.192 16.3872 42.3792 16.3296C42.552 16.2864 43.0848 15.8688 43.56 15.4224C44.0496 14.976 44.7264 14.3856 45.0864 14.0976C45.4896 13.7664 45.792 13.3776 45.8928 13.0464C46.0368 12.5856 46.0224 12.4992 45.7488 12.312C45.576 12.1968 45.3744 12.096 45.3024 12.096C45.216 12.096 44.9712 12.2688 44.7552 12.4848C44.5392 12.7008 44.352 12.9744 44.352 13.104C44.352 13.2192 44.2512 13.4784 44.1216 13.6512C44.0064 13.824 43.6032 14.1264 43.2288 14.3136C42.8544 14.5008 42.2928 14.9328 41.976 15.2784C41.6592 15.624 41.2416 16.0272 41.04 16.1568C40.6944 16.3872 40.6944 16.4016 40.9824 16.4016C41.1408 16.416 41.6592 16.0848 42.1056 15.696C42.5664 15.2928 43.2864 14.7456 43.7184 14.472C44.1504 14.1984 44.5824 13.8096 44.6688 13.608C44.7552 13.4064 44.8848 13.248 44.9568 13.248C45.0144 13.248 45.072 13.32 45.072 13.4064C45.072 13.4928 45 13.68 44.9136 13.8384C44.8416 13.9968 44.4528 14.328 44.0784 14.5872C43.6896 14.8464 42.9264 15.4224 42.3648 15.8832L41.3568 16.7184L40.4496 16.6752L39.5568 16.632L40.2912 16.1568C40.68 15.912 41.0688 15.696 41.1408 15.696C41.2128 15.696 41.4864 15.4368 41.7312 15.1344C41.976 14.8176 42.5376 14.3712 42.9552 14.1264C43.3872 13.8816 43.8048 13.5216 43.9056 13.2912C44.0064 13.0752 44.1792 12.7296 44.28 12.528C44.3808 12.3264 44.7552 11.9664 45.1008 11.7216C45.5184 11.4192 45.72 11.1744 45.72 10.944C45.72 10.6848 45.504 10.512 44.64 10.0656C44.0496 9.74876 43.416 9.50396 43.2432 9.50396C43.056 9.50396 42.912 9.56156 42.912 9.63356C42.912 9.69116 43.2 9.86396 43.5456 9.99356C43.8912 10.1232 44.2224 10.3392 44.2656 10.44C44.3088 10.5552 44.3088 10.7568 44.2512 10.872C44.208 11.0016 43.8048 11.2896 43.3584 11.52C42.912 11.736 42.0048 12.3984 41.3424 12.9888C40.4352 13.7808 39.8592 14.4576 39.0096 15.7392C38.376 16.6752 37.872 17.5104 37.872 17.5968C37.872 17.6832 37.9728 17.8848 38.1168 18.0288C38.2464 18.1728 38.304 18.3312 38.2464 18.3888C38.1888 18.4464 38.0304 18.4176 37.9008 18.3456C37.7712 18.2592 37.6416 18 37.6128 17.7696C37.584 17.4528 37.7712 17.0352 38.3616 16.1424C38.7936 15.4944 39.4992 14.5296 39.9168 14.0256C40.32 13.5216 41.1984 12.672 41.8608 12.1536C42.5232 11.6352 43.056 11.16 43.056 11.1024C43.056 11.0448 42.8976 10.9008 42.696 10.8C42.3936 10.6416 42.2928 10.656 41.9616 10.872C41.7456 11.016 41.1264 11.5632 40.5936 12.096C39.888 12.8016 39.4416 13.4208 39.024 14.2848C38.6928 14.9328 38.16 15.8256 37.8576 16.2288C37.5408 16.6464 37.0944 17.0928 36.864 17.208C36.6336 17.3232 36.3168 17.424 36.144 17.424C35.9856 17.424 35.856 17.3664 35.856 17.2944C35.856 17.2224 36.0432 17.1216 36.2592 17.064C36.4896 17.0208 36.9504 16.704 37.2816 16.3728C37.6416 16.0128 38.1312 15.2784 38.4768 14.5728C38.9376 13.5936 39.312 13.0896 40.464 11.88C41.256 11.0736 41.9328 10.2384 41.976 10.0368C42.0336 9.83516 42.0336 9.59036 41.976 9.51836C41.9328 9.43196 41.8032 9.35996 41.7024 9.35996ZM44.6832 11.2464C44.7408 11.232 44.784 11.2896 44.784 11.3616C44.784 11.4192 44.4672 11.7072 44.0784 11.9664C43.704 12.24 43.0128 12.9024 42.552 13.4352C42.0912 13.9824 41.5152 14.5152 41.2848 14.6304C41.0544 14.76 40.464 15.264 39.96 15.7824C39.4704 16.2864 39.024 16.704 38.9664 16.704C38.9232 16.704 38.88 16.632 38.88 16.56C38.88 16.4736 39.1824 16.0704 39.5712 15.6672C39.9456 15.264 40.5792 14.7168 40.9968 14.4432C41.4144 14.184 42.12 13.5216 42.5664 12.96C43.0128 12.4128 43.6464 11.808 43.9632 11.6064C44.2944 11.4192 44.6112 11.2608 44.6832 11.2464ZM45.7344 14.4432C45.792 14.5008 45.6192 14.7888 45.3456 15.1056C45.072 15.4224 44.5968 15.9984 44.28 16.4016C43.8912 16.8912 43.5888 17.136 43.3872 17.136C43.2 17.136 43.056 17.064 43.056 16.992C43.056 16.9056 43.1424 16.848 43.2576 16.848C43.3584 16.848 43.7328 16.5312 44.0784 16.1568C44.424 15.768 44.928 15.2064 45.1872 14.904C45.432 14.6016 45.6912 14.4 45.7344 14.4432ZM36.3312 20.0592C36.4032 20.0736 36.4896 20.376 36.504 20.736C36.5328 21.0816 36.4752 21.528 36.36 21.7296C36.2592 21.9312 35.8992 22.248 35.5824 22.4208C35.2656 22.608 34.9776 22.6944 34.9344 22.6224C34.8912 22.5648 34.9632 22.4064 35.1072 22.2912C35.2368 22.1616 35.5104 21.9888 35.6976 21.888C36 21.7296 36.0288 21.6432 35.9568 21.024C35.8992 20.6064 35.9424 20.2752 36.0432 20.1744C36.1296 20.088 36.2592 20.0304 36.3312 20.0592ZM37.152 21.888C37.1952 21.888 37.4256 22.0176 37.656 22.176C37.9008 22.3488 38.304 22.5648 38.5632 22.68C38.808 22.7952 39.024 22.9824 39.024 23.112C39.024 23.2416 38.952 23.4864 38.8656 23.6592C38.7792 23.832 38.5632 24.0912 38.3904 24.2208C38.2176 24.3648 37.8432 24.48 37.512 24.48C37.1808 24.48 36.8496 24.552 36.7488 24.6528C36.6624 24.7392 36.5328 24.7824 36.4896 24.7248C36.432 24.6672 36.4752 24.5376 36.576 24.408C36.6768 24.2784 36.9936 24.192 37.3104 24.192C37.7136 24.192 37.9872 24.0768 38.3184 23.7888C38.592 23.544 38.736 23.2992 38.6784 23.2128C38.6208 23.112 38.52 23.04 38.448 23.04C38.376 23.04 38.088 23.2272 37.8288 23.472C37.44 23.8176 37.1952 23.904 36.6912 23.904C36.3456 23.904 35.9856 23.976 35.8848 24.0768C35.7984 24.1632 35.6688 24.2064 35.6112 24.1488C35.568 24.0912 35.5824 23.904 35.6688 23.7168C35.7552 23.544 35.9136 23.184 36.0144 22.9104C36.1152 22.6512 36.3888 22.3056 36.6336 22.1616C36.8784 22.0176 37.1088 21.888 37.152 21.888ZM39.744 24.48C39.8304 24.48 39.888 24.552 39.888 24.6384C39.888 24.7392 39.8016 25.0704 39.7152 25.4016C39.6 25.776 39.2112 26.3232 38.6352 26.9424C38.1312 27.4608 37.5984 28.1808 37.44 28.5264C37.2816 28.872 37.152 29.2752 37.152 29.4048C37.152 29.5488 37.0944 29.664 37.008 29.664C36.936 29.664 36.864 29.5056 36.864 29.304C36.864 29.1024 36.9936 28.6704 37.1664 28.3392C37.3248 28.0224 37.8864 27.2592 38.3904 26.6688C38.9376 26.0352 39.3696 25.3584 39.456 25.0272C39.5424 24.7248 39.672 24.48 39.744 24.48ZM34.8768 25.9488C34.9632 25.9776 35.1072 26.2368 35.1792 26.5104C35.2512 26.784 35.28 27.2448 35.2368 27.5472C35.1936 27.8496 35.0784 28.1808 34.992 28.296C34.8912 28.4112 34.7616 28.4688 34.6896 28.4256C34.6176 28.3824 34.632 28.224 34.7184 28.0512C34.8192 27.8496 34.848 27.4032 34.7904 26.8128C34.7184 26.1072 34.7328 25.9056 34.8768 25.9488ZM37.7712 33.264C37.872 33.264 38.0736 33.5088 38.2176 33.7968C38.3616 34.0992 38.5776 34.704 38.6784 35.136C38.7792 35.568 38.88 36.1152 38.88 36.36C38.88 36.5904 39.1104 37.1376 39.384 37.5696C39.6576 38.0016 39.8448 38.4048 39.8016 38.4768C39.744 38.5632 39.456 38.2464 39.1536 37.7712C38.7072 37.1088 38.592 36.8064 38.592 36.2736C38.592 35.9136 38.4912 35.2944 38.376 34.8912C38.2608 34.488 38.0304 33.9984 37.872 33.7968C37.7136 33.5952 37.584 33.3936 37.584 33.3504C37.584 33.3072 37.6704 33.264 37.7712 33.264ZM36.5184 34.3008C36.648 34.3296 36.8928 34.5168 37.0656 34.7472C37.3104 35.0784 37.3392 35.2944 37.296 36.0432C37.2672 36.5328 37.2528 37.2528 37.2528 37.656C37.2816 38.304 37.2528 38.3472 37.08 38.1024C36.9216 37.9008 36.8928 37.5264 36.9648 36.504C37.0512 35.1936 37.0368 35.1648 36.6624 34.8336C36.4608 34.6608 36.288 34.4448 36.288 34.3728C36.288 34.3152 36.3888 34.272 36.5184 34.3008Z" />
        <path d="M37.3392 22.4927C37.2096 22.4639 37.1808 22.5647 37.2384 22.8815C37.3248 23.2703 37.296 23.3279 37.0368 23.3279C36.864 23.3279 36.6768 23.2127 36.5904 23.0831C36.5184 22.9391 36.4176 22.8671 36.36 22.9247C36.3024 22.9679 36.3312 23.1551 36.432 23.3135C36.5184 23.4863 36.7344 23.6159 36.9216 23.6159C37.1088 23.6159 37.3392 23.5151 37.44 23.4143C37.5264 23.2991 37.584 23.0543 37.5552 22.8815C37.5264 22.7087 37.4256 22.5359 37.3392 22.4927Z" />
        <path d="M28.584 10.8C28.4832 10.8 28.3104 10.9152 28.1808 11.0592C28.0368 11.2032 27.936 11.4192 27.936 11.5344C27.936 11.6496 28.08 11.8944 28.2384 12.096L28.5264 12.456L28.4832 11.9664C28.4544 11.6928 28.512 11.448 28.5984 11.4192C28.6848 11.3904 28.8 11.6064 28.8432 11.9088C28.9008 12.2112 29.0736 12.7008 29.232 12.9888C29.4192 13.3488 29.52 13.8096 29.52 14.3136C29.52 14.8176 29.592 15.1776 29.736 15.3216C29.8512 15.4368 29.952 15.5952 29.952 15.6816C29.952 15.768 29.8944 15.84 29.8368 15.84C29.7792 15.84 29.6352 15.7536 29.5488 15.6528C29.448 15.5664 29.2176 15.48 29.0448 15.4656C28.872 15.4512 28.6128 15.3936 28.4544 15.336C28.2672 15.2496 28.2096 15.2784 28.2528 15.408C28.2816 15.5088 28.656 15.7248 29.088 15.8688C29.52 16.0272 30.0528 16.3296 30.2688 16.5312C30.6144 16.848 30.672 16.8624 30.7584 16.6464C30.816 16.5024 30.6432 16.0128 30.3264 15.408C30.0384 14.8608 29.808 14.2416 29.808 14.0544C29.808 13.8528 29.6784 13.1184 29.52 12.4272C29.3472 11.6928 29.1168 11.088 28.9872 10.9728C28.8576 10.8864 28.6704 10.8 28.584 10.8Z" />
        <path d="M27.3168 11.664C27.216 11.6784 26.9568 11.7792 26.7408 11.8944C26.496 12.024 26.3808 12.1824 26.4384 12.2832C26.496 12.384 26.6976 12.6576 26.8992 12.9168C27.0864 13.176 27.2736 13.5936 27.3024 13.8528C27.3456 14.112 27.4032 14.472 27.432 14.6448C27.4752 14.832 27.5616 14.976 27.6336 14.976C27.7056 14.976 27.792 14.76 27.8352 14.5008C27.8928 14.1696 27.8064 13.824 27.4896 13.2048C27.2592 12.7584 27.072 12.3552 27.072 12.312C27.072 12.2688 27.1728 12.24 27.288 12.24C27.3888 12.24 27.6336 12.5568 27.8208 12.96C28.008 13.3488 28.1952 13.68 28.2672 13.68C28.3248 13.68 28.3392 13.4352 28.2816 13.1328C28.2384 12.8448 28.0368 12.384 27.8352 12.1248C27.648 11.88 27.4176 11.664 27.3168 11.664Z" />
        <path d="M25.8624 12.24C25.7904 12.24 25.7904 12.4848 25.848 12.7728C25.9056 13.0752 25.9776 13.5072 26.0208 13.752C26.0496 13.9824 26.1792 14.3856 26.2944 14.6304C26.3952 14.8752 26.568 15.1488 26.6688 15.2352C26.7696 15.3072 27.0864 15.4224 27.3744 15.48C27.6768 15.5376 27.936 15.5232 27.9936 15.4368C28.0368 15.3648 27.9792 15.2496 27.8496 15.2064C27.72 15.1632 27.576 15.1488 27.504 15.192C27.4464 15.2352 27.3312 15.1776 27.2592 15.0768C27.1728 14.9904 27.072 14.6016 27.0288 14.2128C26.9568 13.7664 26.7696 13.3056 26.4672 12.888C26.208 12.5424 25.9344 12.2544 25.8624 12.24Z" />
        <path d="M28.6272 12.5281C28.5552 12.5281 28.512 12.6001 28.512 12.6865C28.512 12.7873 28.584 13.1041 28.6704 13.3921C28.7856 13.7809 28.8 14.0689 28.6848 14.3713C28.5696 14.7169 28.584 14.8465 28.7424 14.9905C28.8576 15.0769 28.9872 15.1201 29.0448 15.0769C29.088 15.0193 29.1312 14.6737 29.1312 14.2993C29.1312 13.9105 29.0448 13.3633 28.9296 13.0609C28.8144 12.7729 28.6848 12.5281 28.6272 12.5281Z" />
        <path d="M49.6368 13.392C49.5216 13.392 49.4064 13.4352 49.3632 13.4784C49.3056 13.5216 49.4352 13.7952 49.6224 14.0688C49.8096 14.3568 49.968 14.6736 49.968 14.7744C49.968 14.8896 49.7232 15.2496 49.4352 15.5808C49.1328 15.912 48.6144 16.344 48.2832 16.56C47.9664 16.7616 47.088 17.496 46.368 18.1872C45.6336 18.8784 45.1008 19.44 45.1728 19.44C45.2448 19.44 45.7488 19.08 46.296 18.648C46.8576 18.2016 47.6064 17.7552 48.024 17.6256C48.4128 17.496 48.9744 17.2368 49.2624 17.064C49.5504 16.8768 49.9248 16.488 50.112 16.2144C50.2992 15.8832 50.4 15.5232 50.3712 15.2352C50.3424 14.9904 50.4 14.76 50.5008 14.7312C50.5872 14.7024 50.7024 14.8752 50.76 15.12C50.832 15.4512 50.76 15.7104 50.4864 16.1856C50.2848 16.5312 49.9248 16.9776 49.68 17.1792C49.4496 17.3808 48.8736 17.6832 48.4272 17.856C47.9664 18.0144 47.376 18.2592 47.1168 18.4032C46.8576 18.5328 46.5408 18.7632 46.4112 18.8928C46.2816 19.0368 46.2096 19.152 46.2528 19.152C46.296 19.152 46.5696 19.0512 46.872 18.9216C47.1744 18.8064 48.0672 18.5328 48.8592 18.3456C49.6512 18.144 50.5008 17.8416 50.7312 17.6832C50.9616 17.5104 51.2784 17.0928 51.4368 16.7328C51.624 16.3152 51.696 15.9408 51.6384 15.6672C51.5952 15.4224 51.3216 14.9184 51.048 14.544C50.7744 14.1696 50.3856 13.752 50.184 13.6224C49.9968 13.4928 49.752 13.392 49.6368 13.392Z" />
        <path d="M47.5632 13.968C47.4624 13.968 47.2608 14.1408 47.1312 14.3568C46.9872 14.5728 46.6704 14.9328 46.4256 15.1488C46.1808 15.3648 45.8208 15.8976 45.648 16.3008C45.4752 16.7184 45.2016 17.2368 45.0432 17.4528C44.8848 17.6832 44.8272 17.856 44.8992 17.856C44.9856 17.856 45.2448 17.6256 45.504 17.3376C45.7488 17.0496 46.0368 16.6464 46.1232 16.4592C46.2096 16.2576 46.6128 15.8832 47.0016 15.6096C47.3904 15.3504 47.7792 15.1776 47.8656 15.2208C47.9376 15.2784 47.8512 15.408 47.6496 15.5376C47.4624 15.6528 47.0448 16.0272 46.728 16.3584C46.4112 16.6896 45.864 17.2944 45.5184 17.6976C44.9136 18.4176 44.8704 18.4464 44.3376 18.36C43.9632 18.288 43.776 18.3168 43.776 18.4176C43.776 18.5184 43.8912 18.6336 44.0352 18.6768C44.1648 18.7344 44.3376 18.8496 44.3952 18.9648C44.4528 19.0656 44.5968 19.152 44.712 19.152C44.8272 19.152 45.576 18.5184 46.3968 17.7408C47.2176 16.9776 48.1104 16.1712 48.384 15.9552C48.7728 15.6672 48.8592 15.5232 48.744 15.3648C48.672 15.264 48.4128 14.904 48.168 14.5728C47.9376 14.2416 47.6496 13.9824 47.5632 13.968Z" />
        <path d="M25.6176 14.5441C25.5888 14.5585 25.4016 14.6449 25.2288 14.7457L24.8832 14.9329L25.2288 15.1345C25.4016 15.2641 25.776 15.4369 26.0352 15.5377C26.2944 15.6529 26.5392 15.6961 26.5824 15.6673C26.6112 15.6241 26.424 15.3649 26.1648 15.0625C25.9056 14.7745 25.6608 14.5441 25.6176 14.5441Z" />
        <path d="M23.184 14.9759C23.0112 14.9759 22.9392 15.0479 22.9824 15.1775C23.0256 15.2783 23.2272 15.4511 23.4432 15.5663C23.6592 15.6671 24.0336 15.9119 24.2784 16.0847C24.5232 16.2719 24.8688 16.4159 25.0272 16.4159C25.2 16.4159 25.344 16.4735 25.344 16.5599C25.344 16.6319 25.2864 16.7039 25.2144 16.7039C25.128 16.7039 25.128 16.8767 25.2144 17.1359C25.3008 17.3663 25.4304 17.5247 25.5024 17.4815C25.5744 17.4383 25.6032 17.3519 25.56 17.2799C25.5168 17.2079 25.6032 16.8911 25.7616 16.5599L26.0352 15.9839H25.3872C24.9552 15.9839 24.5376 15.8687 24.1056 15.6095C23.76 15.4079 23.472 15.1775 23.472 15.1055C23.472 15.0335 23.3424 14.9759 23.184 14.9759Z" />
        <path d="M24.3648 15.0337C24.1056 14.9761 23.904 15.0049 23.904 15.0769C23.904 15.1633 24.1632 15.3361 24.48 15.4801C24.7968 15.6241 25.0992 15.6961 25.1568 15.6385C25.2144 15.5953 25.1568 15.4513 25.0416 15.3361C24.9264 15.2209 24.624 15.0913 24.3648 15.0337Z" />
        <path d="M27.432 15.8399C27.2736 15.8399 26.9856 15.9263 26.7984 16.0271C26.6112 16.1135 26.3088 16.3871 26.1504 16.6031C25.92 16.9055 25.848 17.2223 25.8624 17.8271C25.8624 18.2735 25.92 19.0367 25.9776 19.5119L26.0928 20.3759L25.4448 20.7647C25.0992 20.9951 24.7392 21.1679 24.6384 21.1679C24.552 21.1679 24.48 21.2255 24.48 21.3119C24.48 21.3839 24.7104 21.4559 24.9984 21.4559C25.3872 21.4559 25.6752 21.3119 26.2224 20.8367C26.6112 20.5055 26.928 20.1743 26.928 20.1023C26.928 20.0159 26.784 19.8143 26.6112 19.6271C26.4384 19.4399 26.3376 19.2527 26.3808 19.2095C26.4384 19.1663 26.6256 19.2383 26.8272 19.3679C27.0864 19.5263 27.216 19.5551 27.288 19.4399C27.3456 19.3535 27.288 19.1663 27.1728 19.0367C27.0576 18.9071 26.856 18.5759 26.712 18.3167C26.5824 18.0431 26.5104 17.7983 26.5536 17.7407C26.5968 17.6975 26.6688 17.6975 26.6976 17.7263C26.7264 17.7551 26.9136 18.0575 27.1296 18.3887C27.3312 18.7343 27.576 19.0079 27.648 19.0079C27.7344 19.0079 27.792 18.9215 27.792 18.8207C27.792 18.7343 27.6624 18.4463 27.504 18.1871C27.36 17.9423 27.1008 17.6543 26.9424 17.5679C26.7696 17.4815 26.64 17.3519 26.64 17.2799C26.64 17.1935 26.712 17.1359 26.8128 17.1359C26.8992 17.1359 27.2592 17.4239 27.6048 17.7839C27.936 18.1439 28.2816 18.4319 28.368 18.4319C28.4544 18.4319 28.3536 18.1871 28.152 17.8991C27.9504 17.5967 27.792 17.2655 27.792 17.1359C27.792 17.0063 28.008 17.1647 28.2816 17.4959C28.6848 17.9567 28.8144 18.0431 28.9584 17.8991C29.1024 17.7551 29.0736 17.6543 28.8144 17.3663C28.6416 17.1791 28.5552 16.9775 28.6272 16.9343C28.6992 16.8911 28.872 16.9775 29.016 17.1359C29.16 17.2943 29.448 17.4239 29.664 17.4239C29.8944 17.4239 30.096 17.3231 30.1392 17.2079C30.1824 17.1071 30.1104 16.8767 29.9808 16.7039C29.8368 16.5455 29.304 16.2863 28.728 16.1279C28.1808 15.9695 27.5904 15.8399 27.432 15.8399Z" />
        <path d="M23.904 16.2288C23.5152 15.9984 23.472 15.9984 23.472 16.2C23.472 16.3152 23.6448 16.488 23.8464 16.56C24.048 16.6464 24.2352 16.704 24.2784 16.704C24.3072 16.704 24.336 16.6464 24.336 16.5888C24.336 16.5312 24.1488 16.3584 23.904 16.2288Z" />
        <path d="M24.192 17.0208C23.7168 16.9776 23.472 17.0064 23.472 17.1216C23.472 17.208 23.7024 17.28 23.976 17.28C24.2496 17.28 24.48 17.352 24.48 17.4384C24.48 17.5248 24.3648 17.5536 24.2064 17.496C24.0624 17.4528 23.7744 17.496 23.5728 17.5824C23.3712 17.6688 23.1408 17.8992 23.0544 18.0864C22.968 18.288 22.9536 18.432 23.04 18.432C23.112 18.432 23.3856 18.3024 23.6448 18.144C23.904 17.9856 24.2496 17.856 24.408 17.856C24.5664 17.856 24.7824 17.7264 24.8832 17.5536C24.984 17.3808 25.0416 17.2224 24.9984 17.1792C24.9552 17.136 24.5952 17.064 24.192 17.0208Z" />
        <path d="M41.0688 17.352C40.6944 17.3232 40.1904 17.352 39.9456 17.4096C39.7008 17.4672 39.4272 17.568 39.3408 17.6256C39.24 17.6832 39.168 17.8416 39.168 17.9856C39.168 18.1296 39.2688 18.3312 39.3984 18.432C39.5856 18.5904 39.6864 18.5472 40.032 18.1728C40.2624 17.9136 40.4928 17.712 40.536 17.712C40.5936 17.712 40.7664 17.784 40.9392 17.8848C41.256 18.0576 41.2416 18.0576 40.824 18.144C40.5936 18.1872 40.3776 18.3168 40.3488 18.432C40.3344 18.5472 40.4928 18.7344 40.7088 18.8208C40.9536 18.936 41.1408 18.9504 41.256 18.864C41.3568 18.792 41.472 18.7632 41.5152 18.8208C41.5728 18.864 41.7744 18.8208 41.976 18.72C42.1776 18.6192 42.3792 18.5616 42.4224 18.6192C42.4656 18.6624 42.2928 18.8928 42.0192 19.1376C41.76 19.3824 41.4576 19.584 41.3568 19.584C41.2416 19.584 41.184 19.6704 41.2128 19.7568C41.256 19.8576 41.4 19.944 41.5584 19.944C41.7024 19.944 41.832 20.0016 41.832 20.088C41.832 20.16 41.7312 20.232 41.616 20.2464C41.5008 20.2608 41.3424 20.2752 41.2704 20.2896C41.1984 20.2896 41.256 20.4336 41.3856 20.5776C41.544 20.7504 41.7456 20.8224 41.9328 20.7648C42.1488 20.7216 42.2064 20.7504 42.1632 20.8944C42.12 21.0096 41.904 21.096 41.6736 21.096C41.4432 21.096 41.2416 21.1392 41.2272 21.1968C41.1984 21.2688 41.184 21.3696 41.184 21.4272C41.184 21.4992 41.3136 21.6864 41.472 21.8592C41.6736 22.0608 41.9472 22.176 42.264 22.176C42.7392 22.176 42.7536 22.1616 42.6816 21.744C42.6096 21.4416 42.696 21.1104 42.9696 20.592C43.2 20.1456 43.344 19.6416 43.344 19.2528C43.344 18.792 43.2576 18.5184 42.9984 18.2448C42.8112 18.0432 42.4512 17.784 42.2064 17.64C41.9472 17.5104 41.4432 17.3808 41.0688 17.352Z" />
        <path d="M25.4592 18.432L25.416 17.9424L25.1712 18.3024C25.0416 18.5184 24.7392 18.72 24.48 18.7632C24.2352 18.8208 24.0048 18.9648 23.9616 19.08C23.904 19.2096 23.904 19.3536 23.9616 19.3968C24.0048 19.4544 24.2064 19.3392 24.3936 19.1664C24.6528 18.9216 24.7536 18.8928 24.8256 19.0368C24.8976 19.1808 24.9264 19.1808 24.9984 19.0368C25.0416 18.9504 25.128 18.864 25.1712 18.864C25.2288 18.864 25.3584 19.0656 25.4736 19.296C25.6176 19.6416 25.6176 19.7856 25.488 19.944C25.4016 20.0592 25.0992 20.2176 24.8256 20.304C24.552 20.3904 24.336 20.5632 24.336 20.6784C24.336 20.7936 24.3648 20.88 24.408 20.88C24.4368 20.88 24.768 20.736 25.128 20.5632C25.7184 20.2752 25.776 20.2032 25.776 19.728C25.776 19.44 25.7184 19.152 25.6464 19.0656C25.5744 18.9936 25.488 18.7056 25.4592 18.432Z" />
        <path d="M51.0048 18C50.8608 18 50.688 18.0576 50.616 18.1296C50.5296 18.2016 49.8096 18.432 49.0032 18.6336C48.1968 18.8352 47.0736 19.1952 46.4832 19.4256C45.9072 19.656 45.4176 19.9152 45.3888 20.0016C45.36 20.088 45.4032 20.16 45.504 20.16C45.5904 20.16 45.9216 20.0304 46.2528 19.8576C46.584 19.6848 47.1456 19.4688 47.5056 19.368C47.8656 19.2672 48.5856 19.1376 49.104 19.0944C49.9968 19.0224 50.0256 19.0224 49.608 19.224C49.3776 19.3392 48.9456 19.4256 48.6576 19.44C48.3696 19.44 47.9232 19.512 47.6496 19.5984C47.376 19.6992 47.1168 19.8144 47.0592 19.8576C46.9872 19.9152 47.5776 19.9296 48.3552 19.9152C49.1184 19.8864 49.896 19.8288 50.0688 19.8C50.2416 19.7568 50.5728 19.5552 50.8176 19.3536C51.1632 19.08 51.264 18.864 51.264 18.4896C51.264 18.1152 51.2064 18 51.0048 18Z" />
        <path d="M24.4368 18.1584C24.336 18.1728 24.1056 18.2592 23.9328 18.36C23.7456 18.4608 23.5152 18.6192 23.4288 18.7056C23.3136 18.8208 23.328 18.864 23.4864 18.864C23.6016 18.864 23.832 18.7632 23.9904 18.648C24.1344 18.5328 24.3792 18.432 24.5232 18.432C24.6672 18.432 24.7392 18.36 24.696 18.288C24.6528 18.2016 24.5232 18.144 24.4368 18.1584Z" />
        <path d="M44.0496 19.008C43.9776 19.008 43.848 19.1808 43.776 19.3824C43.6896 19.584 43.632 19.8576 43.632 20.016C43.632 20.16 43.8048 20.376 44.0064 20.5056C44.208 20.6496 44.5104 20.736 44.6832 20.6928C44.9856 20.6496 44.9856 20.6352 44.64 20.4912C44.4384 20.4048 44.1792 20.232 44.0784 20.1024C43.9056 19.9008 43.92 19.8288 44.136 19.584C44.2656 19.44 44.3376 19.2384 44.28 19.1664C44.2368 19.08 44.1216 19.008 44.0496 19.008Z" />
        <path d="M24.7968 19.4112C24.696 19.3104 24.5808 19.4112 24.408 19.728L24.1632 20.2032L24.5808 20.1024C24.7968 20.0448 25.0704 19.9296 25.1568 19.8432C25.2576 19.7568 25.344 19.6272 25.344 19.5552C25.344 19.4688 25.2576 19.44 25.1424 19.4832C25.0416 19.5264 24.8832 19.4976 24.7968 19.4112Z" />
        <path d="M48.6144 20.1744C48.1248 20.1888 47.376 20.2464 46.944 20.304C46.512 20.3616 45.8928 20.52 45.576 20.664C45.2592 20.7936 44.8128 20.9664 44.5968 21.0384C44.2512 21.1392 44.1216 21.096 43.8192 20.7936C43.6176 20.592 43.4448 20.448 43.4304 20.4768C43.4304 20.5056 43.3008 20.7216 43.1712 20.9808C43.0272 21.2256 42.912 21.528 42.912 21.6288C42.912 21.744 43.0272 21.9456 43.1712 22.0752C43.3152 22.2192 43.6176 22.32 43.8192 22.32C44.0352 22.32 44.8416 22.1616 45.6048 21.96C46.3824 21.744 47.4336 21.5568 47.952 21.5136C48.4704 21.4704 49.0896 21.3552 49.32 21.2832C49.5648 21.1968 49.8384 21.0528 49.9392 20.9808C50.0832 20.8656 50.0544 20.7648 49.8096 20.4912C49.536 20.2032 49.3632 20.16 48.6144 20.1744ZM47.7792 20.7504C48.1824 20.736 48.528 20.7936 48.528 20.88C48.528 20.952 48.312 21.0384 48.0672 21.0816C47.808 21.1248 47.232 21.1824 46.7856 21.2256C46.3392 21.2544 45.5616 21.456 45.072 21.6432C44.352 21.9456 44.1072 21.9744 43.7616 21.8592C43.416 21.744 43.344 21.6288 43.344 21.2688C43.3584 20.8368 43.3584 20.8224 43.56 21.0816C43.6752 21.24 43.776 21.4128 43.776 21.4704C43.776 21.528 43.8768 21.6144 44.0064 21.6576C44.136 21.7152 44.424 21.6432 44.6256 21.4992C44.8272 21.3696 45.4608 21.1392 46.008 21.0096C46.5696 20.8656 47.3616 20.7504 47.7792 20.7504Z" />
        <path d="M26.2224 21.3121C26.1504 21.3121 26.0208 21.4129 25.92 21.5281C25.7904 21.6865 25.4592 21.7441 24.7536 21.7441C23.9328 21.7441 23.76 21.7873 23.76 21.9745C23.76 22.1761 23.8608 22.1905 24.4512 22.1041C24.8256 22.0609 25.3008 21.9889 25.5168 21.9745C25.7328 21.9457 26.0064 21.8449 26.136 21.7441C26.2512 21.6433 26.352 21.5137 26.352 21.4417C26.352 21.3697 26.2944 21.3121 26.2224 21.3121Z" />
        <path d="M50.0112 21.4704C49.8672 21.4704 49.5648 21.528 49.3488 21.6C49.1328 21.672 48.3552 21.8016 47.6208 21.9024C46.8864 21.9888 45.8784 22.1904 45.3744 22.3344C44.8704 22.4928 44.2368 22.608 43.9632 22.608C43.6896 22.608 43.5024 22.6656 43.5456 22.7376C43.5888 22.8096 43.7904 22.896 44.0064 22.9392C44.208 22.968 44.7552 22.8816 45.2448 22.7376C45.7344 22.5792 46.5552 22.464 47.1312 22.464C47.7072 22.4496 48.4272 22.3632 48.744 22.248C49.0464 22.1328 49.3488 22.0752 49.392 22.1184C49.4208 22.1616 49.3344 22.2768 49.176 22.3632C49.0176 22.464 48.7584 22.5792 48.6 22.6368C48.4416 22.68 47.9232 22.7376 47.448 22.7376C46.9728 22.752 46.0656 22.8816 45.432 23.0256C44.4384 23.2416 44.1936 23.256 43.7328 23.0976C43.4448 22.9968 43.056 22.8096 42.8832 22.68C42.696 22.5648 42.4512 22.464 42.3072 22.464C42.1632 22.464 42.048 22.5072 42.048 22.5648C42.048 22.6368 42.3936 22.8672 42.8112 23.112C43.5168 23.5152 43.6464 23.544 45 23.5152C45.792 23.5008 46.9872 23.3856 47.664 23.256C48.3408 23.1264 49.392 22.9824 50.0112 22.9392C50.76 22.896 51.1632 22.7952 51.2208 22.6656C51.2496 22.5648 51.0624 22.248 50.7744 21.9744C50.5008 21.6864 50.1552 21.456 50.0112 21.4704Z" />
        <path d="M25.6752 22.1904C25.5312 22.1904 25.2576 22.2624 25.056 22.3344C24.8544 22.4208 24.3936 22.464 24.0192 22.4208C23.4432 22.3776 23.328 22.4064 23.328 22.608C23.328 22.7376 23.4864 22.9968 23.6736 23.1696C23.9616 23.4432 24.1488 23.4864 24.9264 23.4432C25.4736 23.4144 25.8192 23.3424 25.776 23.256C25.7328 23.1696 25.3008 23.112 24.8112 23.112C24.3216 23.112 23.8464 23.04 23.7744 22.968C23.6736 22.8528 23.8464 22.8096 24.3792 22.8096C24.7824 22.8096 25.3008 22.7664 25.5312 22.7088C25.7472 22.6512 25.92 22.5072 25.92 22.392C25.92 22.2768 25.8048 22.176 25.6752 22.1904Z" />
        <path d="M28.1088 22.32C28.0368 22.32 27.9216 22.4208 27.8784 22.5504C27.8352 22.68 27.936 22.9104 28.1664 23.1264C28.4976 23.472 28.5552 23.4864 28.8432 23.2848C29.016 23.1696 29.16 22.9248 29.16 22.752C29.16 22.5648 29.0736 22.392 28.9584 22.3488C28.8288 22.3056 28.8 22.3776 28.872 22.5936C28.9296 22.8096 28.8864 22.9248 28.7424 22.9824C28.6128 23.04 28.4112 22.9968 28.296 22.896C28.1952 22.8096 28.1376 22.6368 28.1808 22.5216C28.224 22.4064 28.1952 22.32 28.1088 22.32Z" />
        <path d="M41.9472 23.04C41.9184 23.04 41.9184 23.0976 41.976 23.1696C42.0192 23.256 42.48 23.5152 42.984 23.7456C43.6464 24.0624 44.136 24.192 44.6544 24.192C45.0432 24.192 45.648 24.1344 45.9792 24.048C46.3104 23.976 47.2752 23.8896 48.1248 23.8752C49.1472 23.8464 49.6224 23.8752 49.5216 23.976C49.4496 24.048 48.5856 24.1776 47.6208 24.2352C46.656 24.3072 45.3168 24.3792 44.64 24.3792C43.6032 24.408 43.3296 24.3648 42.8688 24.0768C42.5664 23.904 42.2064 23.76 42.0768 23.76C41.8752 23.76 41.8752 23.7888 42.048 23.9616C42.1632 24.0768 42.7392 24.3648 43.3152 24.624C44.1792 24.984 44.568 25.0704 45.3888 25.0704C45.936 25.0704 46.9296 24.9552 47.5632 24.8256C48.2112 24.6816 49.3776 24.5664 50.1408 24.5664L51.552 24.552V24.1776C51.552 23.976 51.4224 23.688 51.264 23.544C51.1056 23.4 50.6736 23.256 50.2848 23.2128C49.8816 23.184 49.248 23.2416 48.8016 23.3712C48.3696 23.4864 47.3472 23.6736 46.5264 23.76C45.7056 23.8608 44.712 23.904 44.3232 23.8608C43.9344 23.8032 43.2576 23.6016 42.8112 23.4C42.3792 23.1984 41.9904 23.04 41.9472 23.04Z" />
        <path d="M23.7168 24.0337C23.4576 23.6881 23.3568 23.6449 23.2848 23.8033C23.2416 23.9185 23.3712 24.1777 23.6016 24.3937C23.9328 24.7105 24.12 24.7681 24.8832 24.7681C25.3872 24.7681 25.776 24.7105 25.776 24.6241C25.776 24.5377 25.4016 24.4801 24.9264 24.4801C24.1344 24.4801 24.0336 24.4369 23.7168 24.0337Z" />
        <path d="M24.7392 23.76C23.7744 23.7744 23.7168 23.7888 23.976 23.9904C24.1344 24.1056 24.3504 24.1632 24.4512 24.12C24.5664 24.0768 24.8976 24.048 25.2144 24.048C25.5168 24.048 25.776 23.976 25.776 23.904C25.776 23.8176 25.3296 23.76 24.7392 23.76Z" />
        <path d="M42.3504 24.5521C41.976 24.3649 41.904 24.3649 41.904 24.5377C41.904 24.6385 42.0768 24.7681 42.3072 24.8113C42.5232 24.8545 42.7248 24.8689 42.7392 24.8401C42.768 24.8113 42.5952 24.6817 42.3504 24.5521Z" />
        <path d="M49.9968 24.7824C49.6224 24.7968 49.0608 24.8544 48.7584 24.9264C48.4416 24.9984 48.1536 25.0992 48.1104 25.1568C48.0672 25.2 48.4704 25.2 49.0032 25.1568C49.7664 25.0992 49.9392 25.128 49.824 25.272C49.752 25.3584 49.7232 25.488 49.7808 25.5312C49.824 25.5888 49.9824 25.632 50.112 25.632C50.2416 25.632 50.472 25.5024 50.6016 25.3584C50.7456 25.2 50.8176 24.9984 50.76 24.9264C50.7168 24.84 50.3712 24.768 49.9968 24.7824Z" />
        <path d="M42.2352 24.9983C42.048 24.9407 41.904 24.9407 41.904 25.0127C41.904 25.0703 42.3216 25.3007 42.8112 25.5167C43.3008 25.7327 44.1072 25.9487 44.5968 26.0063C45.0864 26.0639 46.1232 26.0207 46.9296 25.9199C47.736 25.8191 48.384 25.6751 48.384 25.6031C48.384 25.5167 47.7936 25.5167 46.9152 25.5887C46.0944 25.6463 45.072 25.7039 44.64 25.7039C44.136 25.7039 43.6176 25.5887 43.2 25.4015C42.84 25.2287 42.408 25.0415 42.2352 24.9983Z" />
        <path d="M24.8976 25.0849C24.4224 25.0561 24.048 25.1137 23.9328 25.2289C23.8464 25.3153 23.76 25.4737 23.76 25.5601C23.76 25.6609 23.8896 25.8481 24.0624 26.0065C24.2496 26.1793 24.5376 26.2657 24.912 26.2513C25.2288 26.2369 25.6032 26.1505 25.776 26.0641C25.9344 25.9777 26.064 25.8625 26.064 25.7905C26.064 25.7329 25.632 25.6897 25.0992 25.6897C24.2352 25.7041 24.12 25.6753 24.0768 25.4161C24.0336 25.1857 24.0624 25.1569 24.2064 25.3009C24.3072 25.4017 24.7104 25.4881 25.0992 25.4881C25.5888 25.4881 25.776 25.4305 25.7472 25.3009C25.704 25.2001 25.3584 25.1137 24.8976 25.0849Z" />
        <path d="M43.632 25.1425C43.2864 25.0417 43.2864 25.0561 43.5456 25.2577C43.704 25.3873 43.9632 25.4881 44.1216 25.4881C44.3664 25.4737 44.3808 25.4593 44.208 25.3585C44.0928 25.2865 43.8336 25.1857 43.632 25.1425Z" />
        <path d="M41.8464 25.7761C41.8032 25.7761 41.76 25.8049 41.76 25.8337C41.76 25.8625 42.2496 26.1937 42.84 26.5537C43.4304 26.9281 44.2656 27.3169 44.712 27.4321C45.1584 27.5473 46.1232 27.6481 46.8432 27.6481C47.5776 27.6481 48.5568 27.5473 49.032 27.4321C49.4928 27.3025 50.1264 27.0721 50.4288 26.8993C50.7312 26.7265 50.976 26.5393 50.976 26.4673C50.976 26.4097 50.8032 26.3089 50.5872 26.2657C50.3568 26.2081 49.9968 26.0785 49.7664 25.9633C49.4496 25.7905 49.2192 25.7761 48.7584 25.9057C48.4416 25.9777 47.5488 26.1649 46.7856 26.2945C45.6624 26.4961 45.2448 26.5105 44.6256 26.3809C44.1936 26.2945 43.7184 26.1937 43.56 26.1361C43.272 26.0497 43.272 26.0497 43.5456 26.2657C43.6896 26.3809 44.136 26.5969 44.5104 26.7121C45.144 26.9281 45.4032 26.9281 47.4624 26.7265C48.7152 26.5969 49.824 26.4961 49.9536 26.4961C50.0832 26.4961 50.112 26.5393 50.0256 26.6257C49.9536 26.6977 49.0464 26.8705 48.024 26.9857C46.9872 27.1153 45.8064 27.2161 45.4032 27.2161C44.7984 27.2161 44.424 27.0865 43.3008 26.4961C42.552 26.0929 41.8896 25.7761 41.8464 25.7761Z" />
        <path d="M26.2656 26.352C26.1792 26.2656 26.0496 26.2656 25.92 26.352C25.8048 26.424 25.5168 26.496 25.3008 26.496C25.0272 26.496 24.912 26.5536 24.9552 26.6688C24.984 26.784 25.2144 26.8416 25.5744 26.8128C25.8768 26.784 26.1936 26.6976 26.28 26.6256C26.352 26.5392 26.352 26.4384 26.2656 26.352Z" />
        <path d="M41.5872 26.28C41.3424 26.2224 41.184 26.2368 41.184 26.3232C41.184 26.4096 41.8464 26.8272 42.6672 27.2448C43.4736 27.6768 44.2944 28.08 44.496 28.1376C44.6976 28.2096 45.9072 28.296 47.1744 28.3536C49.176 28.4256 49.5504 28.4832 49.8096 28.7136C50.0544 28.9296 50.1408 28.944 50.328 28.8C50.4432 28.6992 50.544 28.44 50.544 28.224C50.544 28.008 50.4576 27.7488 50.3424 27.6624C50.1984 27.5472 49.9248 27.5616 49.2336 27.7488C48.6576 27.8928 47.7936 27.9792 46.944 27.9792C46.1952 27.9792 45.2592 27.8928 44.856 27.8064C44.4672 27.7056 43.6464 27.3456 43.056 27C42.4656 26.6544 41.8032 26.3232 41.5872 26.28Z" />
        <path d="M24.3504 26.5249C24.2352 26.4817 24.1776 26.5393 24.2208 26.6545C24.2496 26.7553 24.3648 26.8705 24.4656 26.8993C24.5808 26.9425 24.6384 26.8849 24.5952 26.7697C24.5664 26.6689 24.4512 26.5537 24.3504 26.5249Z" />
        <path d="M26.208 26.9712C26.0928 26.9568 25.7184 27.072 25.3728 27.2304C24.8976 27.4608 24.696 27.4896 24.552 27.36C24.4368 27.2592 24.2784 27.2304 24.192 27.288C24.12 27.3312 24.048 27.4752 24.048 27.5904C24.048 27.7056 24.1056 27.792 24.1776 27.792C24.2496 27.792 24.336 27.7056 24.3792 27.6048C24.4224 27.4752 24.4944 27.4752 24.6096 27.5904C24.7392 27.72 24.984 27.6912 25.5456 27.5184C25.9632 27.3888 26.3232 27.2304 26.3664 27.144C26.3952 27.072 26.3232 26.9856 26.208 26.9712Z" />
        <path d="M41.472 27.1152C41.0976 27.0576 40.896 27.0864 40.896 27.1872C40.896 27.2736 41.1408 27.3888 41.4432 27.4464C41.7312 27.504 42.1632 27.6336 42.3792 27.7488C42.6096 27.864 42.8256 27.9216 42.8688 27.8928C42.8976 27.8496 42.7248 27.6768 42.48 27.504C42.2352 27.3312 41.7744 27.1584 41.472 27.1152Z" />
        <path d="M40.7952 27.6624C40.6944 27.648 40.608 27.7056 40.608 27.792C40.608 27.864 40.824 27.936 41.0832 27.9216C41.472 27.9216 41.5008 27.8928 41.256 27.792C41.0976 27.72 40.8816 27.6624 40.7952 27.6624Z" />
        <path d="M24.9264 27.936C24.4944 27.936 24.336 27.9936 24.3792 28.1088C24.408 28.2096 24.624 28.2816 24.84 28.2672C25.0704 28.2528 25.3152 28.1664 25.4016 28.08C25.5024 27.9792 25.3584 27.936 24.9264 27.936Z" />
        <path d="M44.1072 28.584C43.6032 28.3104 43.2 28.1376 43.2 28.224C43.2 28.296 43.3728 28.4688 43.6032 28.6272C43.8192 28.7856 44.2656 29.0448 44.5968 29.2176C44.9568 29.3904 45.4752 29.52 45.864 29.52C46.224 29.52 46.512 29.4624 46.512 29.3904C46.512 29.3184 46.1664 29.2176 45.7632 29.1744C45.3168 29.1168 44.6112 28.8576 44.1072 28.584Z" />
        <path d="M25.992 28.2383C25.92 28.2383 25.5888 28.3391 25.2864 28.4543C24.984 28.5695 24.6384 28.7279 24.5376 28.8143C24.4224 28.9007 24.336 29.0735 24.336 29.1743C24.336 29.2895 24.4224 29.3759 24.5232 29.3759C24.6384 29.3759 24.84 29.2319 24.9984 29.0735C25.1424 28.9007 25.4736 28.6415 25.704 28.4975C25.9488 28.3391 26.0784 28.2239 25.992 28.2383Z" />
        <path d="M41.8752 28.2241C41.3712 28.2241 41.184 28.2817 41.2128 28.3969C41.256 28.4977 41.5008 28.6129 41.7744 28.6705C42.048 28.7137 42.4656 28.8865 42.7104 29.0737C42.9552 29.2465 43.4016 29.4481 43.7184 29.5201C44.0208 29.5921 44.4096 29.6497 44.568 29.6497C44.7408 29.6497 44.5968 29.5345 44.1936 29.3329C43.8336 29.1457 43.3152 28.8289 43.0704 28.6129C42.696 28.3105 42.4512 28.2241 41.8752 28.2241Z" />
        <path d="M26.4672 28.5265C26.3664 28.5265 26.1504 28.6129 25.992 28.6993C25.8336 28.8001 25.4592 29.0881 25.1424 29.3329C24.8256 29.5921 24.4512 29.8081 24.3072 29.8081C24.1632 29.8081 24.048 29.8657 24.048 29.9521C24.048 30.0241 24.192 30.1537 24.3504 30.2545C24.624 30.3985 24.7392 30.3265 25.4016 29.6785C25.8048 29.2753 26.2512 28.9441 26.3952 28.9441C26.5248 28.9441 26.64 28.8433 26.64 28.7281C26.64 28.6129 26.5536 28.5121 26.4672 28.5265Z" />
        <path d="M29.7792 28.512C29.4048 28.512 29.3616 28.5408 29.52 28.728C29.6208 28.8432 29.8368 28.944 30.0096 28.944C30.1824 28.944 30.456 29.0304 30.6 29.1456C30.7872 29.2752 30.9024 29.592 30.96 30.1104C31.0032 30.5568 31.0896 30.8592 31.176 30.816C31.2624 30.7728 31.3056 30.4416 31.2768 30.0528C31.2624 29.664 31.3056 29.376 31.392 29.376C31.464 29.376 31.5792 29.3616 31.6368 29.3328C31.7088 29.3184 31.7376 29.5632 31.7088 29.88C31.68 30.1968 31.6368 30.5712 31.5936 30.7008C31.5504 30.8736 31.5936 30.96 31.7232 30.96C31.8384 30.96 31.9824 30.8592 32.0256 30.7296C32.0688 30.6 32.112 30.3552 32.112 30.1824C32.112 30.0096 32.2128 29.7216 32.3424 29.5488C32.5152 29.2896 32.7024 29.232 33.3504 29.232C33.9264 29.232 34.128 29.1888 34.0848 29.0448C34.0416 28.9296 33.5952 28.872 32.5296 28.8576C31.7088 28.8576 30.8448 28.7712 30.6288 28.6848C30.3984 28.584 30.024 28.512 29.7792 28.512Z" />
        <path d="M47.4192 28.8C46.3536 28.8 45.936 28.8432 46.08 28.944C46.1952 29.016 46.4112 29.088 46.5552 29.088C46.6992 29.088 46.9152 29.1744 47.016 29.2896C47.16 29.4192 47.4336 29.4624 47.9088 29.4192C48.2832 29.376 48.6864 29.3328 48.7872 29.304C48.8736 29.2608 48.96 29.1456 48.96 29.016C48.96 28.8432 48.7008 28.8 47.4192 28.8Z" />
        <path d="M29.0736 28.944C28.9152 28.944 28.656 29.1888 28.44 29.52C28.2384 29.8368 27.9216 30.1248 27.72 30.1824C27.4608 30.24 27.36 30.3696 27.36 30.6144C27.36 30.8016 27.2736 30.96 27.1728 30.96C27.072 30.96 26.6832 31.2912 26.2944 31.68C25.9056 32.0832 25.56 32.3712 25.5168 32.3424C25.488 32.2992 25.7616 31.9104 26.136 31.464C26.5104 31.032 26.8704 30.672 26.9424 30.672C27.0144 30.672 27.072 30.6 27.072 30.528C27.072 30.4416 26.9856 30.384 26.8704 30.384C26.7552 30.384 26.2944 30.816 25.8624 31.3488C25.416 31.8816 25.0704 32.3856 25.0992 32.472C25.128 32.544 25.2576 32.6304 25.3872 32.6592C25.5168 32.688 25.9632 32.3856 26.3952 31.9824C26.8272 31.5792 27.2448 31.248 27.3312 31.248C27.432 31.248 27.504 31.2912 27.504 31.3488C27.504 31.392 27.1152 31.7952 26.64 32.2128C25.8768 32.904 25.776 33.0624 25.776 33.5376C25.776 33.9264 25.8768 34.1712 26.1216 34.4016C26.3232 34.5888 26.5392 34.6896 26.6256 34.632C26.712 34.5888 26.784 34.3152 26.784 34.0416C26.784 33.7536 26.856 33.3936 26.9424 33.2208C27.0288 33.048 27.216 32.7888 27.3312 32.6448C27.4608 32.5008 27.576 32.2848 27.6048 32.1408C27.6192 32.0112 27.6768 31.68 27.7344 31.4208C27.792 31.1472 27.9072 30.96 28.0368 30.96C28.1808 30.96 28.224 31.032 28.152 31.2048C28.0944 31.3488 28.0224 31.7376 27.9792 32.0544C27.9072 32.6448 27.9216 32.6592 28.6704 33.1776C29.2464 33.5664 29.592 33.696 30.0384 33.696C30.3984 33.696 30.7728 33.5952 30.96 33.4368C31.1904 33.2496 31.3056 32.976 31.3488 32.4576C31.4064 31.8528 31.3632 31.6944 31.0608 31.3344C30.8592 31.104 30.672 30.7008 30.6288 30.4272C30.5712 30.1392 30.4272 29.7936 30.2976 29.6496C30.168 29.4912 29.9664 29.376 29.88 29.376C29.7792 29.376 29.6208 29.2752 29.52 29.16C29.4192 29.0448 29.2176 28.944 29.0736 28.944Z" />
        <path d="M40.5072 28.9439C40.4064 28.9439 40.32 29.0159 40.32 29.0879C40.32 29.1743 40.5504 29.3471 40.824 29.4767C41.0976 29.6063 41.328 29.7647 41.328 29.8223C41.328 29.8943 41.616 30.1391 41.976 30.3839C42.3216 30.6287 43.1136 30.9887 43.704 31.1759C44.3088 31.3775 45.0288 31.5359 45.3024 31.5359C45.576 31.5359 45.936 31.4639 46.0944 31.3919C46.2384 31.3055 46.368 31.1471 46.368 31.0319C46.368 30.8879 46.2096 30.8159 45.864 30.8159C45.5904 30.8159 45.36 30.8879 45.36 30.9599C45.36 31.0463 45.1296 31.0751 44.7552 31.0175C44.4096 30.9743 43.776 30.8303 43.344 30.7151C42.912 30.5855 42.3648 30.3551 42.12 30.1967C41.8896 30.0383 41.6016 29.8079 41.5152 29.6927C41.4144 29.5631 41.328 29.4191 41.328 29.3471C41.328 29.2895 41.4 29.2319 41.5008 29.2319C41.5872 29.2319 41.7744 29.3183 41.8896 29.4335C42.0192 29.5487 42.408 29.7503 42.768 29.8799C43.128 30.0095 43.6464 30.1823 43.92 30.2543C44.1936 30.3263 45.0576 30.4127 45.8208 30.4559C46.7136 30.4991 47.3616 30.5999 47.6208 30.7439C47.8368 30.8591 48.1392 31.0463 48.2688 31.1327C48.4704 31.2767 48.5568 31.2767 48.7008 31.1327C48.8304 31.0031 48.8448 30.8879 48.7296 30.7007C48.6432 30.5711 48.3552 30.3551 48.0816 30.2111C47.7936 30.0815 47.1312 29.9519 46.4832 29.9231C45.6048 29.8799 45.36 29.9231 45.36 30.0671C45.36 30.2111 45.2736 30.2399 45.1152 30.1679C44.9712 30.1103 44.568 30.0095 44.208 29.9663C43.848 29.9087 43.1136 29.6639 42.5808 29.4047C41.76 29.0303 41.5584 28.9871 41.328 29.1311C41.112 29.2607 41.0112 29.2607 40.8672 29.1167C40.7808 29.0303 40.608 28.9439 40.5072 28.9439Z" />
        <path d="M26.3952 29.2321C26.3232 29.2321 26.1648 29.3041 26.0352 29.3905C25.8912 29.4625 25.5456 29.8369 25.272 30.1969C24.9696 30.5857 24.768 31.0177 24.768 31.2625C24.768 31.4785 24.84 31.7089 24.9408 31.7665C25.0416 31.8385 25.2864 31.6657 25.5456 31.3201C25.7904 31.0177 26.2368 30.5281 26.5392 30.2257C26.8416 29.9377 27.0288 29.6497 26.9424 29.6065C26.8704 29.5489 26.568 29.7217 26.2944 29.9665C26.0064 30.2113 25.776 30.4993 25.776 30.5857C25.776 30.6865 25.6464 30.8881 25.488 31.0321C25.3296 31.1761 25.1568 31.2481 25.1136 31.2049C25.056 31.1617 25.1712 30.9169 25.3584 30.6721C25.5456 30.4129 25.8768 30.0241 26.1072 29.7793C26.3232 29.5489 26.496 29.3329 26.496 29.2897C26.496 29.2609 26.4528 29.2321 26.3952 29.2321Z" />
        <path d="M41.5152 30.4272C40.9968 29.9952 40.8672 29.952 40.9104 30.168C40.9392 30.312 41.2272 30.6144 41.544 30.8448C41.8608 31.0608 42.2928 31.3056 42.5232 31.3776C42.7392 31.464 42.912 31.464 42.912 31.4064C42.912 31.3488 42.7392 31.2192 42.5376 31.1184C42.3216 31.032 41.8608 30.7152 41.5152 30.4272Z" />
        <path d="M40.464 30.24C40.3776 30.24 40.32 30.2976 40.32 30.3696C40.32 30.4416 40.608 30.7584 40.9536 31.0752C41.2992 31.392 41.7744 31.752 41.9904 31.8672C42.2208 31.9824 42.7968 32.1984 43.272 32.328C43.7472 32.4576 44.4672 32.688 44.8848 32.832C45.4608 33.048 45.7776 33.0768 46.368 32.9904C46.7712 32.9184 47.2176 32.7744 47.3328 32.6448C47.4624 32.5296 47.52 32.328 47.4768 32.2128C47.4192 32.0688 47.0448 31.9824 46.2672 31.9104C45.648 31.8528 44.928 31.7808 44.6832 31.7376C44.3808 31.68 44.208 31.7088 44.208 31.8096C44.208 31.896 44.3376 31.968 44.4816 31.968C44.64 31.968 44.8128 32.0256 44.856 32.112C44.8992 32.184 45.2016 32.256 45.5184 32.256C45.8208 32.256 46.08 32.3136 46.08 32.4C46.08 32.472 45.8928 32.544 45.6624 32.544C45.4464 32.544 45.0432 32.472 44.7696 32.3856C44.496 32.2992 44.0208 32.112 43.704 31.968C43.3872 31.824 42.8976 31.6656 42.624 31.608C42.3504 31.5504 41.8896 31.3776 41.6016 31.2336C41.3136 31.0896 40.9824 30.816 40.8384 30.6144C40.7088 30.4128 40.536 30.24 40.464 30.24Z" />
        <path d="M39.4272 30.96C39.3696 30.96 39.312 31.0608 39.312 31.176C39.312 31.3056 39.9024 32.0112 40.608 32.7456C41.5872 33.7536 42.0912 34.1568 42.5952 34.344C42.9696 34.488 43.3728 34.6896 43.5024 34.7904C43.6176 34.9056 43.8912 34.992 44.0784 34.992C44.28 34.992 44.5824 34.8624 44.7696 34.6896C45.0144 34.4592 45.072 34.2576 45.0432 33.7968C45 33.2208 44.9856 33.2064 44.136 32.9472C43.6608 32.7888 42.8832 32.5296 42.408 32.3568C41.9328 32.184 41.2992 31.824 40.9968 31.5648C40.7088 31.2912 40.4208 31.104 40.3776 31.1472C40.32 31.1904 40.4352 31.4352 40.608 31.68C40.7808 31.9248 41.2272 32.2848 41.5872 32.4864C41.9616 32.6736 42.552 33.0624 42.912 33.336C43.272 33.6096 43.7472 33.9696 43.9632 34.1424C44.1792 34.3152 44.3376 34.4736 44.3088 34.5168C44.2656 34.5456 43.9344 34.3728 43.5456 34.1424C43.1712 33.8976 42.768 33.696 42.6672 33.696C42.5664 33.696 42.3792 33.5376 42.264 33.3504C42.1344 33.1632 41.8464 32.9328 41.6304 32.832C41.4144 32.7456 40.8528 32.2848 40.3776 31.8096C39.9168 31.3488 39.4848 30.96 39.4272 30.96Z" />
        <path d="M40.1328 32.7025C40.0032 32.6017 39.888 32.5729 39.888 32.6449C39.888 32.7169 40.1616 33.0769 40.5072 33.4225C40.8528 33.7681 41.4144 34.3585 41.7456 34.7473C42.0912 35.1217 42.336 35.4673 42.2784 35.5249C42.2352 35.5681 41.616 35.0065 40.896 34.2577C40.1904 33.5089 39.6144 32.9761 39.6 33.0625C39.6 33.1489 39.9312 33.5953 40.32 34.0417C40.7232 34.5025 41.1696 35.1217 41.328 35.4385C41.4864 35.7409 41.7456 36.0577 41.8896 36.1441C42.048 36.2161 42.2928 36.2881 42.4368 36.2881C42.5952 36.2881 42.8544 36.1585 43.0416 35.9857C43.2288 35.8129 43.344 35.5537 43.3152 35.3809C43.2864 35.1649 43.0272 34.9345 42.48 34.6753C42.048 34.4593 41.4 33.9697 41.04 33.5953C40.68 33.2065 40.2768 32.8177 40.1328 32.7025Z" />
        <path d="M27.6624 32.688C27.5904 32.688 27.432 32.9328 27.3168 33.2352C27.2016 33.5376 27.0864 34.0416 27.072 34.344C27.0576 34.6608 27.0576 34.9776 27.072 35.064C27.0864 35.136 27.144 35.0784 27.216 34.92C27.288 34.7616 27.3456 34.4592 27.3456 34.2576C27.36 34.056 27.4464 33.768 27.5616 33.6096C27.6768 33.4656 27.8064 33.3792 27.8496 33.4224C27.9072 33.4656 27.8352 33.7824 27.72 34.128C27.6048 34.4592 27.504 34.8336 27.504 34.9344C27.504 35.0496 27.5616 35.136 27.6336 35.136C27.7056 35.136 27.8352 34.9488 27.936 34.704C28.0368 34.4736 28.2096 34.2 28.3104 34.1136C28.4256 34.0128 28.5552 33.984 28.6128 34.0416C28.656 34.0848 28.5984 34.2432 28.4688 34.3728C28.3536 34.5168 28.2096 34.8048 28.152 35.0208C28.0944 35.2368 28.1376 35.5392 28.2384 35.7408L28.4256 36.072L28.5264 35.64C28.5984 35.2656 28.6272 35.2512 28.728 35.4816C28.8 35.64 28.7856 35.928 28.6992 36.1584C28.584 36.4464 28.584 36.6192 28.7136 36.792C28.8576 36.9936 28.9152 36.9792 29.2176 36.6624C29.4768 36.3888 29.5344 36.216 29.4624 35.928C29.4048 35.712 29.2032 35.3952 28.9872 35.1936C28.7712 34.992 28.656 34.7616 28.7136 34.632C28.7568 34.5168 28.8576 34.416 28.944 34.416C29.016 34.416 29.088 34.3008 29.088 34.1568C29.088 33.9984 28.8 33.6816 28.44 33.4224C28.08 33.1632 27.792 32.904 27.792 32.8176C27.792 32.7456 27.7344 32.688 27.6624 32.688Z" />
        <path d="M38.7072 33.12C38.6208 33.12 38.6064 33.2352 38.664 33.3648C38.736 33.5088 38.9088 34.0128 39.0672 34.4736C39.2256 34.9488 39.5136 35.5536 39.7008 35.8416C39.9024 36.1296 40.2192 36.7056 40.4064 37.1232C40.5792 37.5408 40.8384 37.9152 40.968 37.9584C41.0976 38.016 41.3712 37.9728 41.5584 37.8576C41.76 37.7568 41.9904 37.5408 42.0768 37.3968C42.192 37.1808 42.1344 37.0368 41.7888 36.6624C41.5584 36.4176 41.2128 35.928 41.04 35.568C40.8528 35.208 40.5072 34.6896 40.2624 34.4016C40.0176 34.128 39.672 33.696 39.4992 33.4656L39.168 33.048L39.456 33.7968C39.6 34.2 39.9456 34.8336 40.2192 35.1792C40.4784 35.5248 40.8528 36.1728 41.0256 36.6336C41.2128 37.08 41.328 37.4832 41.2848 37.5264C41.2416 37.5696 40.9968 37.1952 40.7376 36.7056C40.4928 36.2016 40.0896 35.5104 39.8592 35.1648C39.6288 34.8336 39.2976 34.2288 39.1392 33.84C38.9808 33.4368 38.7792 33.12 38.7072 33.12Z" />
        <path d="M53.064 42.8832C52.8336 42.8544 52.4592 42.84 52.2432 42.8832L51.84 42.9264V44.9424V46.944H52.5312C52.92 46.944 53.424 46.8288 53.712 46.6848C53.9856 46.5408 54.3312 46.1952 54.4608 45.9216C54.6048 45.648 54.72 45.1584 54.72 44.8128C54.72 44.4672 54.6192 44.0064 54.504 43.776C54.3744 43.5456 54.1008 43.2576 53.8848 43.1568C53.6688 43.0416 53.3088 42.9264 53.064 42.8832Z" />
        <path d="M52.9056 47.7216C52.4448 47.6784 52.0128 47.6784 51.9552 47.7504C51.8832 47.808 51.84 48.7872 51.84 49.9104C51.84 51.8688 51.8544 51.984 52.1568 52.1856C52.3296 52.3152 52.6896 52.4592 52.9344 52.5024C53.2368 52.56 53.6112 52.488 54.0576 52.2864C54.6048 52.0416 54.7776 51.8688 55.0368 51.3216C55.2528 50.8176 55.3104 50.4432 55.2672 49.8672C55.224 49.392 55.08 48.9312 54.9072 48.7008C54.7488 48.4848 54.4176 48.1968 54.1872 48.0672C53.9568 47.9232 53.3808 47.7648 52.9056 47.7216Z" />
        <path d="M20.5056 60.5232C20.4192 60.4944 20.2752 60.552 20.2032 60.6528C20.1168 60.7536 20.016 61.0704 19.9584 61.344C19.9152 61.6176 19.944 61.9488 20.016 62.064C20.1312 62.2512 20.1744 62.2512 20.376 62.0496C20.5056 61.9344 20.6208 61.5456 20.6352 61.2C20.6496 60.8544 20.592 60.552 20.5056 60.5232Z" />
        <path d="M23.2704 60.3361C23.1696 60.3361 23.04 60.3793 22.9968 60.4369C22.9392 60.4801 22.896 60.6529 22.896 60.7969C22.896 60.9553 22.9968 61.0561 23.1696 61.0561C23.328 61.0561 23.4864 60.9985 23.5296 60.9265C23.5872 60.8545 23.5728 60.6961 23.5296 60.5665C23.4864 60.4369 23.3568 60.3361 23.2704 60.3361Z" />
        <path d="M31.752 60.3361C31.6368 60.3361 31.4784 60.4657 31.392 60.6097C31.32 60.7681 31.248 60.9265 31.248 60.9697C31.248 61.0129 31.4064 61.0561 31.608 61.0561C31.896 61.0561 31.968 60.9841 31.968 60.6961C31.968 60.4801 31.8816 60.3361 31.752 60.3361Z" />
        <path d="M40.6512 60.5232C40.5648 60.4944 40.4208 60.5952 40.3344 60.7536C40.248 60.912 40.176 61.3008 40.176 61.6176C40.176 62.0352 40.2336 62.208 40.3776 62.208C40.4928 62.208 40.6656 61.9776 40.752 61.704C40.8384 61.4304 40.896 61.056 40.8672 60.8832C40.8384 60.7104 40.752 60.552 40.6512 60.5232Z" />
        <path d="M48.024 60.48C47.9232 60.48 47.7648 60.6816 47.6784 60.9264C47.592 61.1856 47.52 61.5312 47.52 61.7184C47.52 61.9056 47.592 62.0928 47.6784 62.1504C47.7648 62.1936 47.8944 62.1792 47.9808 62.0928C48.0672 62.0064 48.1824 61.6896 48.2256 61.3872C48.2832 61.0848 48.312 60.7536 48.2688 60.6528C48.24 60.5664 48.1248 60.48 48.024 60.48Z" />
        <path d="M55.08 60.3361C54.9648 60.3361 54.8064 60.4657 54.72 60.6097C54.648 60.7681 54.576 60.9265 54.576 60.9697C54.576 61.0129 54.7344 61.0561 54.936 61.0561C55.224 61.0561 55.296 60.9841 55.296 60.6961C55.296 60.4801 55.2096 60.3361 55.08 60.3361Z" />
    </g>
</svg>