<svg xmlns="http://www.w3.org/2000/svg" fill="none" viewBox="0 0 368 368" width="72" height="72">
    <g clip-path="url(#a)">
        <path fill="#EEF7FD" d="M341.7 0H26.3A26.3 26.3 0 0 0 0 26.3v315.4A26.3 26.3 0 0 0 26.3 368h315.4a26.3 26.3 0 0 0 26.3-26.3V26.3A26.3 26.3 0 0 0 341.7 0Z"/>
        <path fill="#00577A" d="M341.7 0H26.3A26.3 26.3 0 0 0 0 26.3v315.4A26.3 26.3 0 0 0 26.3 368h315.4a26.3 26.3 0 0 0 26.3-26.3V26.3A26.3 26.3 0 0 0 341.7 0Z"/>
        <g fill="#fff" clip-path="url(#b)">
            <path d="M267.1 106.2h3c13.2 0 28.9 1.6 38.8 11.3 2 2 3.6 3.8 5 6.3l.3.8c3.9 7.7 2.9 16 1.3 24.1l-1.6 9-.3 1.5-.5 3.2-.8 4.2-.5 3.2-.3 1.5-.4 2.2v.6a104 104 0 0 0-.7 3.6l.4-.4c2.7-3 2.7-3 3.8-3.5l.6-1 1-1 1.5-1.7.3-.4h.6l.1-.5c.6-.9 1.3-1.5 2-2.2l3.2-3.5 2.5-2.4c.6-.6.6-.6 1.1-1.4h.6l.1-.5c.6-.9 1.3-1.5 2-2.3l.9-.8.4-.4.8-1c1-1.3 1-1.3 1.9-1.6H336.8a111.4 111.4 0 0 1 7.2.2c-.4 1-1 1.6-1.8 2.3l-.7.8-.9.8-.8.9a1164.9 1164.9 0 0 1-5.8 5.7l-1.3 1.2a53.7 53.7 0 0 0-3.7 4l-.4.4h-.5l-.3.8-1.4 1.4h-.6l-.2.5c-.4.8-1.1 1.5-1.8 2.1a163.7 163.7 0 0 0-1.8 1.8l-.9 1-2.3 2.1 1.5 3 .5.8.6 1 .5.9a746.7 746.7 0 0 0 11.6 18.7l.5 1a190 190 0 0 0 1.9 2.9c.6 1 .6 1 .6 1.8h-11l-2.2-4a266.3 266.3 0 0 0-4.2-7.2 475.4 475.4 0 0 0-9.2-16.4c-.5 1.5-.8 3-1 4.5l-.2.8a757.3 757.3 0 0 0-.7 4l-1 6.4-1 5.3-.4 2.4-.3 1.6-.1.7c-.3 1.6-.3 1.6-.6 1.9h-9.2c-.4-1-.3-1.5 0-2.5l.1-1 .2-1.2.2-1.1a1081.5 1081.5 0 0 1 3.8-20.9l2.7-15.6 2.3-12.6.4-2 .5-2.7c1.7-8.5 2.2-18-2.5-25.7a23.7 23.7 0 0 0-10.6-8.6 55.6 55.6 0 0 0-24.2-4.4 1052 1052 0 0 0-5.5 0c-11.3 0-22.4 1.2-33.4 3.4l-1 .2a301 301 0 0 0-29.4 7.6l-1 .3-1 .3c-.9.3-1.2.3-2 0 1-.7 2-1.1 3.2-1.6l.5-.2 1.7-.7.6-.2a241 241 0 0 1 25-8.2l1-.2c3.7-1 7.6-1.8 11.5-2.6l.8-.1c9.2-1.8 18.4-2.8 27.8-2.7ZM178.5 128l.5.2c-.1 1.7-.4 3.3-.7 5l-.1.7-.4 2.6-.2.8-3 17 .8-.2c6.5-2 13-2.7 19.2.3 1.2.6 2.2 1.3 3.2 2.2v.6h.5v.5h.6c4.5 5.6 5 12.8 4.4 19.6a40.4 40.4 0 0 1-13.2 26.9c-5.5 4.2-11.6 6-18.5 5.9h-.6a28 28 0 0 1-15.2-3.7c0-2.1.3-4.1.7-6.2l.2-1.2.6-3.2.5-3 2.6-14.3 2-11.7 1.8-10 1.2-6.4a3828.9 3828.9 0 0 1 2.1-12l.2-1 .1-1 .2-.8c.4-1.8.4-1.8 1.3-2.5l.7-.4.9-.5.8-.4 1.8-1 .9-.5a84 84 0 0 0 3.5-2l.6-.3Zm-4.8 32.2a13.5 13.5 0 0 0-1.3 4.5l-.3 1.8-.2 1.3-.5 2.7-.7 4.3-.3 1.4v.7l-.5 2.2a1195.7 1195.7 0 0 1-4 23.4c4.8 1.7 9.8 1.5 14.6-.3 5.7-2.9 8.8-8.7 10.8-14.5 2.3-7.2 4.2-16.9.7-23.9a10.5 10.5 0 0 0-6.8-5.2c-3.3-.9-8.6-.4-11.5 1.6ZM50 138h5.7a2228 2228 0 0 1 20.7 0v1.7l-.2 1a21 21 0 0 1-.6 4c-.9.4-1.8.3-2.7.3H51.8v.8c0 .9 0 1.6-.2 2.4l-.1.8-.2.8-.1.9-.5 2.7-2.8 15.4h20.7l-.5 5.2-.2.9-.1.6c-.9.4-1.6.3-2.5.3H46.5v1L43.7 192l-1.7 9.7 25.4.2c.4 1.4 0 2.6-.2 4l-.2.8-.1.9-.2.7-.1.6c-.7.3-1 .3-1.8.3H43.5a450 450 0 0 0-4.8 0h-.9c-2.2 0-4.2-.3-5.8-2-1.2-2-.5-4.8-.1-6.9v-.8a660.3 660.3 0 0 1 1.7-9.2l.9-4.7 1.8-10.3.5-2.7 1.9-10.7.2-1 .3-2 .3-1.5a3004 3004 0 0 1 2.1-12.5 9.4 9.4 0 0 1 3.3-6c1.6-1 3.2-1 5-1Z"/>
            <path d="M278 152h.6c3.7 0 7.6.3 10.9 2.1l.7.4c3 1.6 4.6 3.9 5.7 7.1 1 4 .1 8.3-.6 12.2a725.9 725.9 0 0 0-1 5.7l-.8 4.3a2921.8 2921.8 0 0 1-3.4 19.3l-.5 2.3v.7c-.3 1.1-.5 2-1 3h-9.2c-.3-1-.2-1.5 0-2.5l.1-1 .2-1 .3-1.6a507 507 0 0 1 1-5.6l2.5-14.2.4-2.4 1.3-6.8c1.4-6 1.4-6 .1-11.7-1.6-2-3.6-3-6.2-3.5h-3.3c-2.6 0-5 .4-7.6 1.1l-.8.2c-.9.3-.9.3-1.2 1l-.1 1-.2 1-.2 1-.2 1.1-.7 3.7-.2 1.4-.6 3.7-.7 3.7-1 5.7-1.4 8.3-.3 1.4a504.6 504.6 0 0 1-2.3 13.3l-.1.9-.2.7c-.1.6-.1.6-.7 1.2h-9.2c-.4-1.1-.1-2 0-3.1l.2-.7.4-2.3.3-1.6.8-4.3.7-4.2a11763 11763 0 0 1 2.7-14.7v-.5a1102.3 1102.3 0 0 0 2.5-14.3l.6-3.3.2-1a804.2 804.2 0 0 1 .3-1.9c.3-.8.7-1.2 1.4-1.8l1-.4.7-.3c.2 0 .4 0 .6-.2l.7-.2a46 46 0 0 1 16.8-2.3ZM148.6 155.4a18 18 0 0 1 5.8 10.7l.2.7a48.5 48.5 0 0 1-1.1 17.8 35 35 0 0 1-14 22.2 20.5 20.5 0 0 1-6.2 2.6c-2 .6-4 .7-6.2.7h-1a19.4 19.4 0 0 1-7.6-1.5c-3.9-1.6-6.3-5-7.9-8.6a43.8 43.8 0 0 1 3-31.5 28 28 0 0 1 16-15.5 22.9 22.9 0 0 1 19 2.4Zm-22.4 8c-5.9 8-8.8 21-7.4 30.8.5 3 1.5 5.8 4 7.7 2.6 1.6 6 1.5 8.8 1 3.8-1.2 6.5-4 8.3-7.5a54.8 54.8 0 0 0 5.4-24.5v-1c0-3.3-.7-6.9-3.1-9.4a12.6 12.6 0 0 0-2.2-1.4c-5-2.3-10.6.5-13.8 4.3ZM244.4 155.8c2.6 2.4 3.7 5.5 3.9 9 0 5.9-1.2 11.6-2.3 17.4l-1.7 9.2-.5 3-.2.9a1145.4 1145.4 0 0 1-1 6.3l-.2.8-.3 1.7c-.3 1.8-.3 1.8-1 2.7-.9.4-1.6.5-2.5.7l-2 .7c-7.2 2.2-16.1 3-23.4 1l-.9-.3c-3.3-1-6-3-7.9-5.9-2-4-1.4-8.9-.1-13a20 20 0 0 1 6.9-9.5h.6v-.5c2.9-2.1 6-3.4 9.5-4.5l.6-.2a68.8 68.8 0 0 1 16.4-2.8c1-5.8 1-5.8-1-11.1-1.8-2-4.8-2.4-7.4-2.6a36 36 0 0 0-13 2.7l-2.3.7-.6-1.9-.3-1c-.3-1-.4-2-.5-3 8.9-4.7 22.6-7 31.2-.5Zm-11.2 22.5-1.1.2c-6 .9-12.8 2.7-16.6 8a17.2 17.2 0 0 0-3 8.9c0 2.2.4 4 1.8 5.8 2.5 2.6 5.8 3 9.2 3 3 .1 7.2.1 9.5-2l.4-1.4.2-1 .2-1c0-.4 0-.8.2-1.2l.5-3.2.5-2.6 1-5.9.2-1 .5-2.8.2-.8.1-.8.1-.7.1-2c-1.3 0-2.7.3-4 .5ZM110.3 155l.8.8c-.4 1-.8 2-1.4 2.9l-.4.8-1.3 2.1c-.9-.2-1.5-.5-2.3-1a13.4 13.4 0 0 0-9.7-.9c-5 1.6-7.8 5-10 9.4a44.1 44.1 0 0 0-3.4 10.6l-.2.7c-1 4.9-1.3 10.3.2 15.1l.2.8c.7 2.1 2.1 4 4.1 5.2l1.8.7.6.2c3.5.7 7-.1 10-1.9.7-.3 1-.2 1.7 0a343.6 343.6 0 0 1 .8 3.2l.1.6.2.7c0 .6 0 1-.2 1.7l-2 1-.6.4c-3.3 1.5-6.3 2-10 2h-.8c-4.4 0-8.2-1.4-11.4-4.4-3.4-3.7-4.9-8-5.4-13l-.1-.9c-1-10 2.1-21.8 8.4-29.7l.6-.8.4-.4c6.8-8 19.8-12.4 29.3-6ZM30.3 218.9H44.4a11411.6 11411.6 0 0 1 17.7 0h2.3a50266.7 50266.7 0 0 1 21.9 0h.6a61596 61596 0 0 0 20.5 0h53l43.9.1H279l21.2.1h2.8a29465.9 29465.9 0 0 0 17.6 0H329.5a780.3 780.3 0 0 0 3.6 0h.6c1.3 0 1.3 0 1.6.4l-.2 2.2H28.4c.3-2.8.3-2.8 1.9-2.8ZM275.5 237.8c1 .8 1.6 1.8 2 3 .1 2.1-.3 3.8-1.4 5.6-.8.7-1.6 1.4-2.6 2h-.8v.5l.6.2c1.3.6 2.2 1.6 2.7 3 .5 1.8.3 3.5-.5 5.2a9.3 9.3 0 0 1-5.6 4.5c-3.5.6-7.3.5-10.6-.6-.4-1.1-.2-2.2 0-3.3l.1-.6.4-2.1.1-.8a1012.2 1012.2 0 0 1 2.5-14.2v-.6l.5-1.5c3.3-2 9.3-2.3 12.6-.3Zm-9 1.7-.5 2.6-.1.7c-.4 1.6-.6 3.2-.7 4.7 3.7.2 3.7.2 6.9-1.4a5.8 5.8 0 0 0 1.5-4.4c-.1-.9-.5-1.3-1.2-2-1-.4-1.8-.6-3-.6h-.7l-2.1.4Zm-1.9 10.5-.6 3.3-.3 1.6-.2 1-.2 1-.1 2.3c2.7.3 5 .6 7.3-1 1-1 1.6-2 1.8-3.4 0-1.9 0-1.9-.7-3.5-1.5-1.3-3-1.3-4.9-1.3h-2.1ZM43.7 233.6h2.5c.5.9.2 1.5 0 2.4l-.1 1-.1.6-.3 1.8c-.5 2.8-.5 2.8-.8 3.4l.5-.2c2.3-.9 4.7-.9 7 0 1 .5 1.7 1.4 2.2 2.4.4 3.2-.3 6.3-.9 9.4a447.8 447.8 0 0 0-.8 4.3l-.1.9-.2.7v.6l-.5.8H48.5a94 94 0 0 1 1.4-9.5c1-3.7 1-3.7.3-7.2h-2.9c-1 0-1.8.3-2.7.6a26061.9 26061.9 0 0 1-2 10.6l-.1 1-1 4.5h-3.6c.1-3 .7-6 1.2-8.9l.3-1.6a2218.1 2218.1 0 0 1 1.6-8.6l.3-1.7a1543.3 1543.3 0 0 0 1-5.4c.3-1.9.3-1.9 1.4-1.9ZM158.6 237h3.7l1.5 8.3.2 1.2a1727 1727 0 0 1 2.2 15.2h-3c-1 0-1 0-1.2-.3l-.2-1.5-.1-.9-.1-1-.4-3.5-7.6.3-1.7 3.3a118.6 118.6 0 0 1-1.4 2.5c-.2.5-.2.5-.8 1.1-.9.2-.9.2-1.8.1h-1.6c.2-1.1.7-2 1.2-3l.6-1.2.4-.6a544.7 544.7 0 0 0 6.4-12.7l3.2-6.2.5-1.1Zm.9 5a1079.9 1079.9 0 0 0-3.8 7.3l-.3.6-.7 1.5.3.6H159.8c.5 0 .5 0 1-.3-.1-3.3-.6-6.5-1-9.7h-.3ZM318.3 233.6h3.6a63 63 0 0 1-1 7c0 1-.2 1.8-.4 2.7l-.3 1.8-.8 4.4 2.1-2 1.5-1.6h.6l.2-.5c.4-.7.8-1.1 1.3-1.6.8-.7.8-.7 1.3-1.5h4.2a6 6 0 0 1-1.4 2l-.4.4-.5.5-.6.5-1.6 1.6-1.2 1.1-2.7 2.8c.3.9.8 1.7 1.3 2.6l.4.7.4.7 1 1.5.4.7 2.4 4c-.6.6-1.5.5-2.2.5h-1c-1.1-.2-1.3-.3-1.9-1.2l-.8-1.5-.5-.8-1.3-2.4-.5-.8-1-2.1-.6 2.5-.1.7-1 4.6c0 .5 0 .5-.3.8H313.5c-.3-.7-.2-1 0-1.7v-.7l.2-.8.1-.8.5-2.7.7-3.8.2-1 2-11 .4-2.3v-.7l.7-2.6ZM100.8 237.8c1.5 1.3 2 2.3 2.3 4.3 0 2.8-.6 4.8-2.4 7-2.4 2.3-5 2.9-8.3 3l-2-.4-.1.8a1114.1 1114.1 0 0 1-1 5.8v1l-.8 2.4H85c-.3-1.2-.2-2 0-3.2a1492 1492 0 0 0 .5-2.8l.3-1.4a1096.2 1096.2 0 0 1 2.4-13.5v-.6c.3-1.2.6-2 1.6-2.7 3-1.4 8-1.6 10.9.3Zm-8.1 1.7c-.6 1.7-.9 3.5-1.2 5.3l-.1.9-.2.9-.1.8-.1 2c2.9 0 2.9 0 5.6-1l.5-.3v-.6l.9-.2a8 8 0 0 0 1-6.2c-.4-.8-.8-1.2-1.7-1.6l-.8-.1-.7-.1c-1-.2-2 0-3.1.2ZM134 242.7c1 .7 1.5 1.3 1.7 2.3.4 3.2-.4 6.3-1 9.4a482.4 482.4 0 0 0-.7 4.3l-.2.9v.7l-.2.6c-.1.5-.1.5-.4.8H129.6c.1-2.8.7-5.5 1.2-8.2 1.2-4.2 1.2-4.2.4-8.2-1.9-.9-3.8-.5-5.8-.3v.6a69.9 69.9 0 0 1-1.5 10l-.3 1.4-.1.6-1 4.1H119c.2-3.2.8-6.4 1.4-9.6l.3-1.7 1.4-7.3c3.6-1.2 8.5-2.2 12-.4ZM239.7 242l.7-.1c1.7 0 3.4.1 4.8 1.3 1.2 1.4 1.3 2.6 1.2 4.3l-.5 3.1-.1 1-.3 1.8-.5 2.8-.3 1.8-.1.8-.2.8v.7l-.5 1.4h-3.6c-.5-1-.1-2 0-3l.2-.7.4-2.3.3-1.6.5-2.9c.4-2 .4-2 .6-4.1v-.7c0-.6 0-.6-.3-1.4-2-.5-4-.3-6 0v.5c-.1 1.8-.4 3.6-.7 5.3l-.1.9-.3 1.7-.5 2.7-.3 1.7-.1.8-.2.8v.6l-.8 1.7h-3.3c-.4-.7-.3-1-.2-1.7l.2-.7a488.1 488.1 0 0 0 .7-4.3l.3-1.7 1.4-7.5.2-1c.1-.9.1-.9.4-1.7l1.4-.5c.2 0 .4 0 .7-.2l.7-.1.6-.2c1.2-.2 2.4-.2 3.6-.2ZM305.5 241.9h.7c1.7 0 3.4.2 4.7 1.3 1.4 1.6 1.3 3.1 1.2 5.2 0 1-.3 2-.5 3l-.1.8-.5 2.6c0 .6-.2 1.1-.3 1.7 0 .6-.2 1.1-.3 1.7l-.1.8-.2.7v.6l-.5 1.4H306a58 58 0 0 1 1.1-7.8c1.3-4.4 1.3-4.4.6-8.6-1.9-.9-3.7-.6-5.6-.3l-.1.6-1 5.5-.5 2.8-.6 3.2-.2 1-.1 1-.2.8-.4 1.8h-3.6a65.2 65.2 0 0 1 1-7.7c0-.7.2-1.3.3-2l.5-3 .4-2 .1-.9.2-.8.1-.7.4-1.5c2.3-1 4.7-1.2 7.1-1.2ZM116.1 242.8a5.2 5.2 0 0 1 1.8 4 26.4 26.4 0 0 1-.7 5.3 486 486 0 0 1-.7 4.2c0 .6-.2 1.1-.3 1.6l-.1.8c-.3 1.8-.3 1.8-1.2 2.5-2 .7-3.8.9-5.9.9h-.7c-2 0-3.7-.3-5.3-1.6a5 5 0 0 1-1.2-3.7c.3-2.4 1.3-4 3-5.5 2.6-1.7 6-2.4 9.1-2.4v-2a7 7 0 0 0-.3-1.9c-2.1-.3-3.8-.2-6 .4a4 4 0 0 1-2 0v-2l1.1-.6.7-.3c2.5-1 6.4-1 8.7.3Zm-8.6 10a7.1 7.1 0 0 0-2.1 4.2c.2 1 .4 1.5 1.2 2.2 2 .8 3.6.5 5.6 0l.6-3a18.3 18.3 0 0 0 .6-5.1c-2.2 0-4.1.6-6 1.7ZM287.8 241.9h.6a6 6 0 0 1 4 1.3c1.6 2 1.5 3.7 1.2 6.2l-.6 3-.2 1.2c-.4 2.4-.8 4.9-1.4 7.3a16.8 16.8 0 0 1-7.3 1.3c-1.8 0-3.2-.4-4.7-1.3-1.4-1.5-1.5-2.6-1.5-4.6.2-1.7.8-2.7 1.9-4a15 15 0 0 1 7.7-3.3h.7c.5-.2 1-.3 1.6-.3V246.6c0-.8 0-.8-.3-1.6-2.2-.3-4-.2-6 .4-.7.2-.7.2-1.8.2l-.3-2.5c2.1-.8 4.1-1.2 6.4-1.2Zm-4.5 11.2a5.6 5.6 0 0 0-1.7 4c0 1 .1 1.3.9 2.1l1.4.4.8.1c1.2 0 2.2-.2 3.4-.5l.7-3.4.2-1 .2-.9c0-.3 0-.6.2-.9v-1.8c-2.1 0-4.4.5-6 1.9ZM222.4 241.9h.6c1.7 0 3 .4 4.4 1.6 1.3 1.6 1 3.8.9 5.7a69.1 69.1 0 0 1-1.5 8.5l-.1.7c-.4 2-.4 2-1 2.8-1.9 1-4.2.9-6.3 1h-.7c-1.8 0-3.2-.4-4.7-1.3-1.4-1.5-1.5-2.5-1.5-4.4.2-1.7.8-2.9 1.8-4.2 3-2.4 6.3-3 10-3.6l.3-2.5a3 3 0 0 0-1.6-1.4 11 11 0 0 0-5 .6c-.7.2-1 .2-1.8 0l-.2-2.3c2.1-.8 4-1.2 6.4-1.2Zm-4.5 11.2c-1.3 1.4-1.8 2.5-1.8 4.4.1.7.1.7.7 1.4 1.5 1 2.9 1 4.6.6l1.3-.3 1-4.6v-.7c.3-1 .4-1.8.4-2.7-2.2 0-4.5.5-6.2 1.9ZM70.1 242.7c1.1 1 1.9 2.3 2.1 3.7a55 55 0 0 1-.2 5.3 2345 2345 0 0 1-7.4 1.2c-1.6.3-3.2.6-5 .5l.3 1.7.1 1c.3 1 .6 1.5 1.3 2.3 1.7.8 3.6.7 5.4.3 1-.3 1.8-.4 2.8-.3l.2 2.2a9.8 9.8 0 0 1-6 1.5h-.6a7 7 0 0 1-4.9-1.5c-2-2.5-2.4-4.8-2-8a14 14 0 0 1 4.3-8.9c2.6-1.9 6.7-2.8 9.6-1Zm-7.6 2.9v.6h-.6l-.8 1.5-.5.9c-.5 1-.5 1-.7 2.6l8.7-1.2c.3-3.3.3-3.3-.8-5-2-1-3.5-.4-5.3.6ZM26.4 237H39c.4.8.1 1.6 0 2.5-.3.3-.3.3-1.4.3a293.5 293.5 0 0 1-3.7 0v.6l-2.5 15-.2.9-.4 2.4-.2.7c-.3 1.7-.3 1.7-.6 2.3h-3.6a3 3 0 0 1-.1-2v-.6l.2-.7a509.7 509.7 0 0 1 2.3-12.6l.1-.6.4-2.6.2-1 .1-.7.4-1.1h-4.7c.3-2.8.3-2.8 1-2.9ZM181.3 233.6c0 1.7 0 1.7-.7 2.4-.7.5-1.4 1-2.2 1.2-1 .7-1.2 2-1.5 3l-.4 2h3.4l-.6 2.6H176l-.1 1-.7 4.4-.1.9-.4 1.7-.4 2.7-.3 1.7-.1.8-.2.7v.7l-.8 2.3h-3.6A205.4 205.4 0 0 1 172 245l-2-.5c0-.8.2-1.5.3-2.2h2.2v-.7c.4-2.5 1.2-5 3.1-6.8 1-.7 2.2-1 3.3-1.2l.8-.1c.6-.1.6-.1 1.5.1ZM213.2 242.8a5 5 0 0 1-.9 2.5l-.8-.1c-2.7-.4-2.7-.4-5.2.6-2.1 1.8-2.7 5-3 7.7-.1 1.8 0 3.5 1.2 4.9.8.5 1.4.6 2.3.5l.7-.1.6-.1 1-.2.7-.1.3 2.8a13 13 0 0 1-6.7.8 6.4 6.4 0 0 1-3.4-2.8c-1.4-3.5-1-7.6.4-11 1.3-2.9 2.9-4.8 5.8-6 2.2-.7 4.8-.4 7 .6ZM189 242a141 141 0 0 0 2.3 0c-.1 1-.3 2-1 2.8l-2.4.2h-2.1v.6c-.2 2-.5 3.8-.9 5.8l-.2.9-.5 2.8-.4 2-.8 4.6h-3.7c-.3-.9-.2-1.2 0-2v-.9l.2-.8.2-1 .5-2.7.4-1.9 1.8-9.3c2.3-.8 4.3-1.2 6.7-1.1ZM195 242.2h2.8c-.2 2.2-.5 4.4-1 6.5l-.1 1-.4 2.3-.5 2.8-.5 2.6-.1 1a392 392 0 0 0-.4 1.8c0 .7 0 .7-.4 1.5h-3.6a66.3 66.3 0 0 1 1.6-10.9l.4-2.2.4-2.7.2-1 .2-1 .1-.8c.2-.9.3-.8 1.3-.9ZM198.9 235.9c.3.6.3.6.3 1.4-.4.7-.7 1.2-1.3 1.7-1 .3-1.7.3-2.6.2-.6-.6-.6-.6-.6-1.1v-.7l.1-.7c.2-.7.5-1 1-1.4 1.2-.6 2 0 3.1.6Z"/>
        </g>
    </g>
    <defs>
        <clipPath id="a">
            <path fill="#fff" d="M0 0h368v368H0z"/>
        </clipPath>
        <clipPath id="b">
            <path fill="#fff" d="M25 106h319v156H25z"/>
        </clipPath>
    </defs>
</svg>