<svg width="72" height="72" viewBox="0 0 368 368" fill="none"
    xmlns="http://www.w3.org/2000/svg">
    <g clip-path="url(#clip0_1181_311)">
        <path d="M341.714 0H26.2857C11.7685 0 0 11.7685 0 26.2857V341.714C0 356.232 11.7685 368 26.2857 368H341.714C356.232 368 368 356.232 368 341.714V26.2857C368 11.7685 356.232 0 341.714 0Z" fill="#EEF7FD"/>
        <path d="M341.714 0H26.2857C11.7685 0 0 11.7685 0 26.2857V341.714C0 356.232 11.7685 368 26.2857 368H341.714C356.232 368 368 356.232 368 341.714V26.2857C368 11.7685 356.232 0 341.714 0Z" fill="#EEF7FD"/>
        <path d="M271.165 136.91C267.841 140.235 258.654 149.207 250.789 156.928L236.491 170.941L242.389 176.875L248.287 182.809L242.425 188.421C239.208 191.531 236.634 194.212 236.705 194.391C236.991 195.034 277.135 234.249 277.385 234.141C277.564 234.07 286.786 225.097 297.939 214.195L318.172 194.355L312.238 188.457L306.34 182.559L312.202 176.768L318.101 170.977L300.728 153.926C291.148 144.524 281.961 135.516 280.281 133.872L277.242 130.905L271.165 136.91ZM291.898 168.582L306.197 182.666L293.864 194.784C287.072 201.433 280.567 207.796 279.387 208.904L277.206 210.942L262.943 196.929C255.079 189.243 248.609 182.845 248.537 182.737C248.43 182.487 276.956 154.498 277.314 154.498C277.457 154.498 284.034 160.825 291.898 168.582Z" fill="#EB001B"/>
        <path d="M189.698 181.593C183.3 194.426 178.045 204.972 178.045 205.079C178.045 205.186 180.476 205.222 183.443 205.186L188.805 205.079L194.882 192.389C198.242 185.418 201.101 179.592 201.244 179.413C201.387 179.27 204.319 184.989 207.786 192.103L214.042 205.079L219.475 205.186C222.442 205.222 224.873 205.222 224.873 205.115C224.873 205.043 219.583 194.462 213.112 181.629L201.352 158.322L189.698 181.593Z" fill="#EB001B"/>
        <path d="M61.7607 183.417C68.1951 196.214 73.5929 206.545 73.7001 206.402C74.0218 206.044 96.8997 160.717 96.8997 160.467C96.8997 160.324 94.5047 160.217 91.6092 160.217H86.3187L79.9558 173.157C76.3096 180.664 73.5214 185.955 73.3426 185.74C73.1639 185.561 70.3042 179.735 67.0155 172.8L61.01 160.217H55.505H50L61.7607 183.417Z" fill="#EB001B"/>
        <path d="M100.474 182.737V205.258H105.479H110.483V182.737V160.217H105.479H100.474V182.737Z" fill="#EB001B"/>
        <path d="M127.177 160.789C122.065 161.897 118.741 164.149 117.025 167.652C116.131 169.475 116.024 170.047 116.024 173.443C116.024 176.946 116.096 177.34 117.061 179.091C119.027 182.63 121.208 183.846 130.216 186.312C133.826 187.313 137.437 188.385 138.259 188.671C141.976 190.03 142.727 193.962 139.689 195.821C138.652 196.428 137.615 196.5 127.034 196.607L115.488 196.714V201.04V205.329L127.213 205.186C139.76 205.008 141.047 204.829 144.8 202.934C147.231 201.683 148.983 200.075 149.948 198.144C151.056 195.964 151.342 194.57 151.306 191.424C151.271 188.278 150.413 186.062 148.447 184.06C146.48 182.022 144.443 181.129 136.65 178.948C128.071 176.553 127.964 176.517 126.713 175.195C125.461 173.872 125.318 171.799 126.391 170.548C127.749 169.046 129 168.796 135.756 168.796H142.119L146.409 164.507L150.699 160.217L140.153 160.253C132.325 160.253 128.965 160.396 127.177 160.789Z" fill="#EB001B"/>
        <path d="M154.095 164.328L149.984 168.439H157.24H164.461L164.533 186.741L164.64 205.079L169.573 205.186L174.47 205.293V186.848V168.439H181.62H188.769V164.328V160.217H173.469H158.205L154.095 164.328Z" fill="#EB001B"/>
        <path d="M125.926 215.982C125.712 216.482 123.71 221.129 121.422 226.313C119.134 231.496 117.275 235.786 117.275 235.857C117.275 235.929 117.812 236 118.491 236C119.635 236 119.778 235.857 120.528 234.034L121.351 232.068H126.355H131.395L132.146 233.962C132.861 235.678 133.004 235.821 134.255 235.929C135.256 236.036 135.542 235.929 135.399 235.571C134.72 233.927 126.856 216.125 126.57 215.66C126.319 215.16 126.212 215.231 125.926 215.982ZM128.321 224.883C129.322 227.242 130.144 229.315 130.144 229.53C130.144 229.78 128.786 229.923 126.212 229.923H122.316L123.924 226.062C124.818 223.953 125.712 221.88 125.89 221.415C126.033 220.986 126.248 220.629 126.355 220.629C126.427 220.629 127.32 222.559 128.321 224.883Z" fill="#EB001B"/>
        <path d="M100.832 226.134V236H106.122C112.056 236 113.2 235.678 114.702 233.462C115.416 232.461 115.524 231.889 115.416 230.173C115.273 228.457 115.095 227.957 114.094 226.92L112.914 225.705L113.701 224.633C115.273 222.523 114.523 219.056 112.164 217.269C111.27 216.59 110.555 216.518 105.979 216.411L100.832 216.304V226.134ZM111.02 219.056C113.129 220.45 112.735 223.739 110.305 224.776C109.411 225.133 108.088 225.276 106.087 225.204L103.155 225.097L103.048 221.773L102.941 218.484H106.551C109.232 218.484 110.376 218.627 111.02 219.056ZM111.377 227.564C113.665 228.529 114.13 231.353 112.235 232.926C111.198 233.819 110.948 233.855 107.052 233.855H102.977V230.709C102.977 228.958 103.084 227.421 103.227 227.314C103.692 226.849 110.126 227.063 111.377 227.564Z" fill="#EB001B"/>
        <path d="M138.366 226.17V236H139.438H140.511L140.582 228.6L140.69 221.237L146.909 228.529C150.305 232.533 153.415 235.857 153.773 235.929C154.416 236.036 154.452 235.607 154.452 226.205V216.339H153.201H151.95L151.878 223.56L151.771 230.781L145.587 223.56C142.191 219.592 139.188 216.339 138.902 216.339C138.437 216.339 138.366 217.733 138.366 226.17Z" fill="#EB001B"/>
        <path d="M158.742 226.17V236H159.814H160.851L160.958 231.103L161.065 226.17L166.141 231.103C171.074 235.857 171.289 236 172.754 236L174.291 235.964L169.18 231.067L164.104 226.17L168.786 221.237L173.469 216.339H171.932C170.395 216.339 170.288 216.411 165.641 221.237L160.922 226.17V221.237L160.886 216.339H159.814H158.742V226.17Z" fill="#EB001B"/>
    </g>
    <defs>
        <clipPath id="clip0_1181_311">
            <rect width="368" height="368" fill="white"/>
        </clipPath>
    </defs>
</svg>
