<svg width="72" height="72" viewBox="0 0 368 368" fill="none"
    xmlns="http://www.w3.org/2000/svg">
    <g clip-path="url(#clip0_1181_328)">
        <path d="M341.714 0H26.2857C11.7685 0 0 11.7685 0 26.2857V341.714C0 356.232 11.7685 368 26.2857 368H341.714C356.232 368 368 356.232 368 341.714V26.2857C368 11.7685 356.232 0 341.714 0Z" fill="#EEF7FD"/>
        <path d="M341.714 0H26.2857C11.7685 0 0 11.7685 0 26.2857V341.714C0 356.232 11.7685 368 26.2857 368H341.714C356.232 368 368 356.232 368 341.714V26.2857C368 11.7685 356.232 0 341.714 0Z" fill="white"/>
        <path d="M117.259 73.3293C143.611 73.3037 169.964 73.331 196.317 73.4155C196.822 73.4171 196.822 73.4171 197.338 73.4187C205.93 73.4462 214.523 73.4752 223.116 73.5047C228.094 73.5218 233.072 73.5385 238.05 73.5549C238.407 73.5561 238.764 73.5572 239.131 73.5584C240.923 73.5644 242.715 73.5703 244.507 73.5761C259.091 73.6242 273.675 73.6732 288.259 73.7231C286.798 75.1851 285.315 76.5691 283.742 77.9078C283.502 78.1128 283.261 78.3179 283.014 78.5292C281.138 80.1186 279.217 81.6415 277.273 83.1456C275.701 84.3656 274.172 85.625 272.659 86.917C270.671 88.6142 268.638 90.2413 266.574 91.8462C263.525 94.2194 260.549 96.6761 257.603 99.1755C255.904 100.617 254.18 102.016 252.409 103.369C251.418 104.137 250.451 104.928 249.483 105.723C247.84 107.071 246.176 108.385 244.497 109.686C242.344 111.359 240.265 113.102 238.205 114.886C236.387 116.451 234.518 117.937 232.622 119.405C230.698 120.898 228.827 122.446 226.96 124.009C225.664 125.087 224.348 126.137 223.028 127.185C219.458 130.03 215.925 132.921 212.389 135.809C210.181 137.609 207.966 139.4 205.752 141.193C204.425 142.268 203.098 143.343 201.771 144.419C200.169 145.717 198.566 147.016 196.963 148.314C191.66 152.607 191.66 152.607 186.385 156.934C183.516 159.3 180.635 161.642 177.697 163.921C176.104 165.162 174.553 166.445 173.016 167.754C167.344 172.579 167.344 172.579 166.229 172.579C166.229 172.838 166.229 173.098 166.229 173.366C165.428 174.045 164.623 174.681 163.785 175.311C161.883 176.768 160.022 178.252 158.207 179.815C156.24 181.503 154.206 183.082 152.135 184.64C149.957 186.279 147.889 187.968 145.887 189.82C144.514 191.041 143.064 192.157 141.611 193.28C139.717 194.748 137.863 196.258 136.017 197.785C133.966 199.48 131.9 201.151 129.797 202.782C127.553 204.524 125.377 206.335 123.213 208.175C120.509 210.474 117.74 212.689 114.938 214.868C112.856 216.488 110.826 218.16 108.817 219.869C105.921 222.331 102.945 224.677 99.8822 226.929C100.466 225.595 101.228 224.686 102.227 223.631C103.703 222.029 105.067 220.378 106.398 218.659C107.959 216.645 109.592 214.737 111.319 212.862C112.317 211.749 113.217 210.579 114.124 209.392C115.057 208.205 116.031 207.056 117.012 205.908C119.378 203.136 121.69 200.322 123.983 197.489C126.287 194.647 128.617 191.834 131.013 189.069C132.385 187.482 133.706 185.862 135.008 184.219C136.156 182.795 137.344 181.408 138.53 180.017C139.979 178.317 141.397 176.594 142.808 174.863C143.626 173.871 144.456 172.891 145.293 171.915C147.989 168.765 150.685 165.571 153.073 162.18C153.244 161.972 153.415 161.765 153.591 161.551C153.852 161.551 154.113 161.551 154.381 161.551C154.47 161.341 154.558 161.13 154.649 160.914C155.344 159.663 156.258 158.636 157.195 157.563C157.592 157.103 157.988 156.641 158.384 156.18C158.578 155.954 158.773 155.728 158.973 155.495C159.691 154.648 160.382 153.782 161.07 152.911C162.553 151.043 164.107 149.243 165.667 147.44C167.065 145.821 168.411 144.17 169.738 142.492C170.755 141.24 171.81 140.024 172.868 138.806C174.647 136.756 176.347 134.659 178.011 132.515C179.565 130.524 181.199 128.608 182.862 126.707C183.701 125.745 184.474 124.805 185.185 123.742C176.424 123.714 167.663 123.693 158.902 123.68C154.833 123.674 150.765 123.666 146.697 123.652C143.149 123.641 139.601 123.633 136.053 123.63C134.176 123.629 132.3 123.625 130.423 123.617C128.652 123.609 126.882 123.606 125.111 123.608C124.465 123.608 123.819 123.605 123.174 123.601C115.782 123.551 109.437 124.716 103.885 129.994C103.607 130.27 103.328 130.546 103.042 130.831C102.816 131.05 102.591 131.269 102.358 131.495C101.922 131.924 101.493 132.361 101.067 132.8C101.619 129.803 102.358 126.877 103.165 123.939C103.289 123.484 103.413 123.03 103.54 122.562C104.279 119.854 105.026 117.149 105.784 114.447C106.661 111.313 107.516 108.173 108.373 105.034C111.439 93.8062 111.439 93.8062 112.865 88.8862C113.787 85.69 114.641 82.4752 115.497 79.2608C115.611 78.8346 115.725 78.4084 115.842 77.9693C115.944 77.5878 116.046 77.2062 116.15 76.8131C116.484 75.6383 116.868 74.4865 117.259 73.3293Z" fill="#818085"/>
        <path d="M147.273 258.043C150.4 258.043 153.528 258.043 156.751 258.043C157.137 258.737 157.523 259.432 157.921 260.148C158.307 260.841 158.693 261.535 159.08 262.228C159.353 262.719 159.627 263.211 159.9 263.702C161.345 266.299 162.793 268.895 164.263 271.479C168.024 278.097 168.024 278.097 168.993 281.674C169.021 281.416 169.048 281.157 169.077 280.891C169.642 275.634 170.242 270.383 170.912 265.138C170.982 264.593 171.051 264.048 171.12 263.502C171.217 262.736 171.316 261.97 171.415 261.205C171.472 260.765 171.528 260.325 171.586 259.872C171.758 258.831 171.758 258.831 172.152 258.043C175.15 258.043 178.147 258.043 181.236 258.043C180.717 262.483 180.176 266.92 179.605 271.354C179.527 271.958 179.45 272.561 179.372 273.165C179.211 274.415 179.05 275.665 178.889 276.914C178.683 278.512 178.478 280.111 178.273 281.709C178.114 282.949 177.954 284.189 177.794 285.429C177.719 286.019 177.643 286.609 177.567 287.198C177.462 288.019 177.356 288.839 177.25 289.66C177.16 290.357 177.16 290.357 177.069 291.069C176.914 292.15 176.725 293.21 176.497 294.277C175.033 294.38 173.57 294.443 172.103 294.498C171.69 294.528 171.276 294.558 170.85 294.588C167.855 294.673 167.855 294.673 166.659 293.6C166.025 292.673 165.528 291.745 165.044 290.732C164.716 290.131 164.388 289.53 164.06 288.929C163.744 288.317 163.431 287.703 163.119 287.089C161.973 284.869 160.795 282.716 159.441 280.615C157.451 277.477 155.625 273.888 154.776 270.252C154.742 270.765 154.708 271.279 154.673 271.808C154.126 279.344 153.07 286.798 152.012 294.277C149.014 294.277 146.017 294.277 142.928 294.277C143.164 289.781 143.68 285.368 144.298 280.91C144.57 278.95 144.836 276.989 145.102 275.028C145.154 274.646 145.206 274.264 145.26 273.87C145.808 269.831 146.3 265.786 146.762 261.735C146.914 260.502 147.096 259.273 147.273 258.043Z" fill="#838286"/>
        <path d="M232.18 258.043C235.308 258.043 238.436 258.043 241.658 258.043C241.392 262.819 240.753 267.485 240.079 272.221C246.139 272.026 246.139 272.026 252.321 271.828C252.842 267.279 253.364 262.73 253.901 258.043C257.028 258.043 260.156 258.043 263.379 258.043C263.145 261.994 262.798 265.907 262.323 269.836C262.218 270.697 262.117 271.559 262.016 272.42C261.661 275.41 261.259 278.386 260.786 281.36C260.567 282.767 260.389 284.174 260.219 285.588C259.866 288.491 259.458 291.383 259.035 294.277C255.907 294.277 252.779 294.277 249.557 294.277C250.007 289.405 250.5 284.556 251.136 279.705C247.096 279.705 243.056 279.705 238.894 279.705C238.763 281.524 238.633 283.344 238.499 285.218C238.306 286.847 238.106 288.468 237.882 290.092C237.694 291.473 237.507 292.854 237.314 294.277C234.186 294.277 231.059 294.277 227.836 294.277C227.836 290.738 227.836 290.738 228.098 288.985C228.157 288.576 228.217 288.168 228.278 287.747C228.377 287.08 228.377 287.08 228.478 286.4C228.622 285.394 228.766 284.388 228.908 283.381C228.947 283.105 228.986 282.828 229.027 282.543C229.74 277.432 230.352 272.307 230.988 267.186C231.038 266.785 231.088 266.384 231.139 265.97C231.233 265.214 231.326 264.459 231.42 263.703C231.462 263.361 231.504 263.019 231.548 262.667C231.584 262.372 231.621 262.076 231.658 261.772C231.821 260.528 232.002 259.285 232.18 258.043Z" fill="#838384"/>
        <path d="M87.2448 258.043C96.8887 258.043 106.533 258.043 116.469 258.043C114.995 260.248 113.532 262.391 111.927 264.492C111.51 265.042 111.094 265.593 110.678 266.143C110.354 266.57 110.354 266.57 110.025 267.006C108.889 268.516 107.767 270.036 106.645 271.557C106.417 271.867 106.188 272.176 105.953 272.496C105.485 273.13 105.017 273.764 104.549 274.399C103.323 276.061 102.097 277.723 100.87 279.385C100.647 279.686 100.425 279.987 100.196 280.298C99.9822 280.587 99.7688 280.876 99.549 281.174C99.273 281.548 99.273 281.548 98.9913 281.929C97.9774 283.292 96.9541 284.648 95.933 286.006C100.885 286.136 105.838 286.266 110.94 286.4C110.15 293.489 110.15 293.489 109.755 294.277C99.8506 294.277 89.946 294.277 79.7413 294.277C80.3242 293.114 80.8536 292.197 81.6064 291.163C81.8171 290.873 82.0279 290.582 82.245 290.283C82.5818 289.823 82.5818 289.823 82.9254 289.354C83.274 288.875 83.274 288.875 83.6297 288.387C85.1526 286.3 86.6946 284.229 88.2537 282.169C92.2029 276.939 96.0665 271.641 99.8822 266.314C95.4512 266.184 91.0202 266.054 86.455 265.92C86.6579 263.289 86.8706 260.655 87.2448 258.043Z" fill="#838385"/>
        <path d="M120.023 258.043C127.061 258.043 134.098 258.043 141.349 258.043C141.088 260.642 140.827 263.242 140.559 265.92C136.519 265.92 132.479 265.92 128.316 265.92C128.186 267.35 128.056 268.779 127.921 270.252C127.791 270.902 127.661 271.552 127.527 272.221C131.176 272.221 134.825 272.221 138.584 272.221C138.381 274.852 138.169 277.486 137.794 280.098C134.015 280.098 130.236 280.098 126.342 280.098C126.211 282.178 126.081 284.257 125.947 286.4C129.726 286.4 133.506 286.4 137.4 286.4C137.4 290.732 137.4 290.732 136.61 294.277C129.703 294.277 122.795 294.277 115.679 294.277C116.123 288.516 116.123 288.516 116.396 286.271C116.457 285.767 116.518 285.264 116.58 284.745C116.645 284.213 116.71 283.682 116.776 283.151C116.844 282.587 116.913 282.024 116.981 281.461C117.123 280.289 117.266 279.118 117.41 277.946C117.592 276.459 117.773 274.973 117.953 273.486C118.094 272.325 118.235 271.165 118.377 270.005C118.444 269.457 118.51 268.909 118.577 268.362C118.67 267.591 118.765 266.82 118.86 266.049C118.913 265.614 118.966 265.179 119.021 264.731C119.323 262.497 119.679 260.271 120.023 258.043Z" fill="#828285"/>
        <path d="M202.956 258.043C211.166 258.043 219.377 258.043 227.836 258.043C227.046 264.738 227.046 264.738 226.651 266.708C224.045 266.708 221.438 266.708 218.753 266.708C218.753 267.877 218.753 269.047 218.753 270.252C218.702 270.883 218.637 271.513 218.548 272.139C218.503 272.464 218.458 272.789 218.412 273.124C218.363 273.464 218.313 273.804 218.262 274.154C218.186 274.699 218.186 274.699 218.109 275.256C217.947 276.411 217.783 277.565 217.617 278.72C217.404 280.234 217.191 281.747 216.979 283.261C216.927 283.627 216.876 283.993 216.823 284.37C216.363 287.667 215.97 290.969 215.594 294.277C212.466 294.277 209.338 294.277 206.115 294.277C206.336 290.239 206.751 286.289 207.339 282.289C207.567 280.739 207.787 279.188 208.007 277.637C208.071 277.186 208.071 277.186 208.136 276.726C208.604 273.394 208.956 270.057 209.275 266.708C206.799 266.708 204.323 266.708 201.771 266.708C201.894 265.57 202.016 264.433 202.142 263.261C202.179 262.906 202.217 262.55 202.256 262.183C202.287 261.899 202.318 261.615 202.35 261.323C202.381 261.034 202.412 260.745 202.444 260.448C202.561 259.618 202.561 259.618 202.956 258.043Z" fill="#838384"/>
        <path d="M189.654 257.998C190.049 258 190.444 258.002 190.851 258.005C191.277 258.006 191.704 258.007 192.143 258.008C192.816 258.013 192.816 258.013 193.503 258.018C194.178 258.021 194.178 258.021 194.867 258.024C195.984 258.028 197.1 258.035 198.217 258.043C197.639 264.121 196.975 270.155 196.039 276.19C195.506 279.653 195.067 283.122 194.678 286.604C194.635 286.979 194.593 287.355 194.549 287.741C194.513 288.064 194.478 288.386 194.441 288.718C194.178 290.58 193.815 292.427 193.478 294.277C190.481 294.277 187.483 294.277 184.395 294.277C184.395 289.846 184.395 289.846 184.657 287.775C184.716 287.298 184.775 286.821 184.836 286.329C184.902 285.816 184.969 285.304 185.037 284.775C185.106 284.226 185.175 283.676 185.244 283.126C185.398 281.9 185.553 280.673 185.709 279.447C185.956 277.501 186.195 275.554 186.433 273.606C186.646 271.869 186.86 270.132 187.074 268.395C187.18 267.532 187.286 266.669 187.392 265.805C187.54 264.588 187.691 263.371 187.843 262.154C187.888 261.784 187.932 261.413 187.978 261.032C188.021 260.695 188.063 260.358 188.107 260.011C188.143 259.715 188.18 259.419 188.217 259.114C188.414 258.062 188.568 258.051 189.654 257.998Z" fill="#848386"/>
        <path d="M139.769 202.905C140.16 203.035 140.551 203.164 140.954 203.298C139.917 204.825 139.917 204.825 138.584 205.268C138.454 205.658 138.324 206.047 138.189 206.449C137.416 206.998 136.624 207.521 135.82 208.025C135.535 208.252 135.25 208.479 134.956 208.714C134.24 209.206 134.24 209.206 133.055 209.206C133.055 209.856 133.055 210.506 133.055 211.175C132.404 211.045 131.752 210.915 131.081 210.781C131.081 211.041 131.081 211.301 131.081 211.569C130.429 211.699 129.778 211.829 129.106 211.963C130.699 210.303 132.418 208.868 134.215 207.434C134.762 206.995 135.309 206.556 135.855 206.117C136.117 205.909 136.379 205.701 136.648 205.486C137.136 205.089 137.615 204.681 138.085 204.261C138.623 203.782 139.194 203.339 139.769 202.905Z" fill="#E32134"/>
        <path d="M152.012 193.059C152.272 193.189 152.533 193.319 152.801 193.452C151.37 195.3 150.214 196.389 148.062 197.391C147.66 197.911 147.264 198.435 146.878 198.966C146.487 198.966 146.096 198.966 145.693 198.966C145.522 199.332 145.522 199.332 145.347 199.705C144.903 200.542 144.903 200.542 144.113 201.329C143.722 201.329 143.331 201.329 142.928 201.329C142.928 201.589 142.928 201.849 142.928 202.117C142.277 202.247 141.625 202.377 140.954 202.511C142.36 201.072 143.827 199.74 145.372 198.449C145.594 198.263 145.816 198.076 146.045 197.884C148.007 196.242 149.999 194.639 152.012 193.059Z" fill="#D83541"/>
        <path d="M198.612 155.643C198.742 155.903 198.873 156.163 199.007 156.431C198.464 157.022 198.464 157.022 197.822 157.612C197.562 157.612 197.301 157.612 197.032 157.612C196.861 157.978 196.861 157.978 196.687 158.351C196.088 159.478 195.637 159.903 194.441 160.369C193.419 160.664 193.419 160.664 193.083 161.551C192.692 161.551 192.301 161.551 191.898 161.551C191.768 161.941 191.638 162.331 191.503 162.732C191.113 162.602 190.722 162.472 190.319 162.338C192.951 159.906 195.719 157.752 198.612 155.643Z" fill="#D62E37"/>
        <path d="M246.002 117.046C246.263 117.176 246.524 117.306 246.792 117.44C246.662 117.7 246.532 117.96 246.397 118.228C246.658 118.358 246.919 118.488 247.187 118.622C246.039 119.116 245.293 119.409 244.028 119.409C244.028 119.799 244.028 120.189 244.028 120.591C242.57 122.045 241.239 122.496 239.289 122.954C240.635 121.572 242.03 120.322 243.534 119.114C244.806 118.123 244.806 118.123 246.002 117.046Z" fill="#D93840"/>
        <path d="M253.506 111.138C253.636 111.398 253.766 111.658 253.901 111.926C253.185 112.911 253.185 112.911 252.321 113.895C251.93 113.895 251.539 113.895 251.136 113.895C250.66 114.814 250.281 115.666 249.952 116.652C249.691 116.652 249.43 116.652 249.162 116.652C249.162 116.392 249.162 116.132 249.162 115.865C248.64 116.254 248.119 116.644 247.582 117.046C247.321 116.916 247.061 116.786 246.792 116.652C247.688 115.88 248.585 115.109 249.483 114.338C249.863 114.01 249.863 114.01 250.252 113.675C250.497 113.465 250.743 113.254 250.996 113.037C251.221 112.843 251.447 112.649 251.679 112.449C252.321 111.926 252.321 111.926 253.506 111.138Z" fill="#DA333D"/>
        <path d="M94.3534 239.532C94.614 239.662 94.8747 239.792 95.1432 239.926C94.6002 240.714 94.6002 240.714 93.9585 241.501C93.6978 241.501 93.4372 241.501 93.1686 241.501C92.9976 241.867 92.9976 241.867 92.8231 242.24C92.0292 243.735 91.1285 244.048 89.6143 244.652C89.3537 244.912 89.0931 245.172 88.8245 245.44C88.5639 245.18 88.3032 244.92 88.0347 244.652C88.3714 244.395 88.3714 244.395 88.715 244.132C90.6431 242.649 92.5185 241.129 94.3534 239.532Z" fill="#D7343E"/>
        <path d="M121.998 217.871C121.998 218.131 121.998 218.391 121.998 218.659C121.341 219.186 120.683 219.711 120.023 220.234C119.493 220.887 118.966 221.543 118.443 222.203C117.259 222.991 117.259 222.991 116.395 222.843C116.159 222.762 115.922 222.681 115.679 222.597C116.582 221.807 117.487 221.02 118.394 220.234C118.78 219.896 118.78 219.896 119.173 219.551C119.42 219.338 119.667 219.124 119.921 218.905C120.149 218.707 120.376 218.509 120.611 218.305C121.208 217.871 121.208 217.871 121.998 217.871Z" fill="#DD2E3D"/>
        <path d="M221.517 137.132C221.648 137.522 221.778 137.912 221.912 138.314C221.533 138.375 221.533 138.375 221.147 138.437C220.878 138.526 220.609 138.616 220.333 138.708C220.202 139.098 220.072 139.488 219.938 139.889C219.701 140.003 219.465 140.117 219.222 140.234C218.085 140.817 217.528 141.631 216.778 142.646C216.257 142.516 215.736 142.386 215.199 142.252C219.295 138.474 219.295 138.474 221.517 137.132Z" fill="#D13237"/>
        <path d="M205.326 150.129C205.456 150.389 205.586 150.649 205.721 150.917C205.59 151.177 205.46 151.437 205.326 151.705C205.065 151.705 204.804 151.705 204.536 151.705C204.406 152.094 204.275 152.484 204.141 152.886C203.913 152.927 203.685 152.967 203.45 153.009C202.035 153.44 201.473 154.488 200.587 155.643C200.065 155.513 199.544 155.383 199.007 155.249C199.837 154.543 200.668 153.837 201.5 153.132C201.852 152.832 201.852 152.832 202.212 152.526C202.554 152.237 202.554 152.237 202.902 151.941C203.111 151.764 203.32 151.587 203.535 151.404C204.106 150.945 204.715 150.535 205.326 150.129Z" fill="#D73844"/>
        <path d="M135.425 206.449C135.425 206.839 135.425 207.229 135.425 207.631C135.107 207.874 134.79 208.118 134.462 208.369C133.367 209.117 133.367 209.117 133.129 210.289C133.105 210.582 133.081 210.874 133.055 211.175C132.404 211.045 131.752 210.915 131.081 210.782C131.081 211.041 131.081 211.301 131.081 211.569C130.429 211.699 129.778 211.829 129.106 211.963C130.461 210.572 131.86 209.319 133.376 208.098C133.762 207.787 134.147 207.476 134.544 207.155C134.835 206.922 135.125 206.689 135.425 206.449Z" fill="#D83944"/>
        <path d="M239.684 271.04C239.814 271.43 239.944 271.82 240.079 272.222C244.119 272.222 248.159 272.222 252.321 272.222C252.321 272.352 252.321 272.482 252.321 272.615C245.87 272.81 245.87 272.81 239.289 273.009C239.419 272.359 239.549 271.71 239.684 271.04Z" fill="#8D8C8F"/>
        <path d="M214.409 142.646C214.669 142.776 214.93 142.906 215.199 143.04C213.771 144.883 212.617 145.996 210.46 146.979C209.546 147.791 209.546 147.791 208.88 148.554C208.619 148.294 208.359 148.034 208.09 147.766C210.175 146.077 212.26 144.387 214.409 142.646Z" fill="#DD3E46"/>
        <path d="M176.102 174.154C175.474 175.843 174.352 176.644 172.942 177.698C172.682 177.698 172.421 177.698 172.152 177.698C172.152 177.958 172.152 178.218 172.152 178.486C171.501 178.616 170.849 178.746 170.178 178.88C171.348 177.677 172.554 176.528 173.806 175.409C174.072 175.171 174.339 174.933 174.613 174.688C175.312 174.154 175.312 174.154 176.102 174.154Z" fill="#DC3542"/>
        <path d="M188.739 258.043C191.867 258.043 194.995 258.043 198.217 258.043C198.087 258.433 197.956 258.823 197.822 259.225C197.822 258.965 197.822 258.705 197.822 258.437C196.612 258.471 195.403 258.513 194.194 258.56C193.853 258.569 193.511 258.578 193.16 258.587C191.241 258.667 189.92 258.799 188.344 260.012C188.474 259.362 188.605 258.713 188.739 258.043Z" fill="#979797"/>
        <path d="M87.6397 245.046C87.77 245.436 87.9004 245.826 88.0346 246.228C91.423 246.228 94.8114 246.228 98.3025 246.228C98.3025 246.358 98.3025 246.488 98.3025 246.622C94.3928 246.622 90.4831 246.622 86.455 246.622C86.8459 246.102 87.2369 245.582 87.6397 245.046Z" fill="#CD3B47"/>
        <path d="M110.94 226.142C111.07 226.661 111.201 227.181 111.335 227.717C110.077 228.756 108.851 229.743 107.386 230.474C106.995 230.344 106.604 230.214 106.201 230.08C107.765 228.78 109.329 227.481 110.94 226.142Z" fill="#DD3744"/>
        <path d="M190.319 162.732C190.319 163.52 190.319 163.52 189.711 164.172C188.14 165.557 186.888 166.594 184.79 167.065C189.006 162.732 189.006 162.732 190.319 162.732Z" fill="#DA3548"/>
        <path d="M267.328 100.505C267.198 101.025 267.067 101.544 266.933 102.08C266.542 102.08 266.151 102.08 265.748 102.08C265.748 102.47 265.748 102.86 265.748 103.262C263.132 104.443 263.132 104.443 261.799 104.443C262.571 103.784 263.344 103.128 264.119 102.474C264.339 102.286 264.558 102.098 264.784 101.905C266.449 100.505 266.449 100.505 267.328 100.505Z" fill="#DB444B"/>
        <path d="M103.042 232.443C103.302 232.573 103.563 232.703 103.831 232.837C102.952 234.639 102.076 235.165 100.277 235.988C99.5602 236.603 99.5602 236.603 99.0924 237.169C98.8317 236.909 98.5711 236.649 98.3026 236.382C98.5785 236.163 98.8544 235.945 99.1387 235.72C99.4981 235.435 99.8575 235.149 100.228 234.855C100.585 234.572 100.943 234.289 101.311 233.997C102.253 233.256 102.253 233.256 103.042 232.443Z" fill="#D93845"/>
        <path d="M238.894 122.954C239.338 124.431 239.338 124.431 238.894 125.317C237.991 125.652 237.991 125.652 236.894 125.957C236.532 126.059 236.169 126.162 235.795 126.268C235.514 126.344 235.234 126.42 234.945 126.498C236.196 125.215 237.472 124.048 238.894 122.954Z" fill="#DD3040"/>
        <path d="M272.462 188.332C272.723 188.722 272.983 189.112 273.252 189.514C271.82 191.434 271.82 191.434 270.487 191.877C270.227 191.617 269.966 191.357 269.697 191.089C270.61 190.179 271.522 189.27 272.462 188.332Z" fill="#E22D3D"/>
        <path d="M184 167.065C184.261 167.195 184.521 167.325 184.79 167.459C184.488 167.751 184.187 168.043 183.877 168.345C183.037 169.202 182.319 170.027 181.63 171.003C181.109 170.873 180.588 170.743 180.051 170.609C181.354 169.44 182.657 168.27 184 167.065Z" fill="#DB3746"/>
        <path d="M228.626 131.225C228.626 132.406 228.626 132.406 228.231 133.194C227.84 133.194 227.449 133.194 227.046 133.194C226.916 133.714 226.786 134.234 226.651 134.769C226 134.769 225.348 134.769 224.677 134.769C225.928 133.485 227.204 132.319 228.626 131.225Z" fill="#D9323C"/>
        <path d="M169.388 178.88C169.649 179.01 169.909 179.14 170.178 179.274C169.317 181.039 168.461 181.723 166.624 182.424C166.363 182.295 166.102 182.165 165.834 182.031C167.007 180.991 168.18 179.951 169.388 178.88Z" fill="#DA3C45"/>
        <path d="M158.33 187.938C158.591 188.068 158.852 188.198 159.12 188.332C158.682 189.601 158.36 189.891 157.146 190.548C156.755 190.726 156.364 190.905 155.961 191.089C155.7 191.349 155.439 191.609 155.171 191.877C154.91 191.617 154.65 191.357 154.381 191.089C155.684 190.049 156.988 189.01 158.33 187.938Z" fill="#D83543"/>
        <path d="M194.663 159.188C194.663 159.975 194.663 159.975 193.947 160.812C193.083 161.551 193.083 161.551 191.898 161.551C191.768 161.941 191.638 162.331 191.503 162.732C191.113 162.602 190.722 162.472 190.319 162.339C190.892 161.811 191.469 161.286 192.046 160.763C192.367 160.471 192.688 160.178 193.018 159.877C193.873 159.188 193.873 159.188 194.663 159.188Z" fill="#D73541"/>
        <path d="M139.769 202.905C140.16 203.035 140.551 203.164 140.954 203.298C140.206 204.615 139.792 204.866 138.313 205.366C137.665 205.512 137.665 205.512 137.005 205.661C137.926 204.742 138.848 203.824 139.769 202.905Z" fill="#DB3943"/>
        <path d="M190.714 161.157C190.974 161.287 191.235 161.417 191.503 161.551C190.461 162.331 189.418 163.11 188.344 163.914C188.214 163.524 188.083 163.134 187.949 162.732C188.891 161.987 189.557 161.541 190.714 161.157Z" fill="#FDE4E3"/>
        <path d="M246.002 117.046C246.263 117.176 246.524 117.306 246.792 117.44C246.662 117.7 246.531 117.96 246.397 118.228C246.658 118.358 246.919 118.488 247.187 118.622C245.361 119.458 245.361 119.458 244.028 119.015C244.679 118.366 245.331 117.716 246.002 117.046Z" fill="#D82E34"/>
        <path d="M118.838 219.84C118.838 221.022 118.838 221.022 118.443 221.809C118.052 221.809 117.661 221.809 117.259 221.809C117.259 222.199 117.259 222.589 117.259 222.991C116.737 222.861 116.216 222.731 115.679 222.597C116.722 221.687 117.764 220.777 118.838 219.84Z" fill="#D93645"/>
        <path d="M198.217 154.461C198.738 154.591 199.26 154.721 199.797 154.855C199.355 155.251 198.91 155.645 198.464 156.037C198.217 156.256 197.969 156.475 197.714 156.701C197.032 157.218 197.032 157.218 196.242 157.218C196.242 156.958 196.242 156.698 196.242 156.431C196.503 156.431 196.764 156.431 197.032 156.431C197.032 156.171 197.032 155.911 197.032 155.643C197.423 155.643 197.814 155.643 198.217 155.643C198.217 155.253 198.217 154.863 198.217 154.461Z" fill="#FEDAD9"/>
        <path d="M214.409 142.646C214.669 142.776 214.93 142.906 215.199 143.04C214.833 143.503 214.461 143.962 214.088 144.419C213.882 144.674 213.676 144.93 213.463 145.194C212.829 145.797 212.829 145.797 211.644 145.797C212.233 144.302 213.128 143.587 214.409 142.646Z" fill="#D9303A"/>
        <path d="M221.517 137.132C221.648 137.522 221.778 137.912 221.912 138.314C221.66 138.354 221.407 138.395 221.147 138.437C220.878 138.526 220.609 138.616 220.333 138.708C220.202 139.098 220.072 139.488 219.938 139.889C219.547 139.629 219.156 139.369 218.753 139.102C219.665 138.452 220.577 137.802 221.517 137.132Z" fill="#DF3744"/>
        <path d="M128.316 212.751C127.875 214.07 127.626 214.245 126.515 214.991C126.262 215.163 126.009 215.335 125.748 215.512C125.553 215.641 125.358 215.769 125.157 215.902C124.896 215.772 124.636 215.642 124.367 215.508C124.875 215.046 125.386 214.587 125.897 214.129C126.324 213.745 126.324 213.745 126.758 213.354C127.527 212.751 127.527 212.751 128.316 212.751Z" fill="#D53F4A"/>
        <path d="M153.986 191.483C153.986 192.271 153.986 193.059 153.986 193.846C153.595 194.106 153.204 194.366 152.801 194.634C152.41 194.504 152.019 194.374 151.617 194.24C152.399 193.33 153.181 192.421 153.986 191.483Z" fill="#E42436"/>
        <path d="M224.282 134.769C224.412 135.029 224.542 135.289 224.677 135.557C224.286 136.077 223.895 136.597 223.492 137.132C222.971 137.002 222.449 136.872 221.912 136.739C222.694 136.089 223.476 135.439 224.282 134.769Z" fill="#D8323C"/>
        <path d="M200.982 153.674C201.242 153.804 201.503 153.934 201.771 154.068C201.38 154.588 200.989 155.107 200.587 155.643C200.065 155.513 199.544 155.383 199.007 155.249C199.659 154.729 200.31 154.209 200.982 153.674Z" fill="#DB2E3E"/>
        <path d="M266.538 100.505C266.799 100.505 267.059 100.505 267.328 100.505C267.198 101.025 267.067 101.544 266.933 102.08C266.542 102.08 266.151 102.08 265.748 102.08C265.748 102.34 265.748 102.6 265.748 102.868C265.488 102.868 265.227 102.868 264.958 102.868C265.413 101.896 265.767 101.273 266.538 100.505Z" fill="#D62D3D"/>
        <path d="M276.016 92.2339C276.277 92.3639 276.537 92.4938 276.806 92.6277C276.6 92.8481 276.394 93.0684 276.181 93.2954C274.204 95.4429 272.369 97.6537 270.58 99.9561C269.145 101.796 267.656 103.581 266.139 105.353C264.398 107.388 262.702 109.457 261.009 111.532C260.45 112.214 259.89 112.895 259.331 113.575C257.832 115.404 256.334 117.233 254.839 119.065C254.618 119.335 254.397 119.605 254.17 119.883C252.76 121.612 251.384 123.362 250.058 125.157C249.81 125.431 249.81 125.431 249.557 125.711C249.296 125.711 249.035 125.711 248.767 125.711C248.619 126.144 248.619 126.144 248.469 126.586C247.931 127.783 247.329 128.484 246.422 129.428C244.977 130.981 243.644 132.576 242.349 134.252C240.791 136.264 239.17 138.202 237.487 140.111C235.907 141.904 234.386 143.718 232.945 145.625C231.359 147.718 229.687 149.713 227.964 151.695C226.563 153.31 225.211 154.955 223.884 156.631C222.979 157.759 222.053 158.868 221.122 159.975C219.928 161.398 218.748 162.829 217.593 164.283C216.389 165.795 215.148 167.271 213.89 168.738C212.388 170.494 210.938 172.28 209.522 174.105C207.747 176.389 205.877 178.575 203.967 180.747C202.625 182.278 201.345 183.837 200.113 185.458C199.034 186.831 197.889 188.149 196.739 189.463C195.553 190.837 194.471 192.269 193.405 193.738C192.981 194.322 192.981 194.322 192.549 194.918C192.334 195.214 192.119 195.51 191.898 195.815C200.879 195.819 209.86 195.809 218.84 195.784C223.01 195.772 227.18 195.765 231.351 195.768C234.987 195.771 238.623 195.765 242.259 195.75C244.183 195.742 246.107 195.738 248.031 195.744C249.845 195.75 251.659 195.745 253.473 195.731C254.135 195.728 254.798 195.728 255.461 195.734C261.748 195.779 266.161 193.739 270.669 189.357C272.965 186.955 274.754 184.408 276.485 181.586C277.201 180.455 277.201 180.455 277.991 179.668C277.751 182.007 277.431 184.301 276.994 186.611C276.936 186.923 276.878 187.235 276.818 187.557C276.635 188.546 276.449 189.535 276.263 190.523C276.142 191.175 276.02 191.826 275.899 192.478C275.659 193.764 275.419 195.05 275.177 196.335C274.956 197.508 274.739 198.682 274.524 199.856C273.88 203.363 273.141 206.84 272.338 210.314C272.09 211.395 271.842 212.476 271.595 213.557C271.533 213.825 271.472 214.093 271.408 214.37C271.04 215.979 270.685 217.591 270.342 219.206C269.066 225.181 267.566 231.087 266.02 236.997C265.912 237.409 265.804 237.821 265.693 238.246C265.385 239.422 265.076 240.598 264.766 241.774C264.671 242.132 264.577 242.491 264.48 242.86C264.393 243.189 264.306 243.518 264.216 243.856C264.14 244.144 264.064 244.432 263.985 244.729C263.774 245.44 263.774 245.44 263.379 246.228C245.822 246.329 228.265 246.43 210.708 246.529C208.612 246.541 206.516 246.552 204.42 246.564C204.003 246.567 203.586 246.569 203.157 246.571C196.496 246.609 189.836 246.647 183.175 246.686C176.288 246.726 169.4 246.765 162.512 246.803C158.666 246.825 154.82 246.847 150.973 246.87C129.072 246.999 107.172 247.038 85.2702 247.015C86.217 245.814 87.0689 244.793 88.3061 243.889C90.1588 242.494 91.9486 241.033 93.7363 239.557C96.4511 237.319 99.1867 235.112 101.946 232.929C104.075 231.239 106.178 229.52 108.274 227.791C110.327 226.098 112.392 224.426 114.494 222.794C117.128 220.748 119.701 218.633 122.274 216.512C125.858 213.558 129.462 210.629 133.129 207.778C134.917 206.389 136.665 204.965 138.387 203.495C140.331 201.836 142.317 200.243 144.335 198.675C146.918 196.666 149.453 194.601 151.99 192.537C153.083 191.648 154.178 190.761 155.273 189.875C158.357 187.379 161.437 184.879 164.501 182.36C166.497 180.722 168.511 179.112 170.548 177.526C172.728 175.828 174.86 174.084 176.978 172.311C178.275 171.232 179.592 170.181 180.915 169.132C182.312 168.017 183.699 166.888 185.086 165.76C187.102 164.122 189.131 162.504 191.183 160.911C193.19 159.351 195.141 157.737 197.074 156.086C198.834 154.59 200.644 153.169 202.469 151.755C204.056 150.52 205.6 149.245 207.127 147.938C209.008 146.332 210.935 144.807 212.907 143.314C214.76 141.907 216.541 140.424 218.322 138.928C219.61 137.855 220.933 136.829 222.258 135.803C224.449 134.104 226.564 132.331 228.662 130.519C230.18 129.211 231.726 127.956 233.32 126.742C237.832 123.298 242.199 119.652 246.595 116.062C254.354 109.727 254.354 109.727 257.949 106.929C260.074 105.274 262.154 103.575 264.219 101.846C267.034 99.4936 269.891 97.1942 272.763 94.9108C273.86 94.0326 274.94 93.1374 276.016 92.2339Z" fill="#EC1D27"/>
    </g>
    <defs>
        <clipPath id="clip0_1181_328">
            <rect width="368" height="368" fill="white"/>
        </clipPath>
    </defs>
</svg>
