<svg width="24" height="24" viewBox="0 0 72 72" fill="none"
    xmlns="http://www.w3.org/2000/svg">
    <mask id="mask0_16_4" style="mask-type:luminance" maskUnits="userSpaceOnUse" x="0" y="0" width="72" height="72">
        <path d="M72 0H0V72H72V0Z" fill="white"/>
    </mask>
    <g mask="url(#mask0_16_4)">
        <path d="M66.8571 0H5.14286C2.30253 0 0 2.30253 0 5.14286V66.8571C0 69.6974 2.30253 72 5.14286 72H66.8571C69.6974 72 72 69.6974 72 66.8571V5.14286C72 2.30253 69.6974 0 66.8571 0Z" fill="white"/>
        <path d="M66.8571 0H5.14286C2.30253 0 0 2.30253 0 5.14286V66.8571C0 69.6974 2.30253 72 5.14286 72H66.8571C69.6974 72 72 69.6974 72 66.8571V5.14286C72 2.30253 69.6974 0 66.8571 0Z" fill="#E5EFD7"/>
        <path d="M56.6376 37.2666L33.7707 14.4V17.9098L53.1277 37.2666L53.1352 37.2739L36.3683 54.0408L36.3483 54.0205L19.5925 37.2666L19.5776 37.252L27.8032 29.0262H24.2328L16 37.259L16.0074 37.2666L36.341 57.6L36.3483 57.5926L56.656 37.285L56.6376 37.2666Z" fill="#FE6309"/>
        <path d="M33.7639 20.3256V23.8354L47.2024 37.2741L36.376 48.1005L25.54 37.2666L25.5251 37.2522L33.7509 29.0264H30.1808L21.9477 37.2592L21.9551 37.2666L34.5826 49.8939L36.3487 51.66L38.1435 49.8666L50.7232 37.285L33.7639 20.3256Z" fill="#FE6309"/>
        <path d="M44.7953 37.2665L38.0899 30.5536L36.3056 28.7691L34.5509 30.5238L27.8101 37.259L34.5544 44.0032L36.3203 45.7689L38.1118 43.9755L44.8137 37.2845L44.7953 37.2665ZM36.3513 42.223L31.3952 37.2665L31.3803 37.2517L36.3235 32.3083L41.2801 37.2645L36.3513 42.223Z" fill="#FE6309"/>
    </g>
</svg>
