<svg
        xmlns="http://www.w3.org/2000/svg"
        width="24"
        height="24"
        fill="none"
        viewBox="0 0 72 72"
>
    <g clip-path="url(#a)">
        <path fill="#E04403" d="M0 0h72v72H0V0Z"/>
        <path fill="#fff"
              d="M41.216 10.234h18.002v18.001H41.216v-18Zm-22.577 48.05c-2.933 0-6.058-.816-6.058-7.938s3.77-8.378 6.942-8.378a8.2 8.2 0 0 1 3.724.837v2.539a13.091 13.091 0 0 0-3.724-.792c-1.609 0-3.77.863-3.77 5.601 0 5.027 1.675 5.63 2.836 5.63.724-.02 1.445-.097 2.157-.23v-4.822H18.59l-.226-2.43h5.559v9.167c-1.721.484-3.495.759-5.283.816ZM36.269 44.9h-3.495v13.158h-3.18V44.9H25.74v-2.723h10.893l-.365 2.723Zm6.786 13.385c-2.656 0-5.626-.838-5.626-8.17 0-7.33 3.74-8.164 5.92-8.164a7.122 7.122 0 0 1 2.932.565v2.564a10.115 10.115 0 0 0-2.77-.544c-1.54 0-2.903.93-2.903 5.58 0 4.155.977 5.559 2.678 5.559a10.129 10.129 0 0 0 2.995-.566v2.564a7.663 7.663 0 0 1-3.226.611Zm10.591 0c-2.45 0-5.672-.499-5.672-8.17 0-7.67 3.427-8.164 5.672-8.164 2.246 0 5.673.544 5.673 8.165 0 7.737-3.277 8.169-5.673 8.169Zm0-14.068c-1.588 0-2.514 1.043-2.514 5.899 0 4.926 1.157 5.902 2.514 5.902 1.358 0 2.493-.909 2.493-5.902 0-4.764-.934-5.899-2.493-5.899Z"
        />
    </g>
    <defs>
        <clipPath id="a">
            <rect width='72' height="72" fill="#fff" rx='6'/>
        </clipPath>
    </defs>
</svg>