<?xml version="1.0" encoding="UTF-8"?>
<svg version="1.1" xmlns="http://www.w3.org/2000/svg" width="200" height="200">
<path d="M0 0 C1.82337891 -0.02416992 1.82337891 -0.02416992 3.68359375 -0.04882812 C20.05789185 -0.05756574 33.40860065 3.71524465 45.359375 15.12109375 C49.17744178 19.02973511 51.66661487 21.95992352 52 27.5 C51.11105167 44.6194243 38.45748974 57.42426924 26.62744141 68.40380859 C-2.36907945 94.41881893 -41.97779341 112.1461162 -79.5 121.3125 C-81.11648437 121.71082031 -81.11648437 121.71082031 -82.765625 122.1171875 C-96.69846136 124.95824072 -113.67002177 125.61621124 -125.9375 117.6875 C-130.1408905 114.28919437 -131.41231009 110.48127436 -132.5 105.3125 C-132.68046875 104.57 -132.8609375 103.8275 -133.046875 103.0625 C-135.83916222 86.11620513 -132.20146244 70.44121713 -122.5 56.3125 C-99.06460891 23.95363307 -59.51501958 7.73324214 -21.28125 1.19921875 C-14.17582817 0.14548386 -7.17356178 -0.01901793 0 0 Z " fill="#FFFFFF" transform="translate(135.5,-0.3125)"/>
<path d="M0 0 C0.33 0 0.66 0 1 0 C1.97760605 29.23418083 0.10953153 54.56117911 -20 77 C-20.85888127 78.07959936 -21.71395012 79.16226156 -22.5625 80.25 C-33.1803821 92.22914904 -47.17402144 101.18282538 -61 109 C-61.59506348 109.34272949 -62.19012695 109.68545898 -62.80322266 110.03857422 C-84.86899802 122.69171853 -111.91430608 134.1937747 -137.78515625 129.28125 C-152.52319026 125.00635827 -160.00304492 116.48557872 -168.1875 103.9375 C-168.69474609 103.17373047 -169.20199219 102.40996094 -169.72460938 101.62304688 C-178 89.07579442 -178 89.07579442 -178 86 C-175.89356892 87.04116502 -173.80696221 88.10402036 -171.73828125 89.21875 C-153.44539747 98.88069184 -134.38120094 94.82115605 -115.4140625 89.046875 C-101.50068638 84.63256718 -88.08351096 79.47007612 -75 73 C-74.19095215 72.60167969 -73.3819043 72.20335938 -72.54833984 71.79296875 C-57.12861144 64.12418731 -43.036197 55.29933842 -30 44 C-29.09765625 43.24332031 -28.1953125 42.48664063 -27.265625 41.70703125 C-14.51199999 30.66469773 -3.51987086 16.91255024 0 0 Z " fill="#FFFFFF" transform="translate(191,43)"/>
<path d="M0 0 C0.66 0 1.32 0 2 0 C-0.18010724 7.0239879 -2.94075958 13.56218104 -6.125 20.1875 C-6.61073486 21.1983667 -7.09646973 22.2092334 -7.59692383 23.25073242 C-13.42760253 35.17811752 -20.34601354 45.89553369 -29 56 C-29.73605469 56.88171875 -30.47210938 57.7634375 -31.23046875 58.671875 C-43.30027243 72.6122029 -60.69769222 86.63343877 -79.76171875 88.3359375 C-98.31299936 88.52052736 -113.04036196 81.08045599 -127 69 C-128.07507813 68.08927734 -128.07507813 68.08927734 -129.171875 67.16015625 C-130.79053914 65.78429173 -132.39691578 64.39398628 -134 63 C-130.34088189 61.78029396 -129.56118679 62.36057117 -126.125 63.875 C-110.16307575 70.85529103 -91.66706281 65.84252379 -76.09448242 59.89355469 C-57.94540457 52.70865831 -40.80185569 43.89193883 -26 31 C-25.03578125 30.18015625 -24.0715625 29.3603125 -23.078125 28.515625 C-13.60145086 20.2816696 -6.08963518 11.01670365 0 0 Z " fill="#FFFFFF" transform="translate(180,112)"/>
</svg>
