<svg
        xmlns="http://www.w3.org/2000/svg"
        width="24"
        height="24"
        fill="none"
        viewBox="0 0 72 72"
>
    <g clip-path="url(#a)">
        <path fill="#A11774" d="M0 0h72v72H0V0Z"/>
        <path
                fill="#fff"
                d="M40.095 21.834a1.347 1.347 0 0 0-1.944-.833L20 30.9c0 .111.014.222.014.333.236.785 1.485 4.158 5.456 5.345l9.96 2.582-4.435-4.442c-.77-.778-.812-2.02-.083-2.777.729-.763 1.944-.742 2.714.035l7.816 7.83v.007c.77.77.812 2.02.083 2.776l-7.573 6.421c-.722.757-1.943.75-2.714-.027-.777-.778-.812-2.02-.083-2.777l4.31-3.506-9.419-3.033c-3.165-.826-5.06-2.672-5.852-5.928 1.312 9.92 9.413 19.52 13.085 23.858.347.41.652.777.923 1.103.396.438 1.541 1.694 1.854 1.972.284.257.721.312 1.11.153 2.645-1.104 5.366-2.763 8.094-4.929a47.14 47.14 0 0 0 2.756-2.367A52.25 52.25 0 0 0 52 49.406c-6.567-9.885-10.502-22.539-11.905-27.572ZM51.418 14.574a.905.905 0 0 0-.312-.923.884.884 0 0 0-.951-.132l-3.7 1.631c0 1.909.132 3.915.382 5.956.513 4.165 1.506 10.037 4.227 17.263-2.173-10.232-.604-19.63.354-23.795Z"
        />
        <path
                fill="#fff"
                d="M40.512 16.608c.597.27 1.027.79 1.173 1.43.166.95 1.02 5.608 2.998 11.14 1.18 3.305 2.791 6.914 4.637 10.433C44.65 27.7 43.9 18.315 43.934 13.297a1.253 1.253 0 0 0-.653-1.125 1.272 1.272 0 0 0-1.312.02l-18.533 11.28.36 1.208 14.87-8.01a2.08 2.08 0 0 1 1.846-.063Z"
        />
    </g>
    <defs>
        <clipPath id="a">
            <rect width='72' height="72" fill="#fff" rx='6'/>
        </clipPath>
    </defs>
</svg>